<?xml version="1.0" standalone="no"?>
<!DOCTYPE svg PUBLIC "-//W3C//DTD SVG 1.1//EN" "http://www.w3.org/Graphics/SVG/1.1/DTD/svg11.dtd">
<svg xmlns="http://www.w3.org/2000/svg"><metadata>This SVG WebFont was generated by YouWorkForThem.
Copyright Â© 2016 by Deni Anggara. All rights reserved.</metadata><defs><font horiz-adv-x="0" id="ywftsvg"><font-face ascent="1638" bbox="-1217 -532 2718 2114" cap-height="1454" descent="-410" font-family="" font-stretch="normal" font-weight="700" panose-1="0 0 8 0 0 0 0 0 0 0" underline-position="0" underline-thickness="0" unicode-range="U+0020-FB02" units-per-em="2048" x-height="983"/><missing-glyph d="M924 1761v-2253h-715v2253h715zM750 1610h-371v-74h145v-84h-147v-74h373v74h-148v84h148v74zM602 1319h-225v-234h373v76h-148v158zM524 1243v-82h-73v82h73zM750 1024h-373v-74h147v-84h-147v-73h225v157h148v74zM750 889h-74v-148h-299v-77h373v225zM750 614h-226 v-125h78v52h74v-107h-225v180h-74v-254h373v254zM750 225h-373v-256h373v256zM676 152v-107h-225v107h225zM750 -82h-373v-74h158l-158 -106v-74h373v74h-230l158 106h72v74z" horiz-adv-x="1126"/><glyph d="M426 1096v-113h600v-219v-764h-266v764h-334q2 -315 2 -764h-268q0 442 -2 764h-129v219h129v137q0 197 145.5 299.5t341.5 50.5l-53 -249q-70 20 -118 -16.5t-48 -108.5zM901 1149q-68 0 -119 51t-51 117q0 68 50 118t120 50q66 0 115 -50.5t49 -117.5q0 -66 -49 -117 t-115 -51z" glyph-name="uniFB01" horiz-adv-x="1179" unicode="fi"/><glyph d="M1149 244l94 -2v-242l-239 2q-111 0 -165.5 74t-54.5 200v488h-358q2 -315 2 -764h-268q0 442 -2 764h-129v219h129v137q0 197 145.5 299.5t341.5 50.5l-53 -249q-70 20 -118 -17t-48 -108v-113h358v471h269l2 -1137q0 -35 14 -52t29.5 -19t50.5 -2z" glyph-name="uniFB02" horiz-adv-x="1323" unicode="fl"/><glyph d="M1032 1096v-113h182v-219h-182q2 -315 2 -764h-268q0 442 -2 764h-358q2 -315 2 -764h-269q0 442 -2 764h-108v219h108v137q0 197 145.5 299.5t342.5 50.5l-54 -249q-70 20 -117.5 -17t-47.5 -108v-113h358v137q0 197 145.5 299.5t341.5 50.5l-53 -249q-70 20 -118 -16.5 t-48 -108.5z" glyph-name="f_f.liga" horiz-adv-x="1282" unicode="ff"/><glyph d="M999 1096v-113h596v-219v-764h-266v764h-330q2 -315 2 -764h-268q0 442 -2 764h-325q2 -315 2 -764h-269q0 442 -2 764h-108v219h108v137q0 197 145.5 299.5t342.5 50.5l-54 -249q-70 20 -117.5 -17t-47.5 -108v-113h325v137q0 197 145.5 299.5t342.5 50.5l-54 -249 q-70 20 -118 -16.5t-48 -108.5zM1470 1149q-68 0 -119 51t-51 117q0 68 50.5 118t119.5 50q66 0 115 -50.5t49 -117.5q0 -66 -49 -117t-115 -51z" glyph-name="f_f_i.liga" horiz-adv-x="1746" unicode="ffi"/><glyph d="M1733 244l94 -2v-242l-240 2q-111 0 -165 74t-54 200v488h-369q2 -315 2 -764h-268q0 442 -2 764h-325q2 -315 2 -764h-269q0 442 -2 764h-108v219h108v137q0 197 145.5 299.5t342.5 50.5l-54 -249q-70 20 -117.5 -17t-47.5 -108v-113h325v137q0 197 145.5 299.5 t342.5 50.5l-54 -249q-70 20 -118 -17t-48 -108v-113h369v471h268l2 -1137q0 -35 14.5 -52t30 -19t50.5 -2z" glyph-name="f_f_l.liga" horiz-adv-x="1906" unicode="ffl"/><glyph d="M1243 760h-227v-430q0 -51 24.5 -68.5t69.5 -17.5h94v-244h-239q-111 2 -165.5 76t-54.5 200v484h-339q2 -315 2 -760h-269q0 440 -2 760h-108v223h108v137q0 197 145.5 299.5t342.5 50.5l-54 -249q-70 20 -117.5 -17t-47.5 -108v-113h339v311h269v-311h229v-223z" glyph-name="f_t.dlig" horiz-adv-x="1323" unicode="ft"/><glyph d="M924 1761v-2253h-715v2253h715zM750 1610h-371v-74h145v-84h-147v-74h373v74h-148v84h148v74zM602 1319h-225v-234h373v76h-148v158zM524 1243v-82h-73v82h73zM750 1024h-373v-74h147v-84h-147v-73h225v157h148v74zM750 889h-74v-148h-299v-77h373v225zM750 614h-226 v-125h78v52h74v-107h-225v180h-74v-254h373v254zM750 225h-373v-256h373v256zM676 152v-107h-225v107h225zM750 -82h-373v-74h158l-158 -106v-74h373v74h-230l158 106h72v74z" glyph-name=".notdef" horiz-adv-x="1126"/><glyph glyph-name="glyph1"/><glyph glyph-name="glyph2" horiz-adv-x="681"/><glyph glyph-name="space" horiz-adv-x="512" unicode=" "/><glyph d="M430 352h-252l-35 553v549h322v-549zM313 -31q-63 0 -109 45t-46 107q0 63 46 108t109 45q61 0 107.5 -45t46.5 -108q0 -61 -46.5 -106.5t-107.5 -45.5z" glyph-name="exclam" horiz-adv-x="610" unicode="!"/><glyph d="M367 1372l-45 -389h-148l-47 389q-8 74 31 114t94 36q51 -2 87 -39t28 -111zM707 1372l-45 -389h-148l-47 389q-8 74 31 114t94 36q51 -2 87 -39t28 -111z" glyph-name="quotedbl" horiz-adv-x="835" unicode="&quot;"/><glyph d="M1405 823h-203l-39 -190h226l-52 -268h-225l-72 -365h-268l72 365h-228l-71 -365h-266l71 365h-186l51 268h186l39 190h-209l52 269h209l71 362h266l-71 -362h229l72 362h266l-72 -362h203zM897 633l37 190h-227l-39 -190h229z" glyph-name="numbersign" horiz-adv-x="1619" unicode="#"/><glyph d="M750 852q184 -35 286.5 -148.5t102.5 -285.5q0 -170 -108.5 -289t-282.5 -145v-150h-230v158q-164 35 -273.5 139.5t-129.5 247.5l270 39q10 -74 87 -124t187 -50q98 0 155.5 55t53.5 127q-4 53 -42 94t-107 60q-59 10 -219 45q-156 33 -244 143.5t-88 267.5 q0 160 98.5 279t251.5 153v152h230v-145q154 -25 259 -117t144 -238l-266 -69q-41 166 -248 166q-82 0 -135 -48.5t-62 -111.5q-8 -57 23 -104.5t96 -59.5q37 -8 191 -41z" glyph-name="dollar" horiz-adv-x="1253" unicode="$"/><glyph d="M453 705q-150 -2 -240 105.5t-90 285.5t90 286.5t240 106.5q150 2 239.5 -106.5t89.5 -286.5t-89.5 -285.5t-239.5 -105.5zM1470 1454h267l-1108 -1454h-267zM303 1096q0 -98 40 -153.5t110 -57.5q70 2 108.5 57t38.5 154q0 190 -125 207q-8 2 -22.5 2t-22.5 -2 q-59 -8 -93 -62.5t-34 -144.5zM1647 752q150 2 239.5 -106.5t89.5 -287t-90 -286t-239 -105.5q-150 -2 -240 105.5t-90 286t90 287t240 106.5zM1647 147q70 2 108.5 57.5t38.5 153.5q0 190 -125 207q-8 2 -22.5 2t-22.5 -2q-59 -8 -93 -62t-34 -145q0 -98 40 -153.5 t110 -57.5z" glyph-name="percent" horiz-adv-x="2058" unicode="%"/><glyph d="M1427 240h105v-240h-154q-86 -4 -142 19.5t-114 86.5q-12 12 -37 41q-180 -152 -421 -159q-268 -8 -422 188q-88 109 -102.5 243t53.5 273q74 141 264 238q-86 113 -92 211q-10 135 74.5 237.5t219.5 118.5q137 16 246 -67.5t117 -219.5q4 -102 -45 -180t-154 -156 q8 -10 246 -319l12 66q10 63 4 124l246 25q6 -76 -4 -156q-18 -152 -86 -274q33 -37 45 -49q45 -51 141 -51zM610 1182q-4 -43 29 -88q10 -16 43 -52q2 2 15.5 12.5t19.5 16.5q66 55 61 107q-8 72 -80 75q-33 2 -59.5 -17t-28.5 -54zM655 217q158 6 277 113 q-68 86 -181.5 234.5t-138.5 178.5q-162 -88 -200 -163q-59 -115 2 -230q75 -139 241 -133z" glyph-name="ampersand" horiz-adv-x="1560" unicode="&amp;"/><glyph d="M434 1251q0 -37 -20 -73l-121 -236h-78l33 162q-53 10 -88 52t-35 95q0 63 46 108.5t110 45.5q61 0 107 -45.5t46 -108.5z" glyph-name="quotesingle" horiz-adv-x="559" unicode="'"/><glyph d="M645 -53l-149 -152q-180 119 -281.5 366t-101.5 523.5t101 523t282 365.5l149 -152q-117 -78 -181.5 -297t-64.5 -440t64.5 -440t181.5 -297z" glyph-name="parenleft" horiz-adv-x="655" unicode="("/><glyph d="M10 -53q117 78 181.5 297t64.5 440t-64.5 440t-181.5 297l150 152q180 -119 281.5 -365.5t101.5 -523t-101.5 -523.5t-281.5 -366z" glyph-name="parenright" horiz-adv-x="655" unicode=")"/><glyph d="M51 1251l31 103l170 -54v175h104v-175l168 54l29 -103l-166 -53l107 -156l-84 -59l-107 154l-104 -150l-84 57l106 154z" glyph-name="asterisk" horiz-adv-x="604" unicode="*"/><glyph d="M1108 731v-246h-389v-391h-246v391h-391v246h391v389h246v-389h389z" glyph-name="plus" horiz-adv-x="1189" unicode="+"/><glyph d="M434 152q0 -37 -20 -74l-121 -236h-78l33 162q-53 10 -88 52t-35 96q0 63 46 108t110 45q61 0 107 -45t46 -108z" glyph-name="comma" horiz-adv-x="559" unicode=","/><glyph d="M82 666h772v-269h-772v269z" glyph-name="hyphen" horiz-adv-x="935" unicode="-"/><glyph d="M287 -31q-63 0 -109.5 45t-46.5 107q0 63 46 108t110 45q61 0 107 -45t46 -108q0 -61 -46 -106.5t-107 -45.5z" glyph-name="period" horiz-adv-x="571" unicode="."/><glyph d="M0 0l567 1454h269l-570 -1454h-266z" glyph-name="slash" horiz-adv-x="835" unicode="/"/><glyph d="M1266 1223q135 -195 135 -494q0 -274 -113 -459q-170 -291 -532 -295h-4h-4q-188 2 -332 89.5t-223 244.5q-90 180 -91 420q0 266 111 457q174 293 535 297h4h4q336 -4 510 -260zM1032 416q74 119 74 313q0 197 -78 320q-96 147 -276 151q-178 -4 -277 -147 q-80 -127 -80 -324q0 -164 56 -278q92 -190 301 -195q186 4 280 160z" glyph-name="zero" horiz-adv-x="1503" unicode="0"/><glyph d="M354 1485h273v-1485h-273v1077q-35 -10 -67 -10h-215v270h202q80 0 80 105v43z" glyph-name="one" horiz-adv-x="800" unicode="1"/><glyph d="M944 571q-18 -14 -71.5 -51t-114 -80t-117.5 -83t-93 -65.5t-32 -23.5l602 2v-266l-1026 -4q0 162 49 268.5t191 204.5q453 303 454 318q94 80 99 188q-4 106 -65.5 173t-170.5 69q-113 -2 -175 -63.5t-62 -168.5h-269q0 217 139.5 356.5t362.5 141.5h4h4 q215 -2 354.5 -144.5t145.5 -355.5v-8v-8q-10 -236 -209 -400z" glyph-name="two" horiz-adv-x="1255" unicode="2"/><glyph d="M786 948q154 -51 247 -176t93 -291q0 -217 -150.5 -361.5t-365.5 -144.5q-223 0 -368.5 144.5t-145.5 351.5h269q4 -98 69.5 -163.5t175.5 -65.5q102 0 174 67.5t72 171.5q0 111 -69.5 183.5t-180.5 72.5q-61 0 -127 -26l-96 213l256 260l-483 2v268h901v-233z" glyph-name="three" horiz-adv-x="1228" unicode="3"/><glyph d="M1245 532v-266h-186v-266h-266v266l-701 2v267l701 919h266v-922h186zM418 535l375 -3v500z" glyph-name="four" horiz-adv-x="1296" unicode="4"/><glyph d="M643 1012q229 0 365.5 -147.5t136.5 -375.5q0 -213 -157 -363.5t-376 -150.5q-217 0 -368.5 149.5t-151.5 364.5h268q0 -102 73 -172.5t179 -70.5q109 0 184.5 70.5t80.5 172.5q6 137 -70 214t-209 77q-74 0 -137.5 -36.5t-79.5 -86.5l-244 64l182 733h777v-270h-568 l-59 -215q80 43 174 43z" glyph-name="five" horiz-adv-x="1236" unicode="5"/><glyph d="M389 899q88 109 234.5 139.5t283.5 -14.5t235.5 -178t94.5 -322q-4 -248 -165 -400.5t-372 -150.5q-197 2 -332 112t-194 291t-47 412q12 270 129 441q166 252 467 254q154 2 289 -58.5t219 -189.5l-227 -135q-84 94 -212 111.5t-239 -54.5q-127 -86 -164 -258zM690 221 q115 -2 197 77t84 230q0 78 -31 139.5t-78 93.5t-104.5 47t-114.5 0t-106.5 -47t-81 -94.5t-35.5 -144.5q0 -145 79.5 -222t190.5 -79z" glyph-name="six" horiz-adv-x="1331" unicode="6"/><glyph d="M31 1454h1022v-274q-516 -391 -516 -1180h-277q0 743 453 1180h-682v274z" glyph-name="seven" horiz-adv-x="1083" unicode="7"/><glyph d="M111 399q0 176 137 299q55 45 104 68q-57 31 -104 82q-96 111 -92 254q0 178 147 289q127 92 313 92q178 0 299 -80q166 -111 166 -307q0 -137 -94 -248q-47 -51 -104 -82q39 -20 69 -41q178 -127 172 -332q-6 -174 -135 -291q-141 -127 -373 -127q-229 0 -370 127 q-131 119 -135 297zM387 1073q-2 -86 63.5 -140t165.5 -54q115 0 181 65q55 55 49 133q-6 82 -84 129q-57 37 -146 37q-106 0 -172 -55q-53 -52 -57 -115zM356 436q0 -70 47 -127q76 -86 213 -86q121 0 193 66q74 63 70 160q-6 76 -70 131q-72 66 -193 65q-133 0 -204 -76 q-56 -55 -56 -133z" glyph-name="eight" horiz-adv-x="1236" unicode="8"/><glyph d="M1192 1092q76 -213 50.5 -452t-144.5 -415q-115 -166 -304.5 -226t-375 0t-289.5 222l227 135q106 -119 269 -114.5t256 125.5q47 59 77 145q-121 -129 -319 -129q-213 0 -378 149.5t-161 399.5q6 246 176 401.5t383 155.5q195 0 332.5 -107.5t200.5 -289.5zM647 639 q119 -2 205 76t88 219q-2 137 -82 213t-190 78q-117 2 -208 -77t-93 -220q2 -133 84.5 -209t195.5 -80z" glyph-name="nine" horiz-adv-x="1372" unicode="9"/><glyph d="M279 678q-63 0 -109.5 45t-46.5 106q0 63 46 108.5t110 45.5q61 0 107 -45t46 -109q0 -61 -46 -106t-107 -45zM279 -31q-63 0 -109.5 45t-46.5 107q0 63 46 108t110 45q61 0 107 -45t46 -108q0 -61 -46 -106.5t-107 -45.5z" glyph-name="colon" horiz-adv-x="555" unicode=":"/><glyph d="M279 678q-63 0 -109.5 45t-46.5 106q0 63 46 108.5t110 45.5q61 0 107 -45t46 -109q0 -61 -46 -106t-107 -45zM279 305q61 0 107 -45t46 -108q0 -37 -20 -74l-121 -236h-78l33 162q-53 10 -88 52t-35 96q0 63 46.5 108t109.5 45z" glyph-name="semicolon" horiz-adv-x="555" unicode=";"/><glyph d="M778 993v-295l-413 -200l413 -203v-295l-706 354v285z" glyph-name="less" horiz-adv-x="860" unicode="&lt;"/><glyph d="M211 840h772v-228h-772v228zM211 137v228h772v-228h-772z" glyph-name="equal" horiz-adv-x="1228" unicode="="/><glyph d="M82 993l706 -354v-285l-706 -354v295l414 203l-414 200v295z" glyph-name="greater" horiz-adv-x="870" unicode=">"/><glyph d="M516 1483q209 0 352.5 -143.5t143.5 -352.5q0 -117 -42 -203t-153 -172q-12 -10 -75.5 -52t-98.5 -80t-39 -81v-45h-270v60q0 70 38 137t73.5 103t98 86.5t68.5 54.5q127 104 127 192q0 109 -63.5 167t-159.5 58q-88 0 -155.5 -67.5t-67.5 -157.5h-273q0 209 143.5 352.5 t352.5 143.5zM481 283q61 0 108.5 -46.5t47.5 -109.5q0 -61 -47 -107.5t-109 -46.5q-66 0 -111.5 46.5t-45.5 107.5q0 63 45.5 109.5t111.5 46.5z" glyph-name="question" horiz-adv-x="1175" unicode="?"/><glyph d="M1483 997q63 -178 14 -374q-39 -147 -142.5 -225.5t-214 -69t-182.5 93.5q-96 -80 -235 -80q-121 0 -197.5 66.5t-74.5 169.5q-2 123 92 204q76 63 250 64h122q-4 43 -36.5 67.5t-77.5 26.5q-51 2 -96.5 -25.5t-65.5 -76.5q-16 8 -76.5 31.5t-87.5 35.5q127 217 373 217 q125 0 198.5 -80.5t63.5 -205.5l-16 -181q-16 -92 49 -116q59 -25 114 30q31 33 43 86q39 170 -30 320q-59 125 -182 198.5t-277 73.5q-215 0 -368.5 -152.5t-153.5 -365.5q0 -217 152.5 -369.5t369.5 -152.5q160 0 287 90l135 -160q-190 -137 -422 -137q-299 0 -514 215 t-215 514q0 297 215 511t514 214q227 0 410.5 -121t261.5 -336zM737 549q119 0 152 135h-129q-45 0 -73 -21.5t-32 -48.5q-2 -33 19.5 -49t62.5 -16z" glyph-name="at" horiz-adv-x="1611" unicode="@"/><glyph d="M1149 0l-129 344h-549l-131 -344h-320l580 1454h291l579 -1454h-321zM561 586h367l-183 483z" glyph-name="A" horiz-adv-x="1490" unicode="A"/><glyph d="M1294 416q0 -193 -131 -302.5t-364 -113.5h-365h-268v1454h268q61 0 185 -1t141 -1q242 0 380 -111.5t138 -308.5q0 -186 -141 -305q157 -116 157 -311zM760 1198h-326v-360h326q121 0 173 54t48 140q-4 72 -59.5 119t-161.5 47zM782 256q80 0 145.5 39t71.5 121 q8 90 -53 142t-170 52h-342v-354h348z" glyph-name="B" horiz-adv-x="1368" unicode="B"/><glyph d="M1450 1059l-272 -101q-39 104 -137.5 173t-227.5 69q-188 0 -311 -134t-123 -339q0 -203 123 -333t311 -130q131 0 236.5 65.5t154.5 168.5l271 -127q-82 -184 -260.5 -290t-401.5 -106q-301 0 -516 219.5t-215 532.5t215 534.5t516 221.5q125 0 232.5 -36t173 -84 t119 -115.5t75 -107.5t37.5 -81z" glyph-name="C" horiz-adv-x="1546" unicode="C"/><glyph d="M690 1456q328 0 541 -204.5t213 -524.5q0 -322 -211 -524.5t-543 -202.5h-350h-174v1456h268h256zM690 240q215 0 337 131t122 356q0 223 -123 355t-336 132h-256v-974h256z" glyph-name="D" horiz-adv-x="1523" unicode="D"/><glyph d="M432 608v-342l651 -2l-2 -264h-897h-18v1454h266h651l-2 -266h-649v-322l584 -2l-2 -258z" glyph-name="E" horiz-adv-x="1200" unicode="E"/><glyph d="M1081 1186l-649 2v-348l551 -2l-2 -256l-549 2v-584h-266v1454h266l651 -2z" glyph-name="F" horiz-adv-x="1175" unicode="F"/><glyph d="M782 600v248h697v-848h-267v109q-156 -133 -389 -134q-344 0 -543.5 211t-199.5 535q0 313 212 538.5t515 225.5q240 0 419 -120t265 -323l-272 -94q-57 127 -167 196.5t-245 69.5q-186 0 -308 -141t-122 -352q0 -209 123 -335t323 -126q143 0 254 80t133 260h-428z" glyph-name="G" horiz-adv-x="1603" unicode="G"/><glyph d="M1042 1454h267v-1454h-267v606l-610 2v-608h-266v1454h266v-588l610 -2v590z" glyph-name="H" horiz-adv-x="1474" unicode="H"/><glyph d="M432 0h-266v1454h266v-1454z" glyph-name="I" horiz-adv-x="598" unicode="I"/><glyph d="M680 1454h266v-1048q0 -193 -124 -313t-339 -118q-201 0 -321.5 122t-120.5 315v51h266v-51q0 -78 56.5 -128.5t121.5 -47.5q78 -2 137.5 48t57.5 138v1032z" glyph-name="J" horiz-adv-x="1097" unicode="J"/><glyph d="M1337 1454l-592 -737l578 -717h-369l-389 494l-133 -166v-332h-268v1458h268v-684l537 684h368z" glyph-name="K" horiz-adv-x="1361" unicode="K"/><glyph d="M432 266h647v-266h-878h-37v1454h268v-1188z" glyph-name="L" horiz-adv-x="1130" unicode="L"/><glyph d="M1370 1454h268v-1454h-268v776l-336 -776h-266l-338 776v-776h-266v1454h266l471 -1132z" glyph-name="M" horiz-adv-x="1802" unicode="M"/><glyph d="M1110 1454h266v-1454h-266l-680 1001v-1001h-266v1454h266l680 -1001v1001z" glyph-name="N" horiz-adv-x="1540" unicode="N"/><glyph d="M1526 723q0 -328 -206 -538t-517 -210q-305 0 -513 214t-208 534q0 324 206 542t513 218q311 0 518 -217t207 -543zM1227 723q0 215 -116 345t-310 130q-188 0 -304 -131t-116 -344q0 -209 116.5 -336t305.5 -127q197 0 310.5 123t113.5 340z" glyph-name="O" horiz-adv-x="1607" unicode="O"/><glyph d="M1217 1006q0 -213 -129.5 -338t-356.5 -136h-297v-532h-268v1454h268q51 0 149.5 -1t114.5 -1q246 0 382.5 -113.5t136.5 -332.5zM698 786q123 0 184.5 61.5t57.5 158.5q-12 193 -242 192h-264v-412h264z" glyph-name="P" horiz-adv-x="1271" unicode="P"/><glyph d="M1534 729q0 -332 -211 -547l166 -188h-291l-51 57q-156 -80 -342 -80q-303 0 -513 218.5t-210 539.5q0 326 207 542t516 216q313 0 521 -216t208 -542zM805 242q84 0 153 24l-188 213h293l74 -84q98 129 98 334q0 217 -118 351t-312 134q-188 0 -305 -135t-117 -350 q0 -211 118 -349t304 -138z" glyph-name="Q" horiz-adv-x="1660" unicode="Q"/><glyph d="M1186 725q-78 -80 -170 -123l272 -602h-303l-237 557h-312v-557h-270v1454h270l348 -2q246 -4 377 -119q123 -106 128.5 -300.5t-103.5 -307.5zM436 1198v-395h332q137 0 190 76q39 55 32 138t-56 128q-55 51 -166 51z" glyph-name="R" horiz-adv-x="1372" unicode="R"/><glyph d="M1137 1120l-267 -69q-20 78 -97 122t-163 44q-78 0 -138 -36t-81 -104q-18 -63 15.5 -115.5t117.5 -68.5q2 0 201 -39q188 -33 293.5 -147.5t105.5 -288.5q0 -207 -157.5 -324t-372.5 -117q-205 0 -363.5 105.5t-169.5 296.5l267 39q12 -82 96 -128t182 -46q102 0 170 45 t68 121q2 47 -29 89t-86 62q-45 16 -285 64q-160 35 -246.5 139t-86.5 272q0 188 146 317.5t345 129.5q205 0 353.5 -106.5t181.5 -256.5z" glyph-name="S" horiz-adv-x="1210" unicode="S"/><glyph d="M1169 1454v-268h-434v-1186h-268v1186h-434v268h1136z" glyph-name="T" horiz-adv-x="1202" unicode="T"/><glyph d="M1049 1454h268v-926q0 -250 -173 -405.5t-410.5 -155.5t-409.5 156t-172 405v926h268v-926q0 -131 98 -211.5t215 -80.5q119 0 217.5 80.5t98.5 211.5v926z" glyph-name="U" horiz-adv-x="1468" unicode="U"/><glyph d="M1130 1454h320l-582 -1454h-266l-582 1454h320l395 -1087z" glyph-name="V" horiz-adv-x="1470" unicode="V"/><glyph d="M1935 1454h320l-494 -1454h-268l-354 1001l-355 -1001h-266l-493 1454h319l309 -1024l326 1024h319l326 -1024z" glyph-name="W" horiz-adv-x="2279" unicode="W"/><glyph d="M1327 0h-319l-334 504l-334 -504h-320l494 745l-469 709h320l309 -467l307 467h319l-466 -709z" glyph-name="X" horiz-adv-x="1347" unicode="X"/><glyph d="M1307 1454l-512 -862v-592h-267v592l-508 862h320l322 -604l325 604h320z" glyph-name="Y" horiz-adv-x="1327" unicode="Y"/><glyph d="M1112 1454v-266l-713 -922h703v-266h-1018l-4 266l713 920l-713 -2v266z" glyph-name="Z" horiz-adv-x="1200" unicode="Z"/><glyph d="M578 33v-209h-465v1810h465v-209h-238v-1392h238z" glyph-name="bracketleft" horiz-adv-x="587" unicode="["/><glyph d="M836 0h-267l-569 1454h268z" glyph-name="backslash" horiz-adv-x="835" unicode="\"/><glyph d="M10 33h238v1390h-238v209h465v-1808h-465v209z" glyph-name="bracketright" horiz-adv-x="587" unicode="]"/><glyph d="M770 983h-266l-78 174l-78 -174h-266l211 471h266z" glyph-name="asciicircum" horiz-adv-x="851" unicode="^"/><glyph d="M113 -33h690v-186h-690v186z" glyph-name="underscore" horiz-adv-x="813" unicode="_"/><glyph d="M207 1579l-207 381h283l192 -381h-268z" glyph-name="grave" horiz-adv-x="536" unicode="`"/><glyph d="M549 1014q176 2 299 -100.5t123 -282.5v-643h-262v78q-104 -90 -238 -91q-172 0 -278.5 88.5t-106.5 229.5q-6 184 152 282q72 43 270 48h143q27 0 42.5 13t13.5 40q-20 98 -158 106q-166 6 -250 -129l-197 111q148 250 447 250zM467 199q225 -10 242 172v55 q-61 -2 -199 -2q-94 0 -141 -37t-43 -94q8 -90 141 -94z" glyph-name="a" horiz-adv-x="1087" unicode="a"/><glyph d="M745 1018q123 -2 228.5 -61.5t174.5 -186.5t64 -297q-10 -238 -146 -365.5t-321 -132.5q-199 -4 -329 131v-106h-271v1454h271v-575q130 143 329 139zM692 205q106 2 183 73.5t81 210.5q0 141 -77.5 220t-186.5 79q-106 0 -185 -75.5t-81 -212.5q-6 -141 73.5 -219 t192.5 -76z" glyph-name="b" horiz-adv-x="1282" unicode="b"/><glyph d="M1042 709l-235 -86q-59 158 -223 157q-121 0 -185.5 -83t-64.5 -207.5t64.5 -204.5t185.5 -80q90 0 141 41t70 92l227 -92q-51 -127 -168 -199t-270 -72q-213 0 -363.5 148.5t-150.5 366t151.5 372t362.5 154.5q160 0 285.5 -84t172.5 -223z" glyph-name="c" horiz-adv-x="1097" unicode="c"/><glyph d="M866 1454h271v-1454h-271v104q-131 -143 -329 -139q-123 2 -228.5 61.5t-174 186.5t-64.5 297q10 236 145 366t322 142q193 12 329 -121v557zM590 195q106 0 185 75.5t81 212.5q6 143 -75 225.5t-191 79.5q-104 -2 -182 -78.5t-82 -215.5q0 -141 77.5 -220t186.5 -79z " glyph-name="d" horiz-adv-x="1277" unicode="d"/><glyph d="M1063 489v-98h-727q29 -74 91 -119t140 -45q162 0 215 117l232 -88q-51 -129 -172 -205t-275 -76q-205 0 -351 153t-146 368t146 367.5t351 152.5q156 0 279 -81t178 -220q16 -45 26.5 -101.5t10.5 -89.5zM332 586h473q-4 31 -27.5 68.5t-48.5 58.5q-68 55 -162 55 q-80 0 -144 -50t-91 -132z" glyph-name="e" horiz-adv-x="1132" unicode="e"/><glyph d="M426 1096v-113h184v-223h-184q2 -315 2 -760h-268q0 440 -2 760h-129v223h129v137q0 197 145.5 299.5t341.5 50.5l-53 -249q-70 20 -118 -16.5t-48 -108.5z" glyph-name="f" horiz-adv-x="675" unicode="f"/><glyph d="M848 983h268v-944q0 -209 -125 -356q-147 -174 -383 -175q-250 0 -395 144q-80 76 -123 201l229 79q23 -61 66 -102q82 -78 213 -72q145 6 207 109q43 68 43 172v84q-111 -123 -287 -123q-215 0 -351 137t-136 369q0 236 132 374t355 136q174 0 287 -125v92zM592 231 q111 0 181.5 79t72.5 204q-2 123 -77 194.5t-177 71.5q-113 0 -187.5 -78.5t-74.5 -195.5q0 -119 74.5 -197t187.5 -78z" glyph-name="g" horiz-adv-x="1247" unicode="g"/><glyph d="M678 1038q213 0 350 -126t137 -414v-498h-268v483q0 135 -64.5 208t-154.5 73q-96 0 -176 -69.5t-88 -227.5v-467h-269v1454h271v-530q98 114 262 114z" glyph-name="h" horiz-adv-x="1296" unicode="h"/><glyph d="M285 1149q-68 0 -119 51t-51 117q0 68 50 118t120 50q66 0 115 -50.5t49 -117.5q0 -66 -49 -117t-115 -51zM143 983h267v-983h-267v983z" glyph-name="i" horiz-adv-x="563" unicode="i"/><glyph d="M311.5 1135q-71.5 0 -124 53t-52.5 123q0 72 52.5 124t124 52t122.5 -52.5t51 -123.5q0 -70 -51 -123t-122.5 -53zM-51 -492v279q152 0 192.5 61.5t40.5 196.5l-6 940h279l-9 -1012q0 -55 -8 -106t-38.5 -121t-81 -119t-145.5 -84t-224 -35z" glyph-name="j" horiz-adv-x="600" unicode="j"/><glyph d="M1042 983l-411 -426l411 -557h-297l-280 385l-51 -53v-332h-269v1454h269v-784l303 313h325z" glyph-name="k" horiz-adv-x="1056" unicode="k"/><glyph d="M604 0l-239 2q-111 0 -165.5 74t-54.5 200v1178h269l2 -1137q0 -35 14 -52t29.5 -19t50.5 -2l94 -2v-242z" glyph-name="l" horiz-adv-x="684" unicode="l"/><glyph d="M1288 1012q188 2 298 -128t110 -329v-555h-262l6 571q0 104 -55.5 154.5t-131.5 50.5q-86 0 -148.5 -59.5t-62.5 -163.5v-553h-260l4 573q0 96 -49 151.5t-121 55.5q-88 0 -148 -56t-60 -171v-553h-263v985h263v-90q92 109 245 121q233 0 336 -207q92 201 299 203z" glyph-name="m" horiz-adv-x="1826" unicode="m"/><glyph d="M698 1016q90 0 164 -23.5t141.5 -78t105.5 -156t38 -244.5v-514h-260v500q0 131 -56.5 201.5t-148.5 78.5q-102 12 -185 -52t-94 -202l3 -526h-261l2 983h256v-115q115 152 295 148z" glyph-name="n" horiz-adv-x="1277" unicode="n"/><glyph d="M1073 487q0 -215 -145.5 -363.5t-354.5 -148.5q-205 0 -354 152t-149 360q0 217 147.5 372t355.5 155q207 0 353.5 -155t146.5 -372zM809 485q0 117 -64.5 196t-171.5 79q-111 0 -175 -80t-64 -195q0 -106 66.5 -184t172.5 -78q109 0 172.5 73.5t63.5 188.5z" glyph-name="o" horiz-adv-x="1142" unicode="o"/><glyph d="M745 1018q123 -2 228.5 -61.5t174.5 -186.5t64 -297q-10 -238 -147 -371t-320 -137q-188 -4 -319 127v-557h-281v1448h281v-94q129 133 319 129zM692.5 195q104.5 2 182 78.5t81.5 215.5q0 141 -77.5 220t-186.5 79q-106 0 -185 -75.5t-81 -212.5v-33q6 -129 84 -201.5 t182.5 -70.5z" glyph-name="p" horiz-adv-x="1282" unicode="p"/><glyph d="M854 985h281v-1444h-281v482q-115 -121 -281 -121q-229 0 -364 153.5t-139 397.5v6v4q4 246 139 398.5t364 152.5q166 0 281 -121v92zM586 143q106 0 181 74t87 201v82q-12 125 -88 199.5t-180 74.5q-111 0 -184.5 -86t-75.5 -229q2 -143 74.5 -229.5t185.5 -86.5z" glyph-name="q" horiz-adv-x="1280" unicode="q"/><glyph d="M410 870q80 127 333 113v-240q-139 39 -230 -38.5t-101 -221.5v-483h-265l-2 983h265v-113z" glyph-name="r" horiz-adv-x="784" unicode="r"/><glyph d="M858 754l-246 -56q-27 92 -149 93q-94 0 -115 -68q-6 -29 11.5 -52.5t56.5 -33.5q53 -14 200 -53q233 -59 234 -297q0 -139 -105.5 -225.5t-267.5 -86.5q-160 0 -278.5 80t-139.5 207l252 41q8 -43 53.5 -72.5t112.5 -29.5q121 0 121 80q0 49 -82 67q-29 6 -58.5 14.5 t-51 13.5t-39 10t-27.5 8t-12 3q-106 31 -168 110t-62 185q0 137 105.5 230.5t259.5 93.5q150 0 258 -71.5t137 -190.5z" glyph-name="s" horiz-adv-x="931" unicode="s"/><glyph d="M655 764h-188v-447q0 -35 14.5 -52t29.5 -19t50 -2l94 -2v-242l-239 2q-111 0 -165 74t-54 200v488h-168v219h168v311h268v-311h190v-219z" glyph-name="t" horiz-adv-x="735" unicode="t"/><glyph d="M862 983h262v-983h-262v113q-96 -137 -276 -138q-213 0 -332 111t-119 391v506h262v-489q0 -135 61.5 -209t160 -74t171 78t72.5 246v448z" glyph-name="u" horiz-adv-x="1259" unicode="u"/><glyph d="M817 983h268l-417 -983h-246h-2l-400 983h269l258 -674z" glyph-name="v" horiz-adv-x="1105" unicode="v"/><glyph d="M1311 983h278l-346 -983h-242h-4l-192 575l-205 -575h-242h-4l-329 983h280l176 -594l187 594h280l176 -594z" glyph-name="w" horiz-adv-x="1613" unicode="w"/><glyph d="M1022 983l-350 -491l350 -492h-283l-217 305l-215 -305h-282l350 492l-350 491h282l215 -305l217 305h283z" glyph-name="x" horiz-adv-x="1042" unicode="x"/><glyph d="M848 983h278l-579 -1442h-279l189 469l-443 973h281l289 -655z" glyph-name="y" horiz-adv-x="1146" unicode="y"/><glyph d="M883 983v-240l-467 -503h467v-240h-807v240l479 503h-479v240h807z" glyph-name="z" horiz-adv-x="958" unicode="z"/><glyph d="M485 1004q0 -164 -129 -277q129 -109 129 -281v-315q0 -78 32 -107.5t93 -29.5v-176q-96 4 -123 8q-211 41 -211 256v313q0 66 -21.5 114t-53 71.5t-57 34t-42.5 10.5v194q43 0 108.5 62.5t65.5 173.5v313q0 227 228 258l106 4v-176q-61 0 -93 -21.5t-32 -80.5v-348z" glyph-name="braceleft" horiz-adv-x="671" unicode="{"/><glyph d="M123 1614h266v-1798h-266v1798z" glyph-name="bar" horiz-adv-x="512" unicode="|"/><glyph d="M344 1055q0 -111 65.5 -173.5t108.5 -62.5v-194q-16 0 -41.5 -10.5t-57.5 -34t-53.5 -71.5t-21.5 -114v-307q0 -215 -211 -256l-123 -8v176q61 0 93 29.5t32 107.5v309q0 172 129 281q-129 113 -129 277v348q0 59 -31.5 80.5t-93.5 21.5v176q84 -2 107 -4 q227 -31 227 -258v-313z" glyph-name="braceright" horiz-adv-x="630" unicode="}"/><glyph d="M754 727h147q0 -102 -68.5 -170t-173.5 -68q-88 0 -210 93q-86 61 -136 61q-70 0 -84 -61h-147q0 102 68.5 169.5t173.5 67.5q90 0 211 -90q88 -63 135 -63q72 0 84 61z" glyph-name="asciitilde" horiz-adv-x="983" unicode="~"/><glyph d="M313 1249q61 0 107.5 -45t46.5 -106q0 -63 -46 -108.5t-108 -45.5q-63 0 -109 45t-46 109q0 61 46 106t109 45zM430 866l35 -553v-549h-322v549l35 553h252z" glyph-name="exclamdown" horiz-adv-x="610" unicode="¡"/><glyph d="M82 725q0 178 105.5 317.5t267.5 188.5v223h227v-209q131 -23 231.5 -102.5t141.5 -198.5l-236 -86q-59 158 -223 158q-121 0 -185.5 -83t-64.5 -208t64.5 -208t185.5 -83q156 0 211 139l237 -94q-43 -109 -140 -179.5t-222 -88.5v-213h-227v227q-162 47 -267.5 185.5 t-105.5 314.5z" glyph-name="cent" horiz-adv-x="1136" unicode="¢"/><glyph d="M1169 479q18 -213 -104.5 -346t-337.5 -133h-717v266q104 0 170 117t21 252h-197v225h123q-14 57 -14 137q0 213 138 349.5t353 136.5q160 0 287 -93.5t176 -240.5q-35 -12 -128 -42l-124 -40q-27 70 -84 116t-127 46q-104 0 -165.5 -66.5t-61.5 -177.5q0 -57 20 -125 h498v-225h-426q0 -6 4 -19q20 -88 -10.5 -193.5t-112.5 -156.5l377 -2q199 0 176 201z" glyph-name="sterling" horiz-adv-x="1228" unicode="£"/><glyph d="M1206 727q0 -158 -84 -287l125 -131l-176 -172l-127 133q-123 -76 -272 -75q-156 0 -285 84l-133 -132l-172 177l133 131q-76 129 -76 272q0 158 84 287l-129 127l172 176l133 -131q123 76 273 76q160 0 291 -86l124 124l173 -172l-130 -129q76 -122 76 -272zM385 727 q0 -119 84 -203t203 -84t204 84t85 203q0 121 -85 205t-204 84t-203 -84t-84 -205z" glyph-name="currency" horiz-adv-x="1341" unicode="¤"/><glyph d="M1337 1454l-405 -684h184v-215h-291v-88h291v-215h-291v-252h-266v252h-293v215h293v88h-293v215h189l-404 684h320l321 -604l326 604h319z" glyph-name="yen" horiz-adv-x="1388" unicode="¥"/><glyph d="M123 1620h266v-678h-266v678zM123 555h266v-698h-266v698z" glyph-name="brokenbar" horiz-adv-x="512" unicode="¦"/><glyph d="M870 774q2 0 2 -4v-31q0 -129 -86 -215q86 -78 86 -229q0 -143 -105 -234.5t-267 -91.5q-160 0 -279 82t-139 211l252 41q8 -45 53 -74.5t113 -29.5q121 0 121 90q0 49 -82 67q-47 12 -91.5 24.5t-70 20t-27.5 7.5q-106 31 -167.5 111.5t-61.5 189.5q0 129 92 221 q-92 86 -92 223q0 139 105.5 234.5t258.5 95.5q150 0 258.5 -73t137.5 -196l-246 -55q-29 94 -150 94q-96 0 -112 -69q-18 -63 65 -88q53 -14 201 -54q217 -57 231 -268zM506 633q55 -2 92 19.5t37 62.5q0 43 -34 67.5t-95 24.5h-2q-72 0 -98.5 -29.5t-26.5 -62.5 q0 -66 78 -78q29 -4 49 -4z" glyph-name="section" horiz-adv-x="962" unicode="§"/><glyph d="M211 1593q-70 0 -120 49.5t-50 119t49 118.5t121 49q68 0 118 -49t50 -119q0 -68 -49 -118t-119 -50zM675.5 1593q-69.5 0 -119.5 49.5t-50 119t49 118.5t121 49q68 0 118 -49t50 -119q0 -68 -49.5 -118t-119 -50z" glyph-name="dieresis" horiz-adv-x="884" unicode="¨"/><glyph d="M843.5 -27q-315.5 0 -538.5 222.5t-223 539.5q0 315 223 537.5t538.5 222.5t538 -222t222.5 -537.5t-222.5 -539t-538 -223.5zM843.5 193q225.5 0 383 158.5t157.5 384t-156.5 383t-383.5 157.5q-225 0 -384 -157.5t-159 -383t158.5 -384t384 -158.5zM1157 881l-162 -58 q-37 109 -153 109q-82 0 -127 -58.5t-45 -142.5q0 -86 45 -143.5t127 -57.5q104 0 145 95l164 -66q-35 -86 -120 -136t-189 -50q-145 0 -250 104.5t-105 254t104.5 255t250.5 105.5q111 0 196.5 -57.5t118.5 -153.5z" glyph-name="copyright" horiz-adv-x="1685" unicode="©"/><glyph d="M707 983l-332 -491l332 -492h-283l-332 492l332 491h283zM1239 983l-332 -491l332 -492h-283l-331 492l331 491h283z" glyph-name="guillemotleft" horiz-adv-x="1290" unicode="«"/><glyph d="M1073 156h-246v327h-745v246h991v-573z" glyph-name="logicalnot" horiz-adv-x="1155" unicode="¬"/><glyph d="M356 1483q129 0 220.5 -91.5t91.5 -220.5q0 -131 -91.5 -223t-220.5 -92q-131 0 -223 92t-92 223q0 129 92 220.5t223 91.5zM356 932q100 0 170 69.5t70 170t-69.5 170t-170.5 69.5q-102 0 -171.5 -69.5t-69.5 -170.5q0 -102 68.5 -170.5t172.5 -68.5zM465 1217 q-4 -49 -43 -70l51 -119h-76l-47 107h-24v-107h-66v285h66h26q106 6 113 -76v-8v-12zM326 1249v-53h49q18 2 18 33q-2 20 -41 20h-26z" glyph-name="registered" horiz-adv-x="708" unicode="®"/><glyph d="M41 1866h676v-234h-676v234z" glyph-name="macron" horiz-adv-x="757" unicode="¯"/><glyph d="M290.5 983q-102.5 0 -176 73.5t-73.5 176t73.5 176.5t176 74t176.5 -74t74 -176.5t-74 -176t-176.5 -73.5zM291 1143q35 0 62.5 26.5t27.5 63.5q0 35 -27.5 62.5t-62.5 27.5q-37 0 -63.5 -27.5t-26.5 -62.5q0 -37 26.5 -63.5t63.5 -26.5z" glyph-name="degree" horiz-adv-x="581" unicode="°"/><glyph d="M678 799h307v-246h-307v-186h-246v186h-309v246h309v184h246v-184zM123 0v246h862v-246h-862z" glyph-name="plusminus" horiz-adv-x="1107" unicode="±"/><glyph d="M594 1219q4 -43 -5 -80t-20.5 -60.5t-44 -54.5t-53 -47t-72 -51t-77.5 -56l256 2v-170l-537 -2q-4 96 23.5 154.5t101.5 110.5q166 113 213 153q33 27 41 56q14 57 -19.5 91.5t-93.5 26.5q-82 -16 -69 -108h-172q-8 125 81 205.5t220 72.5q100 -6 160.5 -72.5 t66.5 -170.5z" glyph-name="uni00B2" horiz-adv-x="636" unicode="²"/><glyph d="M606 1118q47 -70 47 -160q0 -113 -76.5 -190.5t-189.5 -77.5q-119 0 -195.5 81t-68.5 200h168q-6 -49 20.5 -80t75.5 -31q41 0 68.5 27.5t27.5 70.5q0 53 -32 82q-55 45 -138 2l-57 134l8 8l92 98h-206v172h471v-143l-109 -113q57 -27 94 -80z" glyph-name="uni00B3" horiz-adv-x="776" unicode="³"/><glyph d="M268 1579h-268l193 381h282z" glyph-name="acute" horiz-adv-x="516" unicode="´"/><glyph d="M1231 244l94 -2v-242l-240 2q-135 0 -188 115q-86 -133 -262 -142h-12h-13q-145 8 -231 101v-572h-266v1475h266v-444q0 -168 72.5 -246t171 -78t171 78t72.5 246v448h269l2 -666q0 -35 14 -52t29.5 -19t50.5 -2z" glyph-name="uni00B5" horiz-adv-x="1425" unicode="µ"/><glyph d="M82 1044.5q0 149.5 91 264t233 149.5h266v-1454h-266v625q-141 35 -232.5 150.5t-91.5 265zM807 1454h94v-1454h-94v1454z" glyph-name="paragraph" horiz-adv-x="983" unicode="¶"/><glyph d="M319 332q-84 0 -145 60.5t-61 142.5q0 84 61.5 144t144.5 60q82 0 143.5 -60.5t61.5 -143.5q0 -82 -61.5 -142.5t-143.5 -60.5z" glyph-name="periodcentered" horiz-adv-x="636" unicode="·"/><glyph d="M489 -346v123h189q37 0 37 35q0 31 -37 30h-189v127l93 131l125 -2v-63l-56 -70h60q66 0 103.5 -49t35.5 -111q-4 -61 -43 -106t-92 -45h-226z" glyph-name="cedilla" horiz-adv-x="1228" unicode="¸"/><glyph d="M270 1454h174v-756h-174v512h-10h-137v172h100q45 0 47 41v31z" glyph-name="uni00B9" horiz-adv-x="567" unicode="¹"/><glyph d="M334 983l332 -491l-332 -492h-283l332 492l-332 491h283zM866 983l332 -491l-332 -492h-282l331 492l-331 491h282z" glyph-name="guillemotright" horiz-adv-x="1290" unicode="»"/><glyph d="M205 1210h-10h-138v172h101q45 0 47 41v31h174v-752h-174v508zM1284 1454h266l-1108 -1454h-266zM1907 289v-176h-95v-133h-174v133l-352 2v176l352 463h174v-465h95zM1499 291l139 -2v186z" glyph-name="onequarter" horiz-adv-x="2011" unicode="¼"/><glyph d="M205 1210h-10h-138v172h101q45 0 47 41v31h174v-752h-174v508zM1284 1454h266l-1108 -1454h-266zM1843 518q4 -43 -5 -80t-21.5 -61.5t-44 -55t-54 -47t-73 -51.5t-76.5 -55l256 2v-170l-537 -2q-4 96 23.5 154.5t101.5 109.5q39 27 90 65t85 62.5t38 26.5q33 27 41 55 q14 57 -19.5 92t-93.5 27q-82 -16 -69 -109h-172q-8 125 81 206t220 73q100 -6 160.5 -72.5t66.5 -169.5h2z" glyph-name="onehalf" horiz-adv-x="1949" unicode="½"/><glyph d="M635 958q0 -113 -77 -190.5t-189 -77.5q-119 0 -196 81t-69 200h168q-6 -49 20.5 -80t76.5 -31q41 0 68.5 27.5t27.5 70.5q0 53 -33 82q-55 45 -137 2l-57 134l8 8l92 98h-207v172h471v-143l-108 -113q57 -27 94 -80q47 -70 47 -160zM1479 1454h266l-1108 -1454h-266z M2101 289v-176h-94v-133h-174v133l-352 2v176l352 463h174v-465h94zM1694 291l139 -2v186z" glyph-name="threequarters" horiz-adv-x="2205" unicode="¾"/><glyph d="M694 969q-61 0 -108 46t-47 109q0 61 47 107.5t108 46.5q66 0 112 -46t46 -108q0 -63 -46 -109t-112 -46zM883 264h272q0 -209 -143.5 -352t-352 -143t-352 143t-143.5 352q0 117 42 203t152 172q12 10 76 52t98.5 80t38.5 81v45h271v-59q0 -70 -38 -137.5t-74 -103.5 t-98.5 -86t-68.5 -54q-127 -104 -127 -193q0 -109 63.5 -167t159.5 -58q88 0 156 67.5t68 157.5z" glyph-name="questiondown" horiz-adv-x="1318" unicode="¿"/><glyph d="M885 1579h-269l-206 381h282zM1149 0l-129 344h-549l-131 -344h-320l580 1454h291l579 -1454h-321zM561 586h367l-183 483z" glyph-name="Agrave" horiz-adv-x="1490" unicode="À"/><glyph d="M1094 1960l-207 -381h-269l193 381h283zM1149 0l-129 344h-549l-131 -344h-320l580 1454h291l579 -1454h-321zM561 586h367l-183 483z" glyph-name="Aacute" horiz-adv-x="1490" unicode="Á"/><glyph d="M752 1794l-117 -215h-227l192 381h242h61l193 -381h-228zM1149 0l-129 344h-549l-131 -344h-320l580 1454h291l579 -1454h-321zM561 586h367l-183 483z" glyph-name="Acircumflex" horiz-adv-x="1490" unicode="Â"/><glyph d="M539 1716h-195q-14 121 58.5 211t185.5 90q156 0 243 -149q57 -82 103 -82q35 0 46 34.5t-9 86.5h207q16 -127 -56.5 -223.5t-187.5 -96.5q-162 0 -254 160q-27 45 -45.5 58.5t-47 13.5t-42.5 -31t-6 -72zM1149 0l-129 344h-549l-131 -344h-320l580 1454h291l579 -1454 h-321zM561 586h367l-183 483z" glyph-name="Atilde" horiz-adv-x="1490" unicode="Ã"/><glyph d="M520.5 1593q-69.5 0 -120 49.5t-50.5 119t49.5 118.5t120.5 49q68 0 118 -49t50 -119q0 -68 -49 -118t-118.5 -50zM985 1593q-70 0 -120 49.5t-50 119t49 118.5t121 49q68 0 118 -49t50 -119q0 -68 -49 -118t-119 -50zM1149 0l-129 344h-549l-131 -344h-320l580 1454h291 l579 -1454h-321zM561 586h367l-183 483z" glyph-name="Adieresis" horiz-adv-x="1490" unicode="Ä"/><glyph d="M752 1542q-119 0 -201 83t-82 202q0 117 84 202t199 85q117 0 199.5 -85t82.5 -202t-82.5 -201t-199.5 -84zM751.5 1944q-49.5 0 -82 -33t-32.5 -80q0 -51 32.5 -85t82 -34t82 34t32.5 85q0 47 -32.5 80t-82 33zM1149 0l-129 344h-549l-131 -344h-320l580 1454h291 l579 -1454h-321zM561 586h367l-183 483z" glyph-name="Aring" horiz-adv-x="1490" unicode="Å"/><glyph d="M1249 608v-340l652 -2l-3 -266l-649 2v-2h-266v344h-491l-132 -344h-319l580 1454h290h72h266l652 -2l-3 -266l-649 2v-322l584 -2l-2 -258zM582 586h401v602h-172z" glyph-name="AE" horiz-adv-x="2002" unicode="Æ"/><glyph d="M1475 371q-74 -164 -225.5 -266.5t-344.5 -124.5l-49 -62h59q66 0 104 -49t36 -111q-4 -61 -43 -106t-92 -45h-226v123h189q37 0 37 34q0 31 -37 31h-189v127l41 58q-276 31 -464.5 243.5t-188.5 503.5q0 313 215 534.5t516 221.5q125 0 232.5 -36t173 -84t119 -115.5 t75 -107.5t37.5 -81l-272 -101q-39 104 -137.5 173t-227.5 69q-188 0 -311 -134t-123 -339q0 -203 123 -333t311 -130q131 0 236.5 65.5t154.5 168.5z" glyph-name="Ccedilla" horiz-adv-x="1546" unicode="Ç"/><glyph d="M750 1577h-269l-207 381h283zM432 608v-342l651 -2l-2 -264h-897h-18v1454h266h651l-2 -266h-649v-322l584 -2l-2 -258z" glyph-name="Egrave" horiz-adv-x="1200" unicode="È"/><glyph d="M958 1958l-206 -381h-269l193 381h282zM432 608v-342l651 -2l-2 -264h-897h-18v1454h266h651l-2 -266h-649v-322l584 -2l-2 -258z" glyph-name="Eacute" horiz-adv-x="1200" unicode="É"/><glyph d="M616 1792l-116 -215h-228l193 381h242h61l193 -381h-228zM432 608v-342l651 -2l-2 -264h-897h-18v1454h266h651l-2 -266h-649v-322l584 -2l-2 -258z" glyph-name="Ecircumflex" horiz-adv-x="1200" unicode="Ê"/><glyph d="M385 1591q-70 0 -120 49.5t-50 119t49 118.5t121 49q68 0 118 -49t50 -119q0 -68 -49 -118t-119 -50zM850 1591q-70 0 -120 49.5t-50 119t49 118.5t121 49q68 0 118 -49t50 -119q0 -68 -49 -118t-119 -50zM432 608v-342l651 -2l-2 -264h-897h-18v1454h266h651l-2 -266 h-649v-322l584 -2l-2 -258z" glyph-name="Edieresis" horiz-adv-x="1200" unicode="Ë"/><glyph d="M164 1579l-207 381h283l192 -381h-268zM432 0h-266v1454h266v-1454z" glyph-name="Igrave" horiz-adv-x="598" unicode="Ì"/><glyph d="M434 1579h-268l192 381h283zM432 0h-266v1454h266v-1454z" glyph-name="Iacute" horiz-adv-x="598" unicode="Í"/><glyph d="M299 1794l-117 -215h-227l192 381h242h62l192 -381h-227zM166 0v1454h266v-1454h-266z" glyph-name="Icircumflex" horiz-adv-x="598" unicode="Î"/><glyph d="M67.5 1593q-69.5 0 -119.5 49.5t-50 119t49 118.5t121 49q68 0 118 -49t50 -119q0 -68 -49.5 -118t-119 -50zM532.5 1593q-69.5 0 -120 49.5t-50.5 119t49.5 118.5t120.5 49q68 0 118 -49t50 -119q0 -68 -49 -118t-118.5 -50zM432 0h-266v1454h266v-1454z" glyph-name="Idieresis" horiz-adv-x="598" unicode="Ï"/><glyph d="M764 1456q328 0 541 -204.5t213 -524.5q0 -322 -211 -524.5t-543 -202.5h-334h-174v594h-174v268h174v594h268h240zM764 240q215 0 337 131t122 356q0 223 -123 355t-336 132h-240v-352h201v-268h-201v-354h240z" glyph-name="Eth" horiz-adv-x="1599" unicode="Ð"/><glyph d="M567 1716h-194q-14 121 58.5 211t184.5 90q156 0 244 -149q57 -82 103 -82q35 0 46 34.5t-10 86.5h207q16 -127 -56.5 -223.5t-186.5 -96.5q-162 0 -254 160q-27 45 -45.5 58.5t-47 13.5t-43 -31t-6.5 -72zM1110 1454h266v-1454h-266l-680 1001v-1001h-266v1454h266 l680 -1001v1001z" glyph-name="Ntilde" horiz-adv-x="1540" unicode="Ñ"/><glyph d="M666 1579l-207 381h282l193 -381h-268zM1526 723q0 -328 -206 -538t-517 -210q-305 0 -513 214t-208 534q0 324 206 542t513 218q311 0 518 -217t207 -543zM1227 723q0 215 -116 345t-310 130q-188 0 -304 -131t-116 -344q0 -209 116.5 -336t305.5 -127q197 0 310.5 123 t113.5 340z" glyph-name="Ograve" horiz-adv-x="1607" unicode="Ò"/><glyph d="M936 1579h-268l192 381h283zM1526 723q0 -328 -206 -538t-517 -210q-305 0 -513 214t-208 534q0 324 206 542t513 218q311 0 518 -217t207 -543zM1227 723q0 215 -116 345t-310 130q-188 0 -304 -131t-116 -344q0 -209 116.5 -336t305.5 -127q197 0 310.5 123t113.5 340z " glyph-name="Oacute" horiz-adv-x="1607" unicode="Ó"/><glyph d="M801 1794l-117 -215h-227l192 381h242h61l193 -381h-227zM801 1483q311 0 518 -217t207 -543q0 -328 -206 -538t-517 -210q-305 0 -513 214t-208 534q0 324 206 542t513 218zM803 260q197 0 310.5 123t113.5 340q0 215 -116 345t-310 130q-188 0 -304 -131t-116 -344 q0 -209 117 -336t305 -127z" glyph-name="Ocircumflex" horiz-adv-x="1607" unicode="Ô"/><glyph d="M393 1716q-14 121 58.5 211t185.5 90q156 0 244 -149q57 -82 102 -82q35 0 46 34.5t-9 86.5h207q16 -127 -56.5 -223.5t-187.5 -96.5q-162 0 -254 160q-27 45 -45 58.5t-47 13.5t-43 -31t-6 -72h-195zM1526 723q0 -328 -206 -538t-517 -210q-305 0 -513 214t-208 534 q0 324 206 542t513 218q311 0 518 -217t207 -543zM1227 723q0 215 -116 345t-310 130q-188 0 -304 -131t-116 -344q0 -209 116.5 -336t305.5 -127q197 0 310.5 123t113.5 340z" glyph-name="Otilde" horiz-adv-x="1607" unicode="Õ"/><glyph d="M569.5 1593q-69.5 0 -120 49.5t-50.5 119t49.5 118.5t120.5 49q68 0 118 -49t50 -119q0 -68 -49 -118t-118.5 -50zM1034.5 1593q-69.5 0 -120 49.5t-50.5 119t49.5 118.5t120.5 49q68 0 118 -49t50 -119q0 -68 -49 -118t-118.5 -50zM1526 723q0 -328 -206 -538t-517 -210 q-305 0 -513 214t-208 534q0 324 206 542t513 218q311 0 518 -217t207 -543zM1227 723q0 215 -116 345t-310 130q-188 0 -304 -131t-116 -344q0 -209 116.5 -336t305.5 -127q197 0 310.5 123t113.5 340z" glyph-name="Odieresis" horiz-adv-x="1607" unicode="Ö"/><glyph d="M1513 1286l-544 -557l544 -557l-176 -172l-538 553l-541 -553l-176 172l545 557l-545 557l176 172l541 -553l538 553z" glyph-name="multiply" horiz-adv-x="1595" unicode="×"/><glyph d="M1307 1278q219 -219 219 -555q0 -328 -206 -545t-517 -217q-141 0 -271 53l-12 -20h-323l108 174q-223 219 -223 555q0 324 206 542t513 218q154 0 286 -58l17 25h309zM381 723q0 -174 84 -299l471 756q-66 18 -135 18q-188 0 -304 -131t-116 -344zM803 246 q197 0 310.5 130t113.5 347q0 176 -78 295l-465 -756q60 -16 119 -16z" glyph-name="Oslash" horiz-adv-x="1607" unicode="Ø"/><glyph d="M868 1579h-268l-207 381h283zM1049 1454h268v-926q0 -250 -173 -405.5t-410.5 -155.5t-409.5 156t-172 405v926h268v-926q0 -131 98 -211.5t215 -80.5q119 0 217.5 80.5t98.5 211.5v926z" glyph-name="Ugrave" horiz-adv-x="1468" unicode="Ù"/><glyph d="M1077 1960l-207 -381h-268l193 381h282zM1049 1454h268v-926q0 -250 -173 -405.5t-410.5 -155.5t-409.5 156t-172 405v926h268v-926q0 -131 98 -211.5t215 -80.5q119 0 217.5 80.5t98.5 211.5v926z" glyph-name="Uacute" horiz-adv-x="1468" unicode="Ú"/><glyph d="M735 1794l-117 -215h-227l193 381h241h62l192 -381h-227zM1049 1454h268v-926q0 -250 -173 -405.5t-410.5 -155.5t-409.5 156t-172 405v926h268v-926q0 -131 98 -211.5t215 -80.5q119 0 217.5 80.5t98.5 211.5v926z" glyph-name="Ucircumflex" horiz-adv-x="1468" unicode="Û"/><glyph d="M503.5 1593q-69.5 0 -119.5 49.5t-50 119t49 118.5t121 49q68 0 118 -49t50 -119q0 -68 -49.5 -118t-119 -50zM968.5 1593q-69.5 0 -119.5 49.5t-50 119t49 118.5t121 49q68 0 118 -49t50 -119q0 -68 -49.5 -118t-119 -50zM1049 1454h268v-926q0 -250 -173 -405.5 t-410.5 -155.5t-409.5 156t-172 405v926h268v-926q0 -131 98 -211.5t215 -80.5q119 0 217.5 80.5t98.5 211.5v926z" glyph-name="Udieresis" horiz-adv-x="1468" unicode="Ü"/><glyph d="M1006 1960l-207 -381h-269l193 381h283zM1307 1454l-512 -862v-592h-267v592l-508 862h320l322 -604l325 604h320z" glyph-name="Yacute" horiz-adv-x="1327" unicode="Ý"/><glyph d="M82 0v1454h268v-280l285 -3q121 0 219 -37.5t158.5 -100t94.5 -142.5t34 -164t-33 -164t-93.5 -142.5t-158.5 -100t-221 -37.5h-285v-283h-268zM350 539h268q109 0 169.5 59t60.5 130t-61.5 130.5t-168.5 59.5h-268v-379z" glyph-name="Thorn" horiz-adv-x="1222" unicode="Þ"/><glyph d="M809 836q197 -129 197 -353q0 -201 -125 -342t-342 -141h-99v258l99 2q94 2 158.5 62.5t64.5 161t-67.5 159.5t-174.5 59v216q84 0 124 59t32 127q-6 70 -54.5 108.5t-111.5 36.5q-66 0 -115 -44t-49 -122l-2 -1083h-262v1100q0 156 130 273.5t290 117.5 q172 0 289.5 -112.5t117.5 -278.5q0 -149 -100 -264z" glyph-name="germandbls" horiz-adv-x="1087" unicode="ß"/><glyph d="M682 1159h-268l-207 381h282zM549 1014q176 2 299 -100.5t123 -282.5v-643h-262v78q-104 -90 -238 -91q-172 0 -278.5 88.5t-106.5 229.5q-6 184 152 282q72 43 270 48h143q27 0 42.5 13t13.5 40q-20 98 -158 106q-166 6 -250 -129l-197 111q148 250 447 250zM467 199 q225 -10 242 172v55q-61 -2 -199 -2q-94 0 -141 -37t-43 -94q8 -90 141 -94z" glyph-name="agrave" horiz-adv-x="1087" unicode="à"/><glyph d="M891 1540l-207 -381h-268l192 381h283zM549 1014q176 2 299 -100.5t123 -282.5v-643h-262v78q-104 -90 -238 -91q-172 0 -278.5 88.5t-106.5 229.5q-6 184 152 282q72 43 270 48h143q27 0 42.5 13t13.5 40q-20 98 -158 106q-166 6 -250 -129l-197 111q148 250 447 250z M467 199q225 -10 242 172v55q-61 -2 -199 -2q-94 0 -141 -37t-43 -94q8 -90 141 -94z" glyph-name="aacute" horiz-adv-x="1087" unicode="á"/><glyph d="M549 1374l-117 -215h-227l192 381h242h61l193 -381h-227zM549 1014q176 2 299 -100.5t123 -282.5v-643h-262v78q-104 -90 -238 -91q-172 0 -278.5 88.5t-106.5 229.5q-6 184 152 282q72 43 270 48h143q27 0 42.5 13t13.5 40q-20 98 -158 106q-166 6 -250 -129l-197 111 q148 250 447 250zM467 199q225 -10 242 172v55q-61 -2 -199 -2q-94 0 -141 -37t-43 -94q8 -90 141 -94z" glyph-name="acircumflex" horiz-adv-x="1087" unicode="â"/><glyph d="M336 1296h-195q-14 121 58.5 211t185.5 90q156 0 244 -149q57 -82 102 -82q35 0 46 35t-9 86h207q16 -127 -56.5 -223.5t-187.5 -96.5q-162 0 -254 160q-27 45 -45 58.5t-47 13.5t-43 -31t-6 -72zM549 1014q176 2 299 -100.5t123 -282.5v-643h-262v78q-104 -90 -238 -91 q-172 0 -278.5 88.5t-106.5 229.5q-6 184 152 282q72 43 270 48h143q27 0 42.5 13t13.5 40q-20 98 -158 106q-166 6 -250 -129l-197 111q148 250 447 250zM467 199q225 -10 242 172v55q-61 -2 -199 -2q-94 0 -141 -37t-43 -94q8 -90 141 -94z" glyph-name="atilde" horiz-adv-x="1087" unicode="ã"/><glyph d="M317.5 1174q-69.5 0 -120 49t-50.5 118.5t49.5 118.5t120.5 49q68 0 118 -49t50 -119q0 -68 -49 -117.5t-118.5 -49.5zM782.5 1174q-69.5 0 -120 49t-50.5 118.5t49.5 118.5t120.5 49q68 0 118 -49t50 -119q0 -68 -49 -117.5t-118.5 -49.5zM549 1014q176 2 299 -100.5 t123 -282.5v-643h-262v78q-104 -90 -238 -91q-172 0 -278.5 88.5t-106.5 229.5q-6 184 152 282q72 43 270 48h143q27 0 42.5 13t13.5 40q-20 98 -158 106q-166 6 -250 -129l-197 111q148 250 447 250zM467 199q225 -10 242 172v55q-61 -2 -199 -2q-94 0 -141 -37t-43 -94 q8 -90 141 -94z" glyph-name="adieresis" horiz-adv-x="1087" unicode="ä"/><glyph d="M549 1122q-119 0 -201 83t-82 202q0 117 84 202t199 85q117 0 199.5 -85t82.5 -202t-82.5 -201t-199.5 -84zM549 1524q-49 0 -82 -33t-33 -80q0 -51 33 -85t82 -34t82 34t33 85q0 47 -33 80t-82 33zM549 1014q176 2 299 -100.5t123 -282.5v-643h-262v78 q-104 -90 -238 -91q-172 0 -278.5 88.5t-106.5 229.5q-6 184 152 282q72 43 270 48h143q27 0 42.5 13t13.5 40q-20 98 -158 106q-166 6 -250 -129l-197 111q148 250 447 250zM467 199q225 -10 242 172v55q-61 -2 -199 -2q-94 0 -141 -37t-43 -94q8 -90 141 -94z" glyph-name="aring" horiz-adv-x="1087" unicode="å"/><glyph d="M1223 223q76 0 133 33t82 88l231 -88q-51 -129 -172 -205t-274 -76q-131 0 -250 70v-47h-268v55q-100 -78 -238 -78q-162 0 -274.5 91.5t-110.5 228.5q4 166 151 258q90 55 342 59h64q66 0 66 45q-6 63 -61.5 95t-129.5 26q-147 -10 -219 -125l-197 111q150 256 447 256 q217 4 340 -141q147 137 338 137q156 0 278.5 -81t177.5 -220q27 -68 33 -123t6 -180h-737q23 -92 87.5 -140.5t154.5 -48.5zM1225 768q-76 0 -138.5 -44t-93.5 -118h467q-16 74 -81.5 118t-153.5 44zM463 201q98 -4 166.5 56t75.5 161q-74 -4 -234 -4q-72 0 -113 -30 t-36 -79q8 -100 141 -104z" glyph-name="ae" horiz-adv-x="1800" unicode="æ"/><glyph d="M584 205q90 0 141 41t70 92l227 -92q-45 -115 -146.5 -184.5t-234.5 -84.5l-33 -40h60q66 0 103.5 -49.5t35.5 -110.5q-4 -61 -43 -106.5t-92 -45.5h-226v123h189q37 0 37 35q0 31 -37 31h-189v127l33 45q-176 37 -292.5 176t-116.5 327q0 217 151.5 372t362.5 155 q160 0 285.5 -84t172.5 -223l-235 -86q-59 158 -223 157q-121 0 -185.5 -83t-64.5 -207.5t64.5 -204.5t185.5 -80z" glyph-name="ccedilla" horiz-adv-x="1097" unicode="ç"/><glyph d="M700 1161h-268l-207 381h283zM1063 489v-98h-727q29 -74 91 -119t140 -45q162 0 215 117l232 -88q-51 -129 -172 -205t-275 -76q-205 0 -351 153t-146 368t146 367.5t351 152.5q156 0 279 -81t178 -220q16 -45 26.5 -101.5t10.5 -89.5zM332 586h473q-4 31 -27.5 68.5 t-48.5 58.5q-68 55 -162 55q-80 0 -144 -50t-91 -132z" glyph-name="egrave" horiz-adv-x="1132" unicode="è"/><glyph d="M909 1542l-207 -381h-268l193 381h282zM1063 489v-98h-727q29 -74 91 -119t140 -45q162 0 215 117l232 -88q-51 -129 -172 -205t-275 -76q-205 0 -351 153t-146 368t146 367.5t351 152.5q156 0 279 -81t178 -220q16 -45 26.5 -101.5t10.5 -89.5zM332 586h473 q-4 31 -27.5 68.5t-48.5 58.5q-68 55 -162 55q-80 0 -144 -50t-91 -132z" glyph-name="eacute" horiz-adv-x="1132" unicode="é"/><glyph d="M567 1376l-116 -215h-228l193 381h241h62l192 -381h-227zM1063 489v-98h-727q29 -74 91 -119t140 -45q162 0 215 117l232 -88q-51 -129 -172 -205t-275 -76q-205 0 -351 153t-146 368t146 367.5t351 152.5q156 0 279 -81t178 -220q16 -45 26.5 -101.5t10.5 -89.5z M332 586h473q-4 31 -27.5 68.5t-48.5 58.5q-68 55 -162 55q-80 0 -144 -50t-91 -132z" glyph-name="ecircumflex" horiz-adv-x="1132" unicode="ê"/><glyph d="M333.5 1122q-69.5 0 -119.5 49.5t-50 119t49 118.5t121 49q68 0 118 -49t50 -119q0 -68 -49.5 -118t-119 -50zM798.5 1122q-69.5 0 -119.5 49.5t-50 119t49 118.5t121 49q68 0 118 -49t50 -119q0 -68 -49.5 -118t-119 -50zM1063 489v-98h-727q29 -74 91 -119t140 -45 q162 0 215 117l232 -88q-51 -129 -172 -205t-275 -76q-205 0 -351 153t-146 368t146 367.5t351 152.5q156 0 279 -81t178 -220q16 -45 26.5 -101.5t10.5 -89.5zM332 586h473q-4 31 -27.5 68.5t-48.5 58.5q-68 55 -162 55q-80 0 -144 -50t-91 -132z" glyph-name="edieresis" horiz-adv-x="1132" unicode="ë"/><glyph d="M158 1188l-207 381h282l193 -381h-268zM166 1001h266v-1001h-266v1001z" glyph-name="igrave" horiz-adv-x="514" unicode="ì"/><glyph d="M365 1167h-269l193 381h282zM82 1001h266v-1001h-266v1001z" glyph-name="iacute" horiz-adv-x="512" unicode="í"/><glyph d="M367 1376l-117 -215h-227l192 381h242h61l193 -381h-228zM238 0v1001h266v-1001h-266z" glyph-name="icircumflex" horiz-adv-x="739" unicode="î"/><glyph d="M129 1135q-70 0 -120 49t-50 118.5t49 118.5t121 49q68 0 118 -49t50 -118q0 -68 -49 -118t-119 -50zM594 1135q-70 0 -120 49t-50 118.5t49 118.5t121 49q68 0 118 -49t50 -118q0 -68 -49 -118t-119 -50zM238 983h266v-983h-266v983z" glyph-name="idieresis" horiz-adv-x="739" unicode="ï"/><glyph d="M944 1380q328 -375 305 -913q-2 -217 -148.5 -383t-365.5 -193q-258 -33 -456.5 143.5t-196.5 442.5q-4 242 137 411t375 197q143 18 283 -36q-59 100 -123 174l-138 -113l-127 147l125 103q-68 59 -145 106l133 179q106 -53 201 -129l139 114l121 -149zM709 131 q123 14 207.5 96t93.5 217q4 190 -103.5 302t-285.5 98q-127 -10 -211 -106.5t-88 -233.5h2q-4 -39 2 -72q0 -8 4 -29q27 -133 134.5 -210.5t244.5 -61.5z" glyph-name="eth" horiz-adv-x="1333" unicode="ð"/><glyph d="M434 1298h-194q-14 121 58.5 211t184.5 90q156 0 244 -149q57 -82 102 -82q35 0 46.5 35t-9.5 86h207q16 -127 -56.5 -223.5t-187.5 -96.5q-162 0 -254 160q-27 45 -45 58.5t-46.5 13.5t-43 -31t-6.5 -72zM698 1016q90 0 164 -23.5t141.5 -78t105.5 -156t38 -244.5v-514 h-260v500q0 131 -56.5 201.5t-148.5 78.5q-102 12 -185 -52t-94 -202l3 -526h-261l2 983h256v-115q115 152 295 148z" glyph-name="ntilde" horiz-adv-x="1277" unicode="ñ"/><glyph d="M449 1159l-207 381h282l193 -381h-268zM1073 487q0 -215 -145.5 -363.5t-354.5 -148.5q-205 0 -354 152t-149 360q0 217 147.5 372t355.5 155q207 0 353.5 -155t146.5 -372zM809 485q0 117 -64.5 196t-171.5 79q-111 0 -175 -80t-64 -195q0 -106 66.5 -184t172.5 -78 q109 0 172.5 73.5t63.5 188.5z" glyph-name="ograve" horiz-adv-x="1142" unicode="ò"/><glyph d="M719 1159h-268l192 381h283zM1073 487q0 -215 -145.5 -363.5t-354.5 -148.5q-205 0 -354 152t-149 360q0 217 147.5 372t355.5 155q207 0 353.5 -155t146.5 -372zM809 485q0 117 -64.5 196t-171.5 79q-111 0 -175 -80t-64 -195q0 -106 66.5 -184t172.5 -78 q109 0 172.5 73.5t63.5 188.5z" glyph-name="oacute" horiz-adv-x="1142" unicode="ó"/><glyph d="M584 1374l-117 -215h-227l192 381h242h61l193 -381h-228zM573 1014q207 0 353.5 -154.5t146.5 -372.5q0 -215 -145.5 -363.5t-354.5 -148.5q-205 0 -354 152t-149 360q0 217 147 372t356 155zM573 223q109 0 172.5 74t63.5 188q0 117 -64.5 196t-171.5 79 q-111 0 -175 -80t-64 -195q0 -106 66.5 -184t172.5 -78z" glyph-name="ocircumflex" horiz-adv-x="1142" unicode="ô"/><glyph d="M176 1296q-14 121 58.5 211t185.5 90q156 0 244 -149q57 -82 102 -82q35 0 46 35t-9 86h207q16 -127 -56.5 -223.5t-187.5 -96.5q-162 0 -254 160q-27 45 -45 58.5t-47 13.5t-43.5 -31t-5.5 -72h-195zM1073 487q0 -215 -145.5 -363.5t-354.5 -148.5q-205 0 -354 152 t-149 360q0 217 147.5 372t355.5 155q207 0 353.5 -155t146.5 -372zM809 485q0 117 -64.5 196t-171.5 79q-111 0 -175 -80t-64 -195q0 -106 66.5 -184t172.5 -78q109 0 172.5 73.5t63.5 188.5z" glyph-name="otilde" horiz-adv-x="1142" unicode="õ"/><glyph d="M352.5 1174q-69.5 0 -120 49t-50.5 118.5t49.5 118.5t120.5 49q68 0 118 -49t50 -119q0 -68 -49 -117.5t-118.5 -49.5zM817.5 1174q-69.5 0 -120 49t-50.5 118.5t49 118.5t121 49q68 0 118 -49t50 -119q0 -68 -49 -117.5t-118.5 -49.5zM1073 487q0 -215 -145.5 -363.5 t-354.5 -148.5q-205 0 -354 152t-149 360q0 217 147.5 372t355.5 155q207 0 353.5 -155t146.5 -372zM809 485q0 117 -64.5 196t-171.5 79q-111 0 -175 -80t-64 -195q0 -106 66.5 -184t172.5 -78q109 0 172.5 73.5t63.5 188.5z" glyph-name="odieresis" horiz-adv-x="1142" unicode="ö"/><glyph d="M489 709q-63 0 -109 45t-46 106q0 63 46 108.5t109 45.5q61 0 107.5 -45t46.5 -109q0 -61 -46.5 -106t-107.5 -45zM102 604h772v-207h-772v207zM489 -27q-63 0 -109 45t-46 107q0 63 46 108.5t109 45.5q61 0 107.5 -45.5t46.5 -108.5q0 -61 -46.5 -106.5t-107.5 -45.5z " glyph-name="divide" horiz-adv-x="976" unicode="÷"/><glyph d="M918 870q158 -158 157 -383q0 -215 -145.5 -366.5t-354.5 -151.5q-98 0 -188 39l-8 -12h-219l71 117q-160 154 -159 374q0 217 147.5 372t355.5 155q104 0 193 -41l6 8h211zM336 485q0 -80 37 -147l260 416q-29 6 -58 6q-111 0 -175 -80t-64 -195zM575 217 q109 0 172.5 77t63.5 191q0 88 -37 154l-254 -416q24 -6 55 -6z" glyph-name="oslash" horiz-adv-x="1146" unicode="ø"/><glyph d="M764 1149h-268l-207 381h282zM862 983h262v-983h-262v113q-96 -137 -276 -138q-213 0 -332 111t-119 391v506h262v-489q0 -135 61.5 -209t160 -74t171 78t72.5 246v448z" glyph-name="ugrave" horiz-adv-x="1259" unicode="ù"/><glyph d="M973 1530l-207 -381h-268l192 381h283zM862 983h262v-983h-262v113q-96 -137 -276 -138q-213 0 -332 111t-119 391v506h262v-489q0 -135 61.5 -209t160 -74t171 78t72.5 246v448z" glyph-name="uacute" horiz-adv-x="1259" unicode="ú"/><glyph d="M631 1364l-117 -215h-227l192 381h242h61l193 -381h-227zM862 983h262v-983h-262v113q-96 -137 -276 -138q-213 0 -332 111t-119 391v506h262v-489q0 -135 61.5 -209t160 -74t171 78t72.5 246v448z" glyph-name="ucircumflex" horiz-adv-x="1259" unicode="û"/><glyph d="M399.5 1163q-69.5 0 -120 49.5t-50.5 119t49.5 118.5t120.5 49q68 0 118 -49t50 -119q0 -68 -49 -118t-118.5 -50zM864.5 1163q-69.5 0 -120 49.5t-50.5 119t49.5 118.5t120.5 49q68 0 118 -49t50 -119q0 -68 -49 -118t-118.5 -50zM862 983h262v-983h-262v113 q-96 -137 -276 -138q-213 0 -332 111t-119 391v506h262v-489q0 -135 61.5 -209t160 -74t171 78t72.5 246v448z" glyph-name="udieresis" horiz-adv-x="1259" unicode="ü"/><glyph d="M913 1489l-206 -381h-269l193 381h282zM848 983h278l-579 -1442h-279l189 469l-443 973h281l289 -655z" glyph-name="yacute" horiz-adv-x="1146" unicode="ý"/><glyph d="M1210 489v-8q-4 -244 -139 -395.5t-364 -151.5q-166 0 -281 121v-587h-281v1986h281v-532q115 121 281 120q229 0 364 -151.5t139 -394.5v-7zM694 174q111 0 184.5 86t75.5 227q-2 143 -75.5 228.5t-184.5 85.5q-104 0 -180 -74t-88 -199v-79q12 -125 88 -200t180 -75z " glyph-name="thorn" horiz-adv-x="1277" unicode="þ"/><glyph d="M340 1122q-70 0 -120 49.5t-50 119t49 118.5t121 49q68 0 118 -49t50 -119q0 -68 -49 -118t-119 -50zM804.5 1122q-69.5 0 -119.5 49.5t-50 119t49 118.5t121 49q68 0 118 -49t50 -119q0 -68 -49.5 -118t-119 -50zM848 983h278l-579 -1442h-279l189 469l-443 973h281 l289 -655z" glyph-name="ydieresis" horiz-adv-x="1146" unicode="ÿ"/><glyph d="M1090 1872v-234h-676v234h676zM1149 0l-129 344h-549l-131 -344h-320l580 1454h291l579 -1454h-321zM561 586h367l-183 483z" glyph-name="Amacron" horiz-adv-x="1490" unicode="Ā"/><glyph d="M887 1452v-233h-676v233h676zM549 1014q176 2 299 -100.5t123 -282.5v-643h-262v78q-104 -90 -238 -91q-172 0 -278.5 88.5t-106.5 229.5q-6 184 152 282q72 43 270 48h143q27 0 42.5 13t13.5 40q-20 98 -158 106q-166 6 -250 -129l-197 111q148 250 447 250zM467 199 q225 -10 242 172v55q-61 -2 -199 -2q-94 0 -141 -37t-43 -94q8 -90 141 -94z" glyph-name="amacron" horiz-adv-x="1087" unicode="ā"/><glyph d="M752 1579q-158 0 -274 112.5t-126 272.5h228q6 -80 55 -122t117 -42q66 0 114.5 43t55.5 121h225q-10 -158 -125.5 -271.5t-269.5 -113.5zM1149 0l-129 344h-549l-131 -344h-320l580 1454h291l579 -1454h-321zM561 586h367l-183 483z" glyph-name="Abreve" horiz-adv-x="1490" unicode="Ă"/><glyph d="M549 1159q-158 0 -273.5 112.5t-125.5 272.5h227q6 -80 55 -122t117 -42q66 0 115 43t55 121h225q-10 -158 -125.5 -271.5t-269.5 -113.5zM549 1014q176 2 299 -100.5t123 -282.5v-643h-262v78q-104 -90 -238 -91q-172 0 -278.5 88.5t-106.5 229.5q-6 184 152 282 q72 43 270 48h143q27 0 42.5 13t13.5 40q-20 98 -158 106q-166 6 -250 -129l-197 111q148 250 447 250zM467 199q225 -10 242 172v55q-61 -2 -199 -2q-94 0 -141 -37t-43 -94q8 -90 141 -94z" glyph-name="abreve" horiz-adv-x="1087" unicode="ă"/><glyph d="M1401 0q-133 0 -164 -90q-20 -59 18 -94q16 -14 39 -13v-170q-109 -23 -179.5 39t-63 160t97.5 168l-129 344h-549l-131 -344h-320l580 1454h291l579 -1454h-69zM561 586h367l-183 483z" glyph-name="Aogonek" horiz-adv-x="1490" unicode="Ą"/><glyph d="M881 -12q-84 -31 -88 -107q-2 -59 41 -76q10 -4 22 -2v-170q-109 -23 -179.5 39t-64.5 159t97 167v68q-104 -90 -238 -91q-172 0 -278.5 88.5t-106.5 229.5q-6 184 152 282q72 43 270 48h143q27 0 42.5 13t13.5 40q-20 98 -158 106q-166 6 -250 -129l-197 111 q147 250 447 250q176 2 299 -100.5t123 -282.5v-643h-90zM467 199q225 -10 242 172v55q-61 -2 -199 -2q-94 0 -141 -37t-43 -94q8 -90 141 -94z" glyph-name="aogonek" horiz-adv-x="1087" unicode="ą"/><glyph d="M948 1579h-268l192 381h283zM1450 1059l-272 -101q-39 104 -137.5 173t-227.5 69q-188 0 -311 -134t-123 -339q0 -203 123 -333t311 -130q131 0 236.5 65.5t154.5 168.5l271 -127q-82 -184 -260.5 -290t-401.5 -106q-301 0 -516 219.5t-215 532.5t215 534.5t516 221.5 q125 0 232.5 -36t173 -84t119 -115.5t75 -107.5t37.5 -81z" glyph-name="Cacute" horiz-adv-x="1546" unicode="Ć"/><glyph d="M719 1161h-268l192 381h283zM1042 709l-235 -86q-59 158 -223 157q-121 0 -185.5 -83t-64.5 -207.5t64.5 -204.5t185.5 -80q90 0 141 41t70 92l227 -92q-51 -127 -168 -199t-270 -72q-213 0 -363.5 148.5t-150.5 366t151.5 372t362.5 154.5q160 0 285.5 -84t172.5 -223z " glyph-name="cacute" horiz-adv-x="1097" unicode="ć"/><glyph d="M798.5 1593q-69.5 0 -117.5 49.5t-48 119t49 118.5t117 49q70 0 119 -50t49 -118q0 -70 -49.5 -119t-119 -49zM1450 1059l-272 -101q-39 104 -137.5 173t-227.5 69q-188 0 -311 -134t-123 -339q0 -203 123 -333t311 -130q131 0 236.5 65.5t154.5 168.5l271 -127 q-82 -184 -260.5 -290t-401.5 -106q-301 0 -516 219.5t-215 532.5t215 534.5t516 221.5q125 0 232.5 -36t173 -84t119 -115.5t75 -107.5t37.5 -81z" glyph-name="Cdotaccent" horiz-adv-x="1546" unicode="Ċ"/><glyph d="M569.5 1176q-69.5 0 -118 49t-48.5 118.5t49.5 118.5t116.5 49q70 0 119 -50t49 -118q0 -70 -49 -118.5t-118.5 -48.5zM1042 709l-235 -86q-59 158 -223 157q-121 0 -185.5 -83t-64.5 -207.5t64.5 -204.5t185.5 -80q90 0 141 41t70 92l227 -92q-51 -127 -168 -199 t-270 -72q-213 0 -363.5 148.5t-150.5 366t151.5 372t362.5 154.5q160 0 285.5 -84t172.5 -223z" glyph-name="cdotaccent" horiz-adv-x="1097" unicode="ċ"/><glyph d="M662 1579l-193 381h227l117 -215l117 215h227l-192 -381h-303zM1204 498l271 -127q-82 -184 -260.5 -290t-401.5 -106q-301 0 -516 219.5t-215 532.5t215 534.5t516 221.5q125 0 232.5 -36t173 -84t119 -115.5t75 -107.5t37.5 -81l-272 -101q-39 104 -137.5 173 t-227.5 69q-188 0 -311 -134t-123 -339q0 -203 123 -333t311 -130q131 0 236.5 66t154.5 168z" glyph-name="Ccaron" horiz-adv-x="1546" unicode="Č"/><glyph d="M432 1161l-192 381h227l117 -215l116 215h228l-193 -381h-303zM584 205q90 0 141 41t70 92l227 -92q-51 -127 -168 -199t-270 -72q-213 0 -363.5 148.5t-150.5 366t151.5 372t362.5 154.5q160 0 285.5 -84t172.5 -223l-235 -86q-59 158 -223 157q-121 0 -185.5 -83 t-64.5 -207.5t64.5 -204.5t185.5 -80z" glyph-name="ccaron" horiz-adv-x="1097" unicode="č"/><glyph d="M520 1581l-192 381h227l117 -215l116 215h228l-193 -381h-303zM690 1456q328 0 541 -204.5t213 -524.5q0 -322 -211 -524.5t-543 -202.5h-350h-174v1456h268h256zM690 240q215 0 337 131t122 356q0 223 -123 355t-336 132h-256v-974h256z" glyph-name="Dcaron" horiz-adv-x="1523" unicode="Ď"/><glyph d="M881 897v557h270v-1454h-270v111q-129 -139 -330 -136q-195 2 -335 143.5t-132 391.5q10 236 145.5 366t321.5 142q193 12 330 -121zM1274 1454h233v-676h-233v676zM604 195q106 0 185 75.5t81 212.5q6 143 -74.5 225.5t-191.5 79.5q-104 -2 -182 -78.5t-82 -215.5 q0 -141 77.5 -220t186.5 -79z" glyph-name="dcaron" horiz-adv-x="1589" unicode="ď"/><glyph d="M764 1456q328 0 541 -204.5t213 -524.5q0 -322 -211 -524.5t-543 -202.5h-334h-174v594h-174v268h174v594h268h240zM764 240q215 0 337 131t122 356q0 223 -123 355t-336 132h-240v-352h201v-268h-201v-354h240z" glyph-name="Dcroat" horiz-adv-x="1599" unicode="Đ"/><glyph d="M1298 1362v-225h-161v-1137h-271v104q-131 -143 -329 -139q-123 2 -228.5 61.5t-174 186.5t-64.5 297q10 236 145 366t322 142q193 12 329 -121v240h-340v225h340v92h271v-92h161zM590 195q106 0 185 75.5t81 212.5q6 143 -75 225.5t-191 79.5q-104 -2 -182 -78.5 t-82 -215.5q0 -141 77.5 -220t186.5 -79z" glyph-name="dcroat" horiz-adv-x="1277" unicode="đ"/><glyph d="M954 1870v-234h-675v234h675zM432 608v-342l651 -2l-2 -264h-897h-18v1454h266h651l-2 -266h-649v-322l584 -2l-2 -258z" glyph-name="Emacron" horiz-adv-x="1200" unicode="Ē"/><glyph d="M905 1454v-233h-676v233h676zM1063 489v-98h-727q29 -74 91 -119t140 -45q162 0 215 117l232 -88q-51 -129 -172 -205t-275 -76q-205 0 -351 153t-146 368t146 367.5t351 152.5q156 0 279 -81t178 -220q16 -45 26.5 -101.5t10.5 -89.5zM332 586h473q-4 31 -27.5 68.5 t-48.5 58.5q-68 55 -162 55q-80 0 -144 -50t-91 -132z" glyph-name="emacron" horiz-adv-x="1132" unicode="ē"/><glyph d="M602 1591q-70 0 -118 49.5t-48 119t49.5 118.5t116.5 49q70 0 119 -50t49 -118q0 -70 -49 -119t-119 -49zM432 608v-342l651 -2l-2 -264h-897h-18v1454h266h651l-2 -266h-649v-322l584 -2l-2 -258z" glyph-name="Edotaccent" horiz-adv-x="1200" unicode="Ė"/><glyph d="M553 1176q-70 0 -118 49t-48 118.5t49 118.5t117 49q70 0 119 -50t49 -118q0 -70 -49 -118.5t-119 -48.5zM1063 489v-98h-727q29 -74 91 -119t140 -45q162 0 215 117l232 -88q-51 -129 -172 -205t-275 -76q-205 0 -351 153t-146 368t146 367.5t351 152.5q156 0 279 -81 t178 -220q16 -45 26.5 -101.5t10.5 -89.5zM332 586h473q-4 31 -27.5 68.5t-48.5 58.5q-68 55 -162 55q-80 0 -144 -50t-91 -132z" glyph-name="edotaccent" horiz-adv-x="1132" unicode="ė"/><glyph d="M432 608v-342l651 -2l-2 -264h-358q-102 -18 -119 -98q-12 -61 29 -86q14 -10 33 -9v-169q-63 -14 -118.5 5t-84.5 60t-38 92t13.5 107.5t75.5 97.5h-330h-18v1454h266h651l-2 -266h-649v-322l584 -2l-2 -258z" glyph-name="Eogonek" horiz-adv-x="1200" unicode="Ę"/><glyph d="M1063 489v-98h-727q29 -74 91 -119t140 -45q162 0 215 117l232 -88q-41 -102 -125 -171t-197 -95h8h-8q-33 -8 -71 -13q-86 -29 -91 -106q-2 -57 39 -74q10 -6 25 -4v-170q-109 -23 -179.5 39t-63.5 160t98 168h2q-166 43 -273.5 183t-107.5 323q0 215 146 367.5 t351 152.5q156 0 279 -81t178 -220q16 -45 26.5 -101.5t10.5 -89.5zM332 586h473q-4 31 -27.5 68.5t-48.5 58.5q-68 55 -162 55q-80 0 -144 -50t-91 -132z" glyph-name="eogonek" horiz-adv-x="1132" unicode="ę"/><glyph d="M465 1577l-193 381h228l116 -215l117 215h228l-193 -381h-303zM432 608v-342l651 -2l-2 -264h-897h-18v1454h266h651l-2 -266h-649v-322l584 -2l-2 -258z" glyph-name="Ecaron" horiz-adv-x="1200" unicode="Ě"/><glyph d="M416 1161l-193 381h228l116 -215l117 215h227l-192 -381h-303zM1063 489v-98h-727q29 -74 91 -119t140 -45q162 0 215 117l232 -88q-51 -129 -172 -205t-275 -76q-205 0 -351 153t-146 368t146 367.5t351 152.5q156 0 279 -81t178 -220q16 -45 26.5 -101.5t10.5 -89.5z M332 586h473q-4 31 -27.5 68.5t-48.5 58.5q-68 55 -162 55q-80 0 -144 -50t-91 -132z" glyph-name="ecaron" horiz-adv-x="1132" unicode="ě"/><glyph d="M807 1579q-158 0 -273.5 112.5t-125.5 272.5h227q6 -80 55 -122t117 -42q66 0 115 43t55 121h225q-10 -158 -125.5 -271.5t-269.5 -113.5zM782 600v248h697v-848h-267v109q-156 -133 -389 -134q-344 0 -543.5 211t-199.5 535q0 313 212 538.5t515 225.5q240 0 419 -120 t265 -323l-272 -94q-57 127 -167 196.5t-245 69.5q-186 0 -308 -141t-122 -352q0 -209 123 -335t323 -126q143 0 254 80t133 260h-428z" glyph-name="Gbreve" horiz-adv-x="1603" unicode="Ğ"/><glyph d="M586 1163q-158 0 -273.5 113t-126.5 272h228q6 -80 55 -122t117 -42q66 0 115 43t55 121h225q-10 -158 -125.5 -271.5t-269.5 -113.5zM848 983h268v-944q0 -209 -125 -356q-147 -174 -383 -175q-250 0 -395 144q-80 76 -123 201l229 79q23 -61 66 -102q82 -78 213 -72 q145 6 207 109q43 68 43 172v84q-111 -123 -287 -123q-215 0 -351 137t-136 369q0 236 132 374t355 136q174 0 287 -125v92zM592 231q111 0 181.5 79t72.5 204q-2 123 -77 194.5t-177 71.5q-113 0 -187.5 -78.5t-74.5 -195.5q0 -119 74.5 -197t187.5 -78z" glyph-name="gbreve" horiz-adv-x="1247" unicode="ğ"/><glyph d="M792.5 1593q-69.5 0 -117.5 49.5t-48 119t49 118.5t117 49q70 0 119 -50t49 -118q0 -70 -49.5 -119t-119 -49zM782 600v248h697v-848h-267v109q-156 -133 -389 -134q-344 0 -543.5 211t-199.5 535q0 313 212 538.5t515 225.5q240 0 419 -120t265 -323l-272 -94 q-57 127 -167 196.5t-245 69.5q-186 0 -308 -141t-122 -352q0 -209 123 -335t323 -126q143 0 254 80t133 260h-428z" glyph-name="Gdotaccent" horiz-adv-x="1603" unicode="Ġ"/><glyph d="M571.5 1178q-69.5 0 -117.5 49t-48 118.5t49 118.5t116 49q70 0 119 -50t49 -117q0 -70 -49 -119t-118.5 -49zM848 983h268v-944q0 -209 -125 -356q-147 -174 -383 -175q-250 0 -395 144q-80 76 -123 201l229 79q23 -61 66 -102q82 -78 213 -72q145 6 207 109 q43 68 43 172v84q-111 -123 -287 -123q-215 0 -351 137t-136 369q0 236 132 374t355 136q174 0 287 -125v92zM592 231q111 0 181.5 79t72.5 204q-2 123 -77 194.5t-177 71.5q-113 0 -187.5 -78.5t-74.5 -195.5q0 -119 74.5 -197t187.5 -78z" glyph-name="gdotaccent" horiz-adv-x="1247" unicode="ġ"/><glyph d="M782 600v248h697v-848h-267v109q-156 -133 -389 -134q-344 0 -543.5 211t-199.5 535q0 313 212 538.5t515 225.5q240 0 419 -120t265 -323l-272 -94q-57 127 -167 196.5t-245 69.5q-186 0 -308 -141t-122 -352q0 -209 123 -335t323 -126q143 0 254 80t133 260h-428z M514 -530l207 380h227l-192 -380h-242z" glyph-name="Gcommaaccent" horiz-adv-x="1603" unicode="Ģ"/><glyph d="M928 1544l-207 -381h-268l192 381h283zM848 983h268v-944q0 -209 -125 -356q-147 -174 -383 -175q-250 0 -395 144q-80 76 -123 201l229 79q23 -61 66 -102q82 -78 213 -72q145 6 207 109q43 68 43 172v84q-111 -123 -287 -123q-215 0 -351 137t-136 369q0 236 132 374 t355 136q174 0 287 -125v92zM592 231q111 0 181.5 79t72.5 204q-2 123 -77 194.5t-177 71.5q-113 0 -187.5 -78.5t-74.5 -195.5q0 -119 74.5 -197t187.5 -78z" glyph-name="gcommaaccent" horiz-adv-x="1247" unicode="ģ"/><glyph d="M1470 1335v-268h-161v-1067h-267v606l-610 2v-608h-266v1067h-164v268h164v119h266v-119h610v119h267v-119h161zM1042 864v203h-610v-201z" glyph-name="Hbar" horiz-adv-x="1474" unicode="Ħ"/><glyph d="M678 1038q213 0 350 -126t137 -414v-498h-268v483q0 135 -64.5 208t-154.5 73q-96 0 -176 -69.5t-88 -227.5v-467h-269v1137h-149v225h149v92h271v-92h352v-225h-352v-213q98 114 262 114z" glyph-name="hbar" horiz-adv-x="1296" unicode="ħ"/><glyph d="M-39 1872h676v-234h-676v234zM432 0h-266v1454h266v-1454z" glyph-name="Imacron" horiz-adv-x="598" unicode="Ī"/><glyph d="M115 1454h676v-233h-676v233zM319 983h267v-983h-267v983z" glyph-name="imacron" horiz-adv-x="905" unicode="ī"/><glyph d="M166 1454h266v-1454h-16q-133 0 -164 -90q-20 -59 18 -94q16 -14 39 -13v-170q-109 -23 -179.5 39t-63 160t97.5 168h2v1454z" glyph-name="Iogonek" horiz-adv-x="598" unicode="Į"/><glyph d="M285 1149q-68 0 -119 51t-51 117q0 68 50 118t120 50q66 0 115 -50.5t49 -117.5q0 -66 -49 -117t-115 -51zM143 0v983h267v-983h-15q-133 0 -164 -90q-20 -59 19 -94q16 -14 39 -13v-170q-109 -23 -179.5 39t-63.5 160t97 168z" glyph-name="iogonek" horiz-adv-x="563" unicode="į"/><glyph d="M284.5 1593q-69.5 0 -117.5 49.5t-48 119t49 118.5t117 49q70 0 119 -50t49 -118q0 -70 -49.5 -119t-119 -49zM432 0h-266v1454h266v-1454z" glyph-name="Idotaccent" horiz-adv-x="598" unicode="İ"/><glyph d="M113 983h266v-983h-266v983z" glyph-name="dotlessi" horiz-adv-x="491" unicode="ı"/><glyph d="M1337 1454l-592 -737l578 -717h-369l-389 494l-133 -166v-332h-268v1458h268v-684l537 684h368zM-29 -506l207 381h228l-193 -381h-242z" glyph-name="Kcommaaccent" horiz-adv-x="1361" unicode="Ķ"/><glyph d="M1042 983l-411 -426l411 -557h-297l-280 385l-51 -53v-332h-269v1454h269v-784l303 313h325zM-39 -506l207 381h227l-192 -381h-242z" glyph-name="kcommaaccent" horiz-adv-x="1056" unicode="ķ"/><glyph d="M641 1960l-207 -381h-268l192 381h283zM432 266h647v-266h-878h-37v1454h268v-1188z" glyph-name="Lacute" horiz-adv-x="1130" unicode="Ĺ"/><glyph d="M416 1579h-269l193 381h283zM604 0l-239 2q-111 0 -165.5 74t-54.5 200v1178h269l2 -1137q0 -35 14 -52t29.5 -19t50.5 -2l94 -2v-242z" glyph-name="lacute" horiz-adv-x="684" unicode="ĺ"/><glyph d="M432 266h647v-266h-878h-37v1454h268v-1188zM301 -506l207 381h227l-192 -381h-242z" glyph-name="Lcommaaccent" horiz-adv-x="1130" unicode="Ļ"/><glyph d="M604 0l-239 2q-111 0 -165.5 74t-54.5 200v1178h269l2 -1137q0 -35 14 -52t29.5 -19t50.5 -2l94 -2v-242zM307 -150h228l-193 -380h-242z" glyph-name="lcommaaccent" horiz-adv-x="684" unicode="ļ"/><glyph d="M432 266h647v-266h-878h-37v1454h268v-1188zM911 1454v-676h-233v676h233z" glyph-name="Lcaron" horiz-adv-x="1140" unicode="Ľ"/><glyph d="M604 0l-239 2q-111 0 -165.5 74t-54.5 200v1178h269l2 -1137q0 -35 14 -52t29.5 -19t50.5 -2l94 -2v-242zM786 1454v-676h-233v676h233z" glyph-name="lcaron" horiz-adv-x="868" unicode="ľ"/><glyph d="M432 266h647v-266h-878h-37v637l-131 -64v246l131 64v571h268v-444l291 139v-246l-291 -139v-498z" glyph-name="Lslash" horiz-adv-x="1140" unicode="Ł"/><glyph d="M510 244l94 -2v-242l-239 2q-111 0 -165.5 74t-54.5 200v377l-112 -53v219l112 53v582h269v-453l139 66v-219l-137 -66v-465q0 -35 14 -52t29.5 -19t50.5 -2z" glyph-name="lslash" horiz-adv-x="696" unicode="ł"/><glyph d="M1122 1960l-207 -381h-268l193 381h282zM1110 1454h266v-1454h-266l-680 1001v-1001h-266v1454h266l680 -1001v1001z" glyph-name="Nacute" horiz-adv-x="1540" unicode="Ń"/><glyph d="M989 1542l-207 -381h-268l193 381h282zM698 1016q90 0 164 -23.5t141.5 -78t105.5 -156t38 -244.5v-514h-260v500q0 131 -56.5 201.5t-148.5 78.5q-102 12 -185 -52t-94 -202l3 -526h-261l2 983h256v-115q115 152 295 148z" glyph-name="nacute" horiz-adv-x="1277" unicode="ń"/><glyph d="M1110 1454h266v-1454h-266l-680 1001v-1001h-266v1454h266l680 -1001v1001zM459 -506l207 381h227l-193 -381h-241z" glyph-name="Ncommaaccent" horiz-adv-x="1540" unicode="Ņ"/><glyph d="M698 1016q90 0 164 -23.5t141.5 -78t105.5 -156t38 -244.5v-514h-260v500q0 131 -56.5 201.5t-148.5 78.5q-102 12 -185 -52t-94 -202l3 -526h-261l2 983h256v-115q115 152 295 148zM340 -506l207 381h227l-192 -381h-242z" glyph-name="ncommaaccent" horiz-adv-x="1277" unicode="ņ"/><glyph d="M629 1579l-193 381h228l116 -215l117 215h227l-192 -381h-303zM1110 1454h266v-1454h-266l-680 1001v-1001h-266v1454h266l680 -1001v1001z" glyph-name="Ncaron" horiz-adv-x="1540" unicode="Ň"/><glyph d="M496 1161l-193 381h227l117 -215l117 215h227l-192 -381h-303zM698 1016q90 0 164 -23.5t141.5 -78t105.5 -156t38 -244.5v-514h-260v500q0 131 -56.5 201.5t-148.5 78.5q-102 12 -185 -52t-94 -202l3 -526h-261l2 983h256v-115q115 152 295 148z" glyph-name="ncaron" horiz-adv-x="1277" unicode="ň"/><glyph d="M1090 1454h266v-1526q0 -129 -53.5 -212t-129 -108.5t-148.5 -25.5t-122 23v168q63 -27 125 6t62 143v78l-660 1001v-1001h-266v1454h266l660 -1001v1001z" glyph-name="Eng" horiz-adv-x="1519" unicode="Ŋ"/><glyph d="M698 1016q90 0 164 -23.5t141.5 -78t105.5 -156t38 -244.5v-586q0 -129 -53.5 -212t-129 -108.5t-148.5 -25.5t-122 23v168q63 -27 128 6t65 143v578q0 131 -56.5 201.5t-148.5 78.5q-102 12 -185 -52t-94 -202l3 -526h-261l2 983h256v-115q115 152 295 148z" glyph-name="eng" horiz-adv-x="1277" unicode="ŋ"/><glyph d="M463 1872h676v-234h-676v234zM1526 723q0 -328 -206 -538t-517 -210q-305 0 -513 214t-208 534q0 324 206 542t513 218q311 0 518 -217t207 -543zM1227 723q0 215 -116 345t-310 130q-188 0 -304 -131t-116 -344q0 -209 116.5 -336t305.5 -127q197 0 310.5 123t113.5 340 z" glyph-name="Omacron" horiz-adv-x="1607" unicode="Ō"/><glyph d="M246 1452h676v-233h-676v233zM1073 487q0 -215 -145.5 -363.5t-354.5 -148.5q-205 0 -354 152t-149 360q0 217 147.5 372t355.5 155q207 0 353.5 -155t146.5 -372zM809 485q0 117 -64.5 196t-171.5 79q-111 0 -175 -80t-64 -195q0 -106 66.5 -184t172.5 -78 q109 0 172.5 73.5t63.5 188.5z" glyph-name="omacron" horiz-adv-x="1142" unicode="ō"/><glyph d="M727 1608h-268l192 381h283zM1157 1608h-268l213 381h282zM1526 723q0 -328 -206 -538t-517 -210q-305 0 -513 214t-208 534q0 324 206 542t513 218q311 0 518 -217t207 -543zM1227 723q0 215 -116 345t-310 130q-188 0 -304 -131t-116 -344q0 -209 116.5 -336 t305.5 -127q197 0 310.5 123t113.5 340z" glyph-name="Ohungarumlaut" horiz-adv-x="1607" unicode="Ő"/><glyph d="M516 1139h-268l192 381h283zM946 1139h-268l213 381h283zM1073 487q0 -215 -145.5 -363.5t-354.5 -148.5q-205 0 -354 152t-149 360q0 217 147.5 372t355.5 155q207 0 353.5 -155t146.5 -372zM809 485q0 117 -64.5 196t-171.5 79q-111 0 -175 -80t-64 -195 q0 -106 66.5 -184t172.5 -78q109 0 172.5 73.5t63.5 188.5z" glyph-name="ohungarumlaut" horiz-adv-x="1142" unicode="ő"/><glyph d="M1526 608v-340l651 -2l-2 -266l-649 2v-2h-266v121q-197 -160 -457 -160q-303 0 -512 220t-209 542q0 324 206 542t513 218q264 0 459 -162v133h266l651 -2l-2 -266l-649 2v-322l583 -2l-2 -258zM803 246q197 0 310.5 130t113.5 347q0 215 -116 345t-310 130 q-188 0 -304 -131t-116 -344q0 -211 117 -344t305 -133z" glyph-name="OE" horiz-adv-x="2258" unicode="Œ"/><glyph d="M1815 479v-98h-728q29 -76 91.5 -123t140.5 -47q76 0 133 34t82 89l231 -88q-51 -131 -173 -207t-273 -76q-219 0 -367 170q-150 -164 -366 -164q-205 0 -354.5 155t-149.5 363q0 217 147.5 372t356.5 155q219 0 370 -174q145 166 363 166q156 0 278.5 -81t178.5 -220 q16 -45 26 -101.5t13 -91.5v-33zM586 217q109 0 172 77t63 191q0 117 -64.5 196t-170.5 79q-111 0 -175.5 -80t-64.5 -195q0 -109 67 -188.5t173 -79.5zM1083 575h473q-2 20 -12 39q-27 66 -87 105t-138 39q-80 0 -144.5 -50.5t-91.5 -132.5z" glyph-name="oe" horiz-adv-x="1896" unicode="œ"/><glyph d="M975 1960l-207 -381h-268l192 381h283zM1186 725q-78 -80 -170 -123l272 -602h-303l-237 557h-312v-557h-270v1454h270l348 -2q246 -4 377 -119q123 -106 128.5 -300.5t-103.5 -307.5zM436 1198v-395h332q137 0 190 76q39 55 32 138t-56 128q-55 51 -166 51z" glyph-name="Racute" horiz-adv-x="1372" unicode="Ŕ"/><glyph d="M608 1509l-207 -381h-268l193 381h282zM410 870q80 127 333 113v-240q-139 39 -230 -38.5t-101 -221.5v-483h-265l-2 983h265v-113z" glyph-name="racute" horiz-adv-x="784" unicode="ŕ"/><glyph d="M1186 725q-78 -80 -170 -123l272 -602h-303l-237 557h-312v-557h-270v1454h270l348 -2q246 -4 377 -119q123 -106 128.5 -300.5t-103.5 -307.5zM436 1198v-395h332q137 0 190 76q39 55 32 138t-56 128q-55 51 -166 51zM367 -506l206 381h228l-193 -381h-241z" glyph-name="Rcommaaccent" horiz-adv-x="1372" unicode="Ŗ"/><glyph d="M410 870q80 127 333 113v-240q-139 39 -230 -38.5t-101 -221.5v-483h-265l-2 983h265v-113zM-53 -506l207 381h227l-193 -381h-241z" glyph-name="rcommaaccent" horiz-adv-x="784" unicode="ŗ"/><glyph d="M481 1579l-192 381h227l117 -215l117 215h227l-193 -381h-303zM1186 725q-78 -80 -170 -123l272 -602h-303l-237 557h-312v-557h-270v1454h270l348 -2q246 -4 377 -119q123 -106 128.5 -300.5t-103.5 -307.5zM436 1198v-395h332q137 0 190 76q39 55 32 138t-56 128 q-55 51 -166 51z" glyph-name="Rcaron" horiz-adv-x="1372" unicode="Ř"/><glyph d="M115 1128l-193 381h228l116 -215l117 215h227l-192 -381h-303zM410 870q80 127 333 113v-240q-139 39 -230 -38.5t-101 -221.5v-483h-265l-2 983h265v-113z" glyph-name="rcaron" horiz-adv-x="784" unicode="ř"/><glyph d="M758 1579h-269l193 381h283zM1137 1120l-267 -69q-20 78 -97 122t-163 44q-78 0 -138 -36t-81 -104q-18 -63 15.5 -115.5t117.5 -68.5q2 0 201 -39q188 -33 293.5 -147.5t105.5 -288.5q0 -207 -157.5 -324t-372.5 -117q-205 0 -363.5 105.5t-169.5 296.5l267 39 q12 -82 96 -128t182 -46q102 0 170 45t68 121q2 47 -29 89t-86 62q-45 16 -285 64q-160 35 -246.5 139t-86.5 272q0 188 146 317.5t345 129.5q205 0 353.5 -106.5t181.5 -256.5z" glyph-name="Sacute" horiz-adv-x="1210" unicode="Ś"/><glyph d="M598 1161h-268l192 381h283zM858 754l-246 -56q-27 92 -149 93q-94 0 -115 -68q-6 -29 11.5 -52.5t56.5 -33.5q53 -14 200 -53q233 -59 234 -297q0 -139 -105.5 -225.5t-267.5 -86.5q-160 0 -278.5 80t-139.5 207l252 41q8 -43 53.5 -72.5t112.5 -29.5q121 0 121 80 q0 49 -82 67q-29 6 -58.5 14.5t-51 13.5t-39 10t-27.5 8t-12 3q-106 31 -168 110t-62 185q0 137 105.5 230.5t259.5 93.5q150 0 258 -71.5t137 -190.5z" glyph-name="sacute" horiz-adv-x="931" unicode="ś"/><glyph d="M725 854q188 -33 293.5 -147.5t105.5 -288.5q0 -178 -120.5 -291t-301.5 -141l-49 -62h60q66 0 103.5 -49t35.5 -111q-4 -61 -43 -106t-92 -45h-225v123h188q37 0 37 35q0 31 -37 30h-188v127l36 52q-188 18 -323 121.5t-144 277.5l267 39q12 -82 96 -128t182 -46 q102 0 170 45t68 121q2 47 -29 89t-86 62q-45 16 -285 64q-160 35 -246.5 139t-86.5 272q0 188 146 317.5t345 129.5q205 0 353.5 -106.5t181.5 -256.5l-267 -69q-20 78 -97 122t-163 44q-78 0 -138 -36t-81 -104q-18 -63 15.5 -115.5t117.5 -68.5q2 0 201 -39z" glyph-name="Scedilla" horiz-adv-x="1210" unicode="Ş"/><glyph d="M616 584q233 -59 234 -297q0 -125 -86 -208t-225 -99l-35 -46h59q66 0 104 -49t35 -110q-4 -61 -42.5 -106.5t-92.5 -45.5h-225v123h188q37 0 37 35q0 31 -37 31h-188v127l33 47q-125 23 -211 97.5t-105 178.5l252 41q8 -43 53.5 -72.5t112.5 -29.5q121 0 121 80 q0 49 -82 67q-29 6 -58.5 14.5t-51 13.5t-39 10t-27.5 8t-12 3q-106 31 -168 110t-62 185q0 137 105.5 230.5t259.5 93.5q150 0 258 -72t137 -190l-246 -56q-27 92 -149 93q-94 0 -115 -68q-6 -29 11.5 -52.5t56.5 -33.5q53 -14 200 -53z" glyph-name="scedilla" horiz-adv-x="931" unicode="ş"/><glyph d="M471 1579l-192 381h227l117 -215l116 215h228l-193 -381h-303zM725 854q188 -33 293.5 -147.5t105.5 -288.5q0 -207 -157.5 -324t-372.5 -117q-205 0 -363.5 105.5t-169.5 296.5l267 39q12 -82 96 -128t182 -46q102 0 170 45t68 121q2 47 -29 89t-86 62q-45 16 -285 64 q-160 35 -246.5 139t-86.5 272q0 188 146 317.5t345 129.5q205 0 353.5 -106.5t181.5 -256.5l-267 -69q-20 78 -97 122t-163 44q-78 0 -138 -36t-81 -104q-18 -63 15.5 -115.5t117.5 -68.5q2 0 201 -39z" glyph-name="Scaron" horiz-adv-x="1210" unicode="Š"/><glyph d="M311 1161l-192 381h227l117 -215l117 215h227l-193 -381h-303zM616 584q233 -59 234 -297q0 -139 -105.5 -225.5t-267.5 -86.5q-160 0 -278.5 80t-139.5 207l252 41q8 -43 53.5 -72.5t112.5 -29.5q121 0 121 80q0 49 -82 67q-29 6 -58.5 14.5t-51 13.5t-39 10t-27.5 8 t-12 3q-106 31 -168 110t-62 185q0 137 105.5 230.5t259.5 93.5q150 0 258 -72t137 -190l-246 -56q-27 92 -149 93q-94 0 -115 -68q-6 -29 11.5 -52.5t56.5 -33.5q53 -14 200 -53z" glyph-name="scaron" horiz-adv-x="931" unicode="š"/><glyph d="M735 0h-47l-43 -53h60q66 0 103.5 -49.5t35.5 -110.5q-4 -61 -43 -106.5t-92 -45.5h-226v123h189q37 0 37 35q0 31 -37 31h-189v127l35 49h-51v1186h-434v268h1136v-268h-434v-1186z" glyph-name="Tcommaaccent" horiz-adv-x="1202" unicode="Ţ"/><glyph d="M655 764h-188v-447q0 -35 14.5 -52t29.5 -19t50 -2l94 -2v-242l-161 2l-43 -55h59q66 0 103.5 -49.5t35.5 -110.5q-4 -61 -43 -106.5t-92 -45.5h-225v123h188q37 0 37 35q0 31 -37 31h-188v127l45 63q-137 49 -137 262v488h-168v219h168v311h268v-311h190v-219z" glyph-name="tcommaaccent" horiz-adv-x="735" unicode="ţ"/><glyph d="M451 1579l-193 381h227l117 -215l117 215h227l-192 -381h-303zM1169 1454v-268h-434v-1186h-268v1186h-434v268h1136z" glyph-name="Tcaron" horiz-adv-x="1202" unicode="Ť"/><glyph d="M500 1677h233v-573h-233v573zM416 1294v-311h317v-219h-315v-447q0 -35 14 -52t29.5 -19t50.5 -2l221 -2v-242l-366 2q-111 0 -165.5 74t-54.5 200v488h-118v219h118v311h269z" glyph-name="tcaron" horiz-adv-x="813" unicode="ť"/><glyph d="M1169 1186h-434v-297h269v-268h-269v-621h-268v621h-236v268h236v297h-434v268h1136v-268z" glyph-name="Tbar" horiz-adv-x="1202" unicode="Ŧ"/><glyph d="M655 786h-188v-133h188v-207h-188v-129q0 -35 14.5 -52t29.5 -19t50 -2l94 -2v-242l-239 2q-111 0 -165 74t-54 200v170h-168v207h168v133h-168v197h168v311h268v-311h190v-197z" glyph-name="tbar" horiz-adv-x="735" unicode="ŧ"/><glyph d="M1073 1872v-234h-676v234h676zM1049 1454h268v-926q0 -250 -173 -405.5t-410.5 -155.5t-409.5 156t-172 405v926h268v-926q0 -131 98 -211.5t215 -80.5q119 0 217.5 80.5t98.5 211.5v926z" glyph-name="Umacron" horiz-adv-x="1468" unicode="Ū"/><glyph d="M969 1442v-234h-676v234h676zM862 983h262v-983h-262v113q-96 -137 -276 -138q-213 0 -332 111t-119 391v506h262v-489q0 -135 61.5 -209t160 -74t171 78t72.5 246v448z" glyph-name="umacron" horiz-adv-x="1259" unicode="ū"/><glyph d="M735 1542q-119 0 -200.5 83t-81.5 202q0 117 84 202t198 85q117 0 200 -85t83 -202t-83 -201t-200 -84zM735 1944q-49 0 -81.5 -33t-32.5 -80q0 -51 32.5 -85t81.5 -34t82 34t33 85q0 47 -33 80t-82 33zM1049 1454h268v-926q0 -250 -173 -405.5t-410.5 -155.5t-409.5 156 t-172 405v926h268v-926q0 -131 98 -211.5t215 -80.5q119 0 217.5 80.5t98.5 211.5v926z" glyph-name="Uring" horiz-adv-x="1468" unicode="Ů"/><glyph d="M631 1112q-119 0 -201 83t-82 202q0 117 84 201.5t199 84.5q117 0 199.5 -85t82.5 -201.5t-82.5 -200.5t-199.5 -84zM631 1513q-49 0 -82 -32.5t-33 -79.5q0 -51 33 -85t82 -34t81.5 34t32.5 85q0 47 -32.5 79.5t-81.5 32.5zM862 983h262v-983h-262v113 q-96 -137 -276 -138q-213 0 -332 111t-119 391v506h262v-489q0 -135 61.5 -209t160 -74t171 78t72.5 246v448z" glyph-name="uring" horiz-adv-x="1259" unicode="ů"/><glyph d="M860 1960l-207 -381h-268l193 381h282zM1083 1579h-268l213 381h283zM1049 1454h268v-926q0 -250 -173 -405.5t-410.5 -155.5t-409.5 156t-172 405v926h268v-926q0 -131 98 -211.5t215 -80.5q119 0 217.5 80.5t98.5 211.5v926z" glyph-name="Uhungarumlaut" horiz-adv-x="1468" unicode="Ű"/><glyph d="M756 1530l-207 -381h-268l192 381h283zM979 1149h-268l213 381h282zM862 535v448h262v-983h-262v113q-96 -137 -276 -138q-213 0 -332 111t-119 391v506h262v-489q0 -135 61.5 -209t160 -74t171 78t72.5 246z" glyph-name="uhungarumlaut" horiz-adv-x="1259" unicode="ű"/><glyph d="M1049 1454h268v-926q0 -205 -120 -348t-304 -192h8h-8q-49 -12 -82 -17q-80 -33 -80 -108q0 -57 43 -70q10 -4 21 -2v-170q-104 -23 -175 35.5t-69 153t82 165.5q-205 33 -343 182.5t-138 370.5v926h268v-926q0 -131 98 -211.5t215 -80.5q119 0 217.5 80.5t98.5 211.5 v926z" glyph-name="Uogonek" horiz-adv-x="1468" unicode="Ų"/><glyph d="M862 983h262v-983h-8q-133 0 -164 -90q-20 -59 19 -94q16 -14 39 -13v-170q-109 -23 -179.5 39t-63.5 160t97 168h-2v113q-96 -137 -276 -138q-213 0 -332 111t-119 391v506h262v-489q0 -135 61.5 -209t160 -74t171 78t72.5 246v448z" glyph-name="uogonek" horiz-adv-x="1259" unicode="ų"/><glyph d="M1130 1794l-116 -215h-228l193 381h242h61l193 -381h-228zM1935 1454h320l-494 -1454h-268l-354 1001l-355 -1001h-266l-493 1454h319l309 -1024l326 1024h319l326 -1024z" glyph-name="Wcircumflex" horiz-adv-x="2279" unicode="Ŵ"/><glyph d="M809 1323l-117 -215h-227l192 381h242h62l192 -381h-227zM1311 983h278l-346 -983h-242h-4l-192 575l-205 -575h-242h-4l-329 983h280l176 -594l187 594h280l176 -594z" glyph-name="wcircumflex" horiz-adv-x="1613" unicode="ŵ"/><glyph d="M664 1794l-117 -215h-228l193 381h242h61l193 -381h-228zM1307 1454l-512 -862v-592h-267v592l-508 862h320l322 -604l325 604h320z" glyph-name="Ycircumflex" horiz-adv-x="1327" unicode="Ŷ"/><glyph d="M571 1323l-116 -215h-228l193 381h242h61l192 -381h-227zM848 983h278l-579 -1442h-279l189 469l-443 973h281l289 -655z" glyph-name="ycircumflex" horiz-adv-x="1146" unicode="ŷ"/><glyph d="M432 1593q-70 0 -120 49.5t-50 119t49 118.5t121 49q68 0 118 -49t50 -119q0 -68 -49 -118t-119 -50zM897 1593q-70 0 -120 49.5t-50 119t49 118.5t121 49q68 0 118 -49t50 -119q0 -68 -49 -118t-119 -50zM1307 1454l-512 -862v-592h-267v592l-508 862h320l322 -604 l325 604h320z" glyph-name="Ydieresis" horiz-adv-x="1327" unicode="Ÿ"/><glyph d="M938 1960l-207 -381h-268l192 381h283zM1112 1454v-266l-713 -922h703v-266h-1018l-4 266l713 920l-713 -2v266z" glyph-name="Zacute" horiz-adv-x="1200" unicode="Ź"/><glyph d="M821 1489l-207 -381h-268l193 381h282zM883 983v-240l-467 -503h467v-240h-807v240l479 503h-479v240h807z" glyph-name="zacute" horiz-adv-x="958" unicode="ź"/><glyph d="M581.5 1593q-69.5 0 -117.5 49.5t-48 119t49 118.5t117 49q70 0 119 -50t49 -118q0 -70 -49.5 -119t-119 -49zM1112 1454v-266l-713 -922h703v-266h-1018l-4 266l713 920l-713 -2v266z" glyph-name="Zdotaccent" horiz-adv-x="1200" unicode="Ż"/><glyph d="M465 1122q-70 0 -118 49.5t-48 119t49 118.5t117 49q70 0 119 -50t49 -118q0 -70 -49 -119t-119 -49zM883 983v-240l-467 -503h467v-240h-807v240l479 503h-479v240h807z" glyph-name="zdotaccent" horiz-adv-x="958" unicode="ż"/><glyph d="M444 1579l-192 381h227l117 -215l117 215h227l-192 -381h-304zM1112 1454v-266l-713 -922h703v-266h-1018l-4 266l713 920l-713 -2v266z" glyph-name="Zcaron" horiz-adv-x="1200" unicode="Ž"/><glyph d="M328 1108l-193 381h227l117 -215l117 215h227l-192 -381h-303zM883 983v-240l-467 -503h467v-240h-807v240l479 503h-479v240h807z" glyph-name="zcaron" horiz-adv-x="958" unicode="ž"/><glyph d="M825 1237q-115 0 -135 -137l-16 -117h295v-219h-326l-2 -21l-53 -385q-25 -172 -141.5 -277.5t-278.5 -105.5h-139v246h153q115 0 135 137l50 357l6 49h-277v219h307l17 117q25 172 141.5 277.5t278.5 105.5h139v-246h-154z" glyph-name="florin" horiz-adv-x="1009" unicode="ƒ"/><glyph d="M1137 1120l-267 -69q-20 78 -97 122t-163 44q-78 0 -138 -36t-81 -104q-18 -63 15.5 -115.5t117.5 -68.5q2 0 201 -39q188 -33 293.5 -147.5t105.5 -288.5q0 -207 -157.5 -324t-372.5 -117q-205 0 -363.5 105.5t-169.5 296.5l267 39q12 -82 96 -128t182 -46q102 0 170 45 t68 121q2 47 -29 89t-86 62q-45 16 -285 64q-160 35 -246.5 139t-86.5 272q0 188 146 317.5t345 129.5q205 0 353.5 -106.5t181.5 -256.5zM496 -147h227l-193 -381h-241z" glyph-name="Scommaaccent" horiz-adv-x="1210" unicode="Ș"/><glyph d="M858 754l-246 -56q-27 92 -149 93q-94 0 -115 -68q-6 -29 11.5 -52.5t56.5 -33.5q53 -14 200 -53q233 -59 234 -297q0 -139 -105.5 -225.5t-267.5 -86.5q-160 0 -278.5 80t-139.5 207l252 41q8 -43 53.5 -72.5t112.5 -29.5q121 0 121 80q0 49 -82 67q-29 6 -58.5 14.5 t-51 13.5t-39 10t-27.5 8t-12 3q-106 31 -168 110t-62 185q0 137 105.5 230.5t259.5 93.5q150 0 258 -71.5t137 -190.5zM346 -137h227l-192 -381h-242z" glyph-name="scommaaccent" horiz-adv-x="931" unicode="ș"/><glyph d="M1169 1454v-268h-434v-1186h-268v1186h-434v268h1136zM281 -506l206 381h228l-193 -381h-241z" glyph-name="uni021A" horiz-adv-x="1202" unicode="Ț"/><glyph d="M655 764h-188v-447q0 -35 14.5 -52t29.5 -19t50 -2l94 -2v-242l-239 2q-111 0 -165 74t-54 200v488h-168v219h168v311h268v-311h190v-219zM86 -506l207 381h227l-192 -381h-242z" glyph-name="uni021B" horiz-adv-x="735" unicode="ț"/><glyph d="M729 1579h-227l-117 215l-117 -215h-227l192 381h242h62z" glyph-name="circumflex" horiz-adv-x="770" unicode="ˆ"/><glyph d="M502 1960h227l-192 -381h-242h-62l-192 381h227l117 -215z" glyph-name="caron" horiz-adv-x="770" unicode="ˇ"/><glyph d="M610 1964h226q-10 -158 -126 -271.5t-270 -113.5q-158 0 -273.5 112.5t-125.5 272.5h227q6 -80 55.5 -122t116.5 -42q66 0 115 43t55 121z" glyph-name="breve" horiz-adv-x="876" unicode="˘"/><glyph d="M211 1593q-70 0 -120 49.5t-50 119t49 118.5t121 49q68 0 118 -49t50 -119q0 -68 -49 -118t-119 -50z" glyph-name="dotaccent" horiz-adv-x="419" unicode="˙"/><glyph d="M303 1542q-119 0 -201 83t-82 202q0 117 84 202t199 85q117 0 200 -85t83 -202t-83 -201t-200 -84zM303 1712q49 0 82 34t33 85q0 47 -33 80t-82 33t-82 -33t-33 -80q0 -51 33 -85t82 -34z" glyph-name="ring" horiz-adv-x="626" unicode="˚"/><glyph d="M571 0h252q-133 0 -164 -90q-20 -59 19 -94q16 -14 39 -13v-170q-109 -23 -179.5 39t-63.5 160t97 168z" glyph-name="ogonek" horiz-adv-x="1228" unicode="˛"/><glyph d="M53 1675q-14 121 58.5 211t185.5 90q156 0 244 -149q57 -82 102 -82q35 0 46 35t-9 86h207q16 -127 -56.5 -223.5t-187.5 -96.5q-162 0 -254 160q-27 45 -45 58.5t-47 13.5t-43 -31t-6 -72h-195z" glyph-name="tilde" horiz-adv-x="921" unicode="˜"/><glyph d="M268 1579h-268l193 381h282zM698 1579h-268l213 381h283z" glyph-name="hungarumlaut" horiz-adv-x="985" unicode="˝"/><glyph d="M-330 1579l-207 381h283l193 -381h-269z" glyph-name="gravecomb" unicode="̀"/><glyph d="M-209 1579h-268l192 381h283z" glyph-name="acutecomb" unicode="́"/><glyph d="M113 1579h-228l-116 215l-117 -215h-227l192 381h242h61z" glyph-name="uni0302" unicode="̂"/><glyph d="M-856 1675q-14 121 58.5 211t185.5 90q156 0 243 -149q57 -82 103 -82q35 0 46 35t-9 86h206q16 -127 -56.5 -223.5t-186.5 -96.5q-162 0 -254 160q-27 45 -45.5 58.5t-47 13.5t-43 -31t-6.5 -72h-194z" glyph-name="tildecomb" unicode="̃"/><glyph d="M-717 1866h676v-234h-676v234z" glyph-name="uni0304" unicode="̄"/><glyph d="M-266 1964h225q-10 -158 -126 -271.5t-269 -113.5q-158 0 -273.5 112.5t-126.5 272.5h228q6 -80 55 -122t117 -42q66 0 115 43t55 121z" glyph-name="uni0306" unicode="̆"/><glyph d="M-616.5 1593q-69.5 0 -117.5 49.5t-48 119t49 118.5t117 49q70 0 118.5 -50t48.5 -118q0 -70 -49 -119t-118.5 -49z" glyph-name="uni0307" unicode="̇"/><glyph d="M-610.5 1593q-69.5 0 -119.5 49.5t-50 119t49 118.5t121 49q68 0 118 -49t50 -119q0 -68 -49.5 -118t-119 -50zM-178.5 1593q-69.5 0 -117.5 49.5t-48 119t49 118.5t117 49q70 0 119 -50t49 -118q0 -70 -49.5 -119t-119 -49z" glyph-name="uni0308" unicode="̈"/><glyph d="M-303 1542q-119 0 -201 83t-82 202q0 117 84 202t199 85q117 0 200 -85t83 -202t-83 -201t-200 -84zM-303 1712q49 0 82 34t33 85q0 47 -33 80t-82 33t-82 -33t-33 -80q0 -51 33 -85t82 -34z" glyph-name="uni030A" unicode="̊"/><glyph d="M-543 1579h-268l193 381h282zM-113 1579h-268l213 381h283z" glyph-name="uni030B" unicode="̋"/><glyph d="M-238 1960h228l-193 -381h-241h-62l-192 381h227l117 -215z" glyph-name="uni030C" unicode="̌"/><glyph glyph-name="uni0312" unicode="̒"/><glyph d="M-268 -125h227l-192 -381h-242z" glyph-name="uni0326" unicode="̦"/><glyph d="M-739 -346v123h188q37 0 37 35q0 31 -37 30h-188v127l92 131l125 -2v-63l-56 -70h60q66 0 103.5 -49t35.5 -111q-4 -61 -43 -106t-92 -45h-225z" glyph-name="uni0327" unicode="̧"/><glyph glyph-name="uni0328" unicode="̨"/><glyph glyph-name="uni0335" unicode="̵"/><glyph glyph-name="uni0336" unicode="̶"/><glyph glyph-name="uni0337" unicode="̷"/><glyph d="M-893 0h-324l908 1454h309z" glyph-name="uni0338" unicode="̸"/><glyph d="M1018 201h170v-201h-449v201q90 53 139.5 137t53.5 174q4 117 -64.5 196.5t-197.5 82.5q-131 0 -201 -82t-66 -199q4 -90 54.5 -174t138.5 -135v-201h-451v201h170q-143 147 -143 344q10 197 155.5 337t342.5 140q199 -2 343 -143.5t150 -333.5q0 -199 -145 -344z" glyph-name="Omega" horiz-adv-x="1312" unicode="Ω"/><glyph d="M1237 983v-219h-190q2 -156 2 -447q0 -35 14 -52t29.5 -19t50.5 -2l94 -2v-242l-240 2q-111 0 -165 74t-54 200v488h-307v-764h-266v764h-176v219h442h576h190z" glyph-name="pi" horiz-adv-x="1316" unicode="π"/><glyph d="M1264 1579h-269l-207 381h283zM1935 1454h320l-494 -1454h-268l-354 1001l-355 -1001h-266l-493 1454h319l309 -1024l326 1024h319l326 -1024z" glyph-name="Wgrave" horiz-adv-x="2279" unicode="Ẁ"/><glyph d="M942 1108h-268l-207 381h283zM1311 983h278l-346 -983h-242h-4l-192 575l-205 -575h-242h-4l-329 983h280l176 -594l187 594h280l176 -594z" glyph-name="wgrave" horiz-adv-x="1613" unicode="ẁ"/><glyph d="M1473 1960l-207 -381h-269l193 381h283zM1935 1454h320l-494 -1454h-268l-354 1001l-355 -1001h-266l-493 1454h319l309 -1024l326 1024h319l326 -1024z" glyph-name="Wacute" horiz-adv-x="2279" unicode="Ẃ"/><glyph d="M1151 1489l-207 -381h-268l192 381h283zM1311 983h278l-346 -983h-242h-4l-192 575l-205 -575h-242h-4l-329 983h280l176 -594l187 594h280l176 -594z" glyph-name="wacute" horiz-adv-x="1613" unicode="ẃ"/><glyph d="M899 1593q-70 0 -120 49.5t-50 119t49 118.5t121 49q68 0 118 -49t50 -119q0 -68 -49 -118t-119 -50zM1364 1593q-70 0 -120 49.5t-50 119t49 118.5t121 49q68 0 118 -49t50 -119q0 -68 -49 -118t-119 -50zM1935 1454h320l-494 -1454h-268l-354 1001l-355 -1001h-266 l-493 1454h319l309 -1024l326 1024h319l326 -1024z" glyph-name="Wdieresis" horiz-adv-x="2279" unicode="Ẅ"/><glyph d="M577.5 1122q-69.5 0 -119.5 49.5t-50 119t49 118.5t121 49q68 0 117.5 -49t49.5 -119q0 -68 -49 -118t-118.5 -50zM1042.5 1122q-69.5 0 -120 49.5t-50.5 119t49.5 118.5t120.5 49q68 0 118 -49t50 -119q0 -68 -49 -118t-118.5 -50zM1311 983h278l-346 -983h-242h-4 l-192 575l-205 -575h-242h-4l-329 983h280l176 -594l187 594h280l176 -594z" glyph-name="wdieresis" horiz-adv-x="1613" unicode="ẅ"/><glyph d="M797 1579h-269l-206 381h282zM1307 1454l-512 -862v-592h-267v592l-508 862h320l322 -604l325 604h320z" glyph-name="Ygrave" horiz-adv-x="1327" unicode="Ỳ"/><glyph d="M705 1108h-269l-207 381h283zM848 983h278l-579 -1442h-279l189 469l-443 973h281l289 -655z" glyph-name="ygrave" horiz-adv-x="1146" unicode="ỳ"/><glyph d="M133 666h1591v-269h-1591v269z" glyph-name="endash" horiz-adv-x="1857" unicode="–"/><glyph d="M164 666h2001v-269h-2001v269z" glyph-name="emdash" horiz-adv-x="2328" unicode="—"/><glyph d="M248 1284q53 -10 88 -52t35 -95q0 -63 -46 -108.5t-110 -45.5q-61 0 -107.5 45t-46.5 109q0 37 21 73l121 236h78z" glyph-name="quoteleft" horiz-adv-x="432" unicode="‘"/><glyph d="M371 1251q0 -37 -21 -73l-121 -236h-77l32 162q-53 10 -88 52t-35 95q0 63 46.5 108.5t109.5 45.5q61 0 107.5 -45.5t46.5 -108.5z" glyph-name="quoteright" horiz-adv-x="432" unicode="’"/><glyph d="M434 152q0 -37 -20 -74l-121 -236h-78l33 162q-53 10 -88 52t-35 96q0 63 46 108t110 45q61 0 107 -45t46 -108z" glyph-name="quotesinglbase" horiz-adv-x="452" unicode="‚"/><glyph d="M309 1284q53 -10 88 -52t35 -95q0 -63 -46 -108.5t-110 -45.5q-61 0 -107 45t-46 109q0 37 20 73l121 236h78zM657 1284q53 -10 88 -52t35 -95q0 -63 -46 -108.5t-109 -45.5q-61 0 -107.5 45t-46.5 109q0 37 21 73l120 236h78z" glyph-name="quotedblleft" horiz-adv-x="903" unicode="“"/><glyph d="M279 1405q61 0 107 -45t46 -109q0 -37 -20 -73l-121 -236h-78l33 162q-53 10 -88 52t-35 95q0 63 46.5 108.5t109.5 45.5zM780 1251q0 -37 -20 -73l-121 -236h-78l33 162q-53 10 -88 52t-35 95q0 63 46 108.5t110 45.5q61 0 107 -45.5t46 -108.5z" glyph-name="quotedblright" horiz-adv-x="903" unicode="”"/><glyph d="M176 305q61 0 107.5 -45t46.5 -108q0 -37 -21 -74l-121 -236h-77l32 162q-53 10 -88 52t-35 96q0 63 46.5 108t109.5 45zM678 152q0 -37 -21 -74l-120 -236h-78l33 162q-53 10 -88 52t-35 96q0 63 46 108t109 45q61 0 107.5 -45t46.5 -108z" glyph-name="quotedblbase" horiz-adv-x="731" unicode="„"/><glyph d="M688 1249v-184h-231v-524h-185v524h-231v184h231v205h185v-205h231z" glyph-name="dagger" horiz-adv-x="729" unicode="†"/><glyph d="M694 930v-185h-225v-204h-184v204h-238v185h238v135h-244v184h244v205h184v-205h219v-184h-219v-135h225z" glyph-name="daggerdbl" horiz-adv-x="735" unicode="‡"/><glyph d="M418 219q-125 0 -215 89t-90 210q0 125 90 214t215 89q123 0 212 -90t89 -213q0 -121 -90 -210t-211 -89z" glyph-name="bullet" horiz-adv-x="831" unicode="•"/><glyph d="M340 -31q-63 0 -109.5 45t-46.5 107q0 63 46 108t110 45q61 0 107.5 -45t46.5 -108q0 -61 -46.5 -106.5t-107.5 -45.5zM831 -31q-63 0 -109 45t-46 107q0 63 46 108t109 45q61 0 107.5 -45t46.5 -108q0 -61 -46.5 -106.5t-107.5 -45.5zM1323 -31q-63 0 -109.5 45 t-46.5 107q0 63 46.5 108t109.5 45q61 0 107.5 -45t46.5 -108q0 -61 -46.5 -106.5t-107.5 -45.5z" glyph-name="ellipsis" horiz-adv-x="1660" unicode="…"/><glyph d="M453 705q-150 -2 -240 105.5t-90 285.5t90 286.5t240 106.5q150 2 239.5 -106.5t89.5 -286.5t-89.5 -285.5t-239.5 -105.5zM1470 1454h267l-1108 -1454h-267zM303 1096q0 -98 40 -153.5t110 -57.5q70 2 108.5 57t38.5 154q0 190 -125 207q-8 2 -22.5 2t-22.5 -2 q-59 -8 -93 -62.5t-34 -144.5zM1647 752q150 2 239.5 -106.5t89.5 -287t-90 -286t-239 -105.5q-150 -2 -240 105.5t-90 286t90 287t240 106.5zM2388 752q150 2 240 -106.5t90 -287t-90.5 -286t-239.5 -105.5q-150 -2 -240 105.5t-90 286t90 287t240 106.5zM1647 147 q70 2 108.5 57.5t38.5 153.5q0 190 -125 207q-8 2 -22.5 2t-22.5 -2q-59 -8 -93 -62t-34 -145q0 -98 40 -153.5t110 -57.5zM2388 147q70 2 108.5 57.5t38.5 153.5q0 190 -125 207q-8 2 -22 2t-23 -2q-59 -8 -93 -62t-34 -145q0 -98 40 -153.5t110 -57.5z" glyph-name="perthousand" horiz-adv-x="2799" unicode="‰"/><glyph d="M287 1372l-99 -389h-147l6 389q2 74 46 114t100 36q51 -2 82.5 -39t11.5 -111z" glyph-name="minute" horiz-adv-x="425" unicode="′"/><glyph d="M707 983l-332 -491l332 -492h-283l-332 492l332 491h283z" glyph-name="guilsinglleft" horiz-adv-x="757" unicode="‹"/><glyph d="M334 983l332 -491l-332 -492h-283l332 492l-332 491h283z" glyph-name="guilsinglright" horiz-adv-x="757" unicode="›"/><glyph d="M539 1077l22 133l-100 101l137 20l61 123l62 -123l137 -20l-100 -101l26 -133l-125 64zM168 608l22 135l-98 99l137 20l62 123l63 -123l138 -20l-103 -99l25 -135l-123 64zM905 608l25 135l-99 99l138 20l59 123l62 -123l137 -20l-99 -99l23 -135l-123 64z" glyph-name="uni2042" horiz-adv-x="1318" unicode="⁂"/><glyph d="M-102 0h-267l1108 1454h267z" glyph-name="fraction" horiz-adv-x="636" unicode="⁄"/><glyph d="M1300 307l158 -196q-193 -154 -448 -154q-223 0 -403.5 125t-266.5 330h-207v250h148q-2 18 -2 53q0 12 1 35.5t1 35.5h-148v250h211q88 201 267.5 323t398.5 122q197 0 387 -105l-121 -221q-139 74 -266 74q-233 0 -377 -193h428l-68 -250h-458q-4 -45 -5 -71 q0 -35 2 -53h429l-62 -250h-274q68 -94 168 -148.5t217 -54.5q165 0 290 98z" glyph-name="Euro" horiz-adv-x="1509" unicode="€"/><glyph d="M1991 522q-197 0 -350.5 137.5t-153.5 339.5q0 209 151.5 347.5t352 138.5t350 -138.5t149.5 -347t-149 -343t-350 -134.5zM1069 453v1001h266v-1454h-266l-659 1001v-1001h-267v1454h267zM1991 1231q-111 0 -175.5 -67.5t-64.5 -166.5q0 -86 67.5 -156.5t172.5 -70.5 q106 0 170.5 70.5t64.5 156.5q0 100 -63 167t-172 67zM1591 236v208h799v-208h-799z" glyph-name="afii61352" horiz-adv-x="2633" unicode="№"/><glyph d="M549 1483q190 0 324.5 -135.5t134.5 -325.5q0 -195 -134.5 -330t-324.5 -135q-195 0 -331 135t-136 330q0 190 136 325.5t331 135.5zM549 668q147 0 250.5 102t103.5 251.5t-103.5 252t-250.5 102.5q-152 0 -255.5 -102.5t-103.5 -251.5q0 -152 101.5 -253t257.5 -101z M719 1118v-12v-19q-10 -131 -166 -120h-39v-158h-98v420h98h39q156 8 166 -111zM586 1057q25 2 26 30v5v12q-2 31 -59 31h-39v-78h72z" glyph-name="uni2117" horiz-adv-x="1228" unicode="℗"/><glyph d="M61 1335v119h416v-119h-149v-413h-113v413h-154zM997 1454h111v-532h-111v266l-116 -266h-119l-113 266v-266h-112v532h112l172 -397z" glyph-name="trademark" horiz-adv-x="1230" unicode="™"/><glyph d="M205 1210h-10h-138v172h101q45 0 47 41v31h174v-752h-174v508zM1284 1454h266l-1108 -1454h-266zM1726 391q43 -29 72 -78t29 -100q0 -92 -76 -162.5t-195 -70.5q-117 0 -192.5 68.5t-77.5 160.5q0 119 100 182q-84 61 -79 160q4 84 72.5 146.5t176.5 62.5 q106 0 174 -60.5t72 -142.5q10 -103 -76 -166zM1464 537q-2 -31 22.5 -52.5t69.5 -21.5q43 0 68 20.5t25 48.5q2 29 -22.5 48.5t-70 19.5t-69 -18t-23.5 -45zM1663 223q2 35 -26.5 61.5t-80 26.5t-80 -26.5t-26.5 -61.5q0 -37 27.5 -60.5t78.5 -23.5q49 0 77 24.5t30 59.5z " glyph-name="oneeighth" horiz-adv-x="1937" unicode="⅛"/><glyph d="M635 958q0 -113 -77 -190.5t-189 -77.5q-119 0 -196 81t-69 200h168q-6 -49 20.5 -80t76.5 -31q41 0 68.5 27.5t27.5 70.5q0 53 -33 82q-55 45 -137 2l-57 134l8 8l92 98h-207v172h471v-143l-108 -113q57 -27 94 -80q47 -70 47 -160zM1479 1454h266l-1108 -1454h-266z M1921 391q43 -29 71.5 -78t28.5 -100q0 -92 -75.5 -162.5t-194.5 -70.5q-117 0 -192.5 68.5t-77.5 160.5q0 119 100 182q-84 61 -80 160q4 84 72.5 146.5t177.5 62.5q106 0 174 -60.5t72 -142.5q10 -103 -76 -166zM1659 537q-2 -31 22.5 -52.5t69.5 -21.5q43 0 67.5 20.5 t24.5 48.5q2 29 -22.5 48.5t-69.5 19.5t-68.5 -18t-23.5 -45zM1857.5 223q2.5 35 -26.5 61.5t-80 26.5t-80 -26.5t-26 -61.5q0 -37 27.5 -60.5t78.5 -23.5q49 0 76.5 24.5t30 59.5z" glyph-name="threeeighths" horiz-adv-x="2131" unicode="⅜"/><glyph d="M104 985h172q-8 -49 22 -84t79 -35q43 0 73.5 29t32.5 70q2 57 -28.5 89.5t-85.5 32.5q-27 0 -53.5 -14t-32.5 -31l-156 41l92 371h410v-172h-277l-14 -49q25 6 53 6q117 0 189.5 -77t72.5 -197q0 -111 -80.5 -190t-195.5 -79q-121 0 -201 85t-72 204zM643 0h-266 l1108 1454h266zM1757 -20q-117 0 -192.5 68.5t-77.5 160.5q0 119 100 182q-84 61 -80 160q4 84 73 146.5t177 62.5q106 0 174 -60.5t72 -142.5q10 -102 -76 -166q43 -29 72 -78t29 -100q0 -92 -76 -162.5t-195 -70.5zM1757 463q43 0 67.5 20.5t24.5 48.5q2 29 -22.5 48.5 t-69.5 19.5t-68.5 -18.5t-23.5 -44.5q-2 -31 22.5 -52.5t69.5 -21.5zM1757 139q49 0 77 24.5t30 59.5t-27 61.5t-80 26.5t-79.5 -26.5t-26.5 -61.5q0 -37 27.5 -60.5t78.5 -23.5z" glyph-name="fiveeighths" horiz-adv-x="2138" unicode="⅝"/><glyph d="M659 1274q-266 -186 -260 -561v-13h-180v11q-6 348 207 563h-322v180h555v-180zM1503 1454h266l-1107 -1454h-267zM1946 391q43 -29 71.5 -78t28.5 -100q0 -92 -76 -162.5t-194 -70.5q-117 0 -193 68.5t-78 160.5q0 119 101 182q-84 61 -80 160q4 84 72.5 146.5 t177.5 62.5q106 0 173.5 -60.5t71.5 -142.5q11 -103 -75 -166zM1683 537q-2 -31 23 -52.5t70 -21.5q43 0 67.5 20.5t24.5 48.5q2 29 -22.5 48.5t-69.5 19.5t-69 -18t-24 -45zM1882 223q2 35 -26.5 61.5t-80 26.5t-80 -26.5t-26.5 -61.5q0 -37 27.5 -60.5t79.5 -23.5 q49 0 76.5 24.5t29.5 59.5z" glyph-name="seveneighths" horiz-adv-x="2156" unicode="⅞"/><glyph d="M1026 750q139 0 231.5 -92.5t92.5 -231.5v-104q0 -139 -92.5 -231.5t-231.5 -92.5h-403v147h403q78 0 127 49.5t49 127.5v104q0 78 -49 126t-127 48h-647v-209l-285 285l285 282v-208h647z" glyph-name="arrowleft" horiz-adv-x="1431" unicode="←"/><glyph d="M758 1268l284 -285h-208v-733q0 -139 -92.5 -231.5t-231.5 -92.5h-104q-139 0 -231.5 92.5t-92.5 231.5v403h147v-403q0 -78 49.5 -127t127.5 -49h104q78 0 127 49t49 127v733h-211z" glyph-name="arrowup" horiz-adv-x="1124" unicode="↑"/><glyph d="M1350 676l-285 -285v209h-647q-78 0 -127 -48t-49 -126v-104q0 -78 49 -127.5t127 -49.5h403v-147h-403q-139 0 -231.5 92t-92.5 232v104q0 139 92.5 231.5t231.5 92.5h647v208z" glyph-name="arrowright" horiz-adv-x="1431" unicode="→"/><glyph d="M719 1268q139 0 231 -92.5t92 -231.5v-403h-147v403q0 78 -49 127t-127 49h-105q-78 0 -127 -49t-49 -127v-733h211l-282 -285l-285 285h209v733q0 139 92 231.5t231 92.5h105z" glyph-name="arrowdown" horiz-adv-x="1124" unicode="↓"/><glyph d="M1192 850l358 -358l-358 -359l-117 115l162 162h-553h-289l162 -162l-117 -115l-358 359l358 358l117 -115l-162 -162h553h289l-162 162z" glyph-name="arrowboth" horiz-adv-x="1632" unicode="↔"/><glyph d="M522 297l162 164l115 -117l-359 -360l-358 360l115 117l161 -164v555v289l-161 -162l-115 117l358 358l359 -358l-115 -117l-162 162v-553v-291z" glyph-name="arrowupdn" horiz-adv-x="880" unicode="↕"/><glyph d="M336 834l694 -697l-104 -104l-697 694l-147 -147v403l401 -2z" glyph-name="uni2196" horiz-adv-x="1112" unicode="↖"/><glyph d="M557 983h508v-508h-164v230l-704 -705l-115 115l704 704h-229v164z" glyph-name="uni2197" horiz-adv-x="1146" unicode="↗"/><glyph d="M883 256l147 147v-403l-401 2l147 148l-694 696l104 104z" glyph-name="uni2198" horiz-adv-x="1112" unicode="↘"/><glyph d="M1065 868l-705 -704h230v-164h-508v508h164v-229l704 704z" glyph-name="uni2199" horiz-adv-x="1146" unicode="↙"/><glyph d="M539 1454q182 -57 315 -159.5t206 -231.5t101.5 -269.5t18.5 -287.5q-16 -211 -134 -353.5t-276 -176t-313.5 -2t-263 164.5t-107.5 328q0 186 81 320.5t199.5 188.5t253 49t238.5 -75q-119 184 -414 289zM328 481q6 -115 70.5 -189.5t153.5 -89t176 8t147.5 103.5 t60.5 194q0 209 -157.5 292t-310 -11.5t-140.5 -307.5z" glyph-name="partialdiff" horiz-adv-x="1275" unicode="∂"/><glyph d="M1655 1303l-168 -154q113 -182 100 -426q-18 -334 -217 -548t-506 -214q-279 0 -479 189l-164 -150l-139 152l174 157q-113 186 -113 414q0 324 206 542t513 218q289 0 492 -176l164 147zM442 723q0 -117 37 -211l656 594q-111 92 -273 92q-188 0 -304 -131t-116 -344z M1288 723q0 121 -37 213l-653 -594q109 -96 266 -96q197 0 310.5 130t113.5 347z" glyph-name="emptyset" horiz-adv-x="1736" unicode="∅"/><glyph d="M885 1454l471 -1188v-266h-1233v266l471 1188h291zM739 1075l-325 -809h651z" glyph-name="uni2206" horiz-adv-x="1478" unicode="∆"/><glyph d="M1270 983v-270h-189v-326q0 -172 189 -160v-254q-186 -37 -322.5 72t-136.5 299v369h-281v-746h-270v746h-178v270h448h549h191z" glyph-name="product" horiz-adv-x="1351" unicode="∏"/><glyph d="M102 0v246l441 375l-441 362v246h770v-246h-417l419 -362l-423 -375h421v-246h-770z" glyph-name="summation" horiz-adv-x="976" unicode="∑"/><glyph d="M82 584h690v-228h-690v228z" glyph-name="minus" horiz-adv-x="854" unicode="−"/><glyph d="M940 1454h483v-246h-327l-482 -1208h-245l-369 983h246l248 -664z" glyph-name="radical" horiz-adv-x="1423" unicode="√"/><glyph d="M1724 573v-8q-6 -176 -124.5 -291.5t-296.5 -115.5q-190 0 -340 172l-54 59q-6 -8 -15 -17.5t-15.5 -15.5t-8.5 -10q-164 -188 -366 -188q-174 0 -295 117.5t-127 289.5v8v7q6 172 127 289.5t295 117.5q203 0 366 -188q2 -4 8.5 -10.5l15.5 -15.5t15 -17l54 59 q150 172 340 172q178 0 296.5 -115.5t124.5 -291.5v-7zM686 510l55 63l-55 62q-88 106 -182 106q-72 0 -122 -48t-54 -120q4 -72 54 -121t122 -49q94 1 182 107zM1303 403q78 0 125 46.5t51 123.5q-4 78 -51.5 123t-124.5 45q-84 0 -160 -94l-70 -74q51 -57 70 -75 q76 -95 160 -95z" glyph-name="infinity" horiz-adv-x="1806" unicode="∞"/><glyph d="M598 1483h139v-246h-119q-115 0 -114 -137v-385v-357q0 -172 -101.5 -277.5t-263.5 -105.5h-139v246h119q115 0 114 137v385v357q0 172 101.5 277.5t263.5 105.5z" glyph-name="integral" horiz-adv-x="737" unicode="∫"/><glyph d="M754 891h147q0 -102 -68.5 -170t-173.5 -68q-88 0 -210 92q-86 61 -136 62q-70 0 -84 -62h-147q0 102 68.5 170t173.5 68q90 0 211 -90q88 -63 135 -64q72 1 84 62zM754 522h147q0 -102 -68.5 -169.5t-173.5 -67.5q-88 0 -210 92q-86 61 -136 61q-70 0 -84 -61h-147 q0 102 68.5 169.5t173.5 67.5q90 0 211 -90q88 -63 135 -63q72 0 84 61z" glyph-name="approxequal" horiz-adv-x="983" unicode="≈"/><glyph d="M1090 612h-306l-135 -247h441v-228h-564l-108 -198h-252l108 198h-161v228h284l135 247h-419v228h544l123 225h252l-123 -225h181v-228z" glyph-name="notequal" horiz-adv-x="1202" unicode="≠"/><glyph d="M1004 1270v-295l-494 -160l494 -162v-295l-932 314v284zM72 0v295h932v-295h-932z" glyph-name="lessequal" horiz-adv-x="1085" unicode="≤"/><glyph d="M152 1270l931 -314v-284l-931 -314v295l493 162l-493 160v295zM152 0v295h931v-295h-931z" glyph-name="greaterequal" horiz-adv-x="1228" unicode="≥"/><glyph d="M102 1454h1454v-1454h-1454v1454z" glyph-name="filledbox" horiz-adv-x="1658" unicode="■"/><glyph d="M102 1454h1454v-1454h-1454v1454zM332 1225v-996h995v996h-995z" glyph-name="H22073" horiz-adv-x="1658" unicode="□"/><glyph d="M1835 0h-1733l867 1454z" glyph-name="triagup" horiz-adv-x="1937" unicode="▲"/><glyph d="M1825 8h-1733l869 1454zM1473 203l-515 860l-514 -860h1029z" glyph-name="uni25B3" horiz-adv-x="1916" unicode="△"/><glyph d="M809 1454l408 -727l-408 -727h-299l-408 727l408 727h299zM659 279l240 448l-240 449l-239 -449z" glyph-name="lozenge" horiz-adv-x="1318" unicode="◊"/><glyph d="M895 -111q-328 0 -560.5 232.5t-232.5 560.5t232.5 560.5t560.5 232.5q326 0 559.5 -232.5t233.5 -560.5t-232.5 -560.5t-560.5 -232.5zM895 94q244 0 416 172t172 416q0 242 -173 415t-415 173q-244 0 -416 -172t-172 -416t172 -416t416 -172z" glyph-name="circle" horiz-adv-x="1789" unicode="○"/><glyph d="M895 -111q-328 0 -560.5 232.5t-232.5 560.5t232.5 560.5t560.5 232.5q326 0 559.5 -232.5t233.5 -560.5t-232.5 -560.5t-560.5 -232.5z" glyph-name="H18533" horiz-adv-x="1789" unicode="●"/><glyph d="M895 1475q326 0 559.5 -232.5t233.5 -560.5t-232.5 -560.5t-560.5 -232.5t-560.5 232.5t-232.5 560.5t232.5 560.5t560.5 232.5zM803 1262q-211 -33 -353.5 -197t-142.5 -383q0 -115 45 -223l451 317v486zM1483 682q0 217 -142.5 381t-353.5 199v-486l451 -317 q45 108 45 223zM449 301q141 -168 354 -199v449zM987 102q213 31 354 199l-354 250v-449z" glyph-name="uni262E" horiz-adv-x="1789" unicode="☮"/><glyph d="M903 -113q-336 0 -568.5 231.5t-232.5 565.5q0 326 233.5 557.5t567.5 231.5q326 0 555.5 -231.5t229.5 -557.5q0 -334 -229.5 -565.5t-555.5 -231.5zM903 78q254 0 430 175t176 431t-176 432t-430 176q-260 0 -437 -175t-177 -433q0 -262 174 -434t440 -172zM662 739 q-51 0 -89 39t-38 88t37.5 88t89.5 39q49 0 85.5 -39t36.5 -88t-36.5 -88t-85.5 -39zM1155 733q-53 0 -90 38t-37 89t37 89t90 38q51 0 87 -38t36 -89t-36 -89t-87 -38zM557 618h164q-10 -82 44 -143t138 -61t138.5 60.5t48.5 143.5h161q6 -150 -96 -258t-251.5 -108 t-252 108t-94.5 258z" glyph-name="smileface" horiz-adv-x="1789" unicode="☺"/><glyph d="M1282 1231l154 -164l-885 -817l-459 444l158 160l305 -295z" glyph-name="uni2713" horiz-adv-x="1527" unicode="✓"/><glyph d="M895 1475q326 0 559.5 -232.5t233.5 -560.5t-232.5 -560.5t-560.5 -232.5t-560.5 232.5t-232.5 560.5t232.5 560.5t560.5 232.5zM895 94q244 0 416 172t172 416q0 242 -173 415t-415 173q-244 0 -416 -172t-172 -416t172 -416t416 -172zM842 1014v30h174v-751h-174v508 h-11h-137v172h101q45 0 47 41z" glyph-name="uni2780" horiz-adv-x="1789" unicode="➀"/><glyph d="M895 1475q326 0 559.5 -232.5t233.5 -560.5t-232.5 -560.5t-560.5 -232.5t-560.5 232.5t-232.5 560.5t232.5 560.5t560.5 232.5zM895 94q244 0 416 172t172 416q0 242 -173 415t-415 173q-244 0 -416 -172t-172 -416t172 -416t416 -172zM1184 831q4 -51 -4.5 -90 t-41 -75.5t-52 -54t-84 -62.5t-91.5 -64l256 2v-170l-536 -2q-4 96 23.5 154.5t101.5 110.5q37 25 90 62.5t85 60t38 24.5q33 27 41 55q6 23 2 45v4q-6 37 -38 56.5t-77 13.5q-82 -16 -70 -108h-172q-8 115 60.5 192.5t181.5 87.5h21h24q100 -8 167 -75t75 -167z" glyph-name="uni2781" horiz-adv-x="1789" unicode="➁"/><glyph d="M895 1475q326 0 559.5 -232.5t233.5 -560.5t-232.5 -560.5t-560.5 -232.5t-560.5 232.5t-232.5 560.5t232.5 560.5t560.5 232.5zM895 94q244 0 416 172t172 416q0 242 -173 415t-415 173q-244 0 -416 -172t-172 -416t172 -416t416 -172zM1024 778q57 -27 94 -80 q47 -70 47 -159q0 -113 -76.5 -191t-189.5 -78q-119 0 -195.5 81t-68.5 200h168q-6 -49 20.5 -80t75.5 -31q41 0 68.5 28t27.5 71q0 53 -32 82q-55 45 -138 2l-57 133l8 8l92 98h-206v172h471v-143z" glyph-name="uni2782" horiz-adv-x="1789" unicode="➂"/><glyph d="M895 1475q326 0 559.5 -232.5t233.5 -560.5t-232.5 -560.5t-560.5 -232.5t-560.5 232.5t-232.5 560.5t232.5 560.5t560.5 232.5zM895 94q244 0 416 172t172 416q0 242 -173 415t-415 173q-244 0 -416 -172t-172 -416t172 -416t416 -172zM1069 1071v-453h90v-169h-90v-132 h-172v132l-342 2v170l342 450h172zM764 621l133 -3v179z" glyph-name="uni2783" horiz-adv-x="1789" unicode="➃"/><glyph d="M895 -111q-328 0 -560.5 232.5t-232.5 560.5t232.5 560.5t560.5 232.5q326 0 559.5 -232.5t233.5 -560.5t-232.5 -560.5t-560.5 -232.5zM895 94q244 0 416 172t172 416q0 242 -173 415t-415 173q-244 0 -416 -172t-172 -416t172 -416t416 -172zM608 575h172 q-8 -49 21.5 -83.5t79.5 -34.5q43 0 73.5 28.5t32.5 69.5q2 57 -28.5 90t-86.5 33q-27 0 -53 -14.5t-33 -30.5l-155 41l92 370h410v-172h-277l-14 -49q25 6 53 6q117 0 189.5 -76.5t72.5 -197.5q0 -111 -81 -189.5t-195 -78.5q-121 0 -201 84.5t-72 203.5z" glyph-name="uni2784" horiz-adv-x="1789" unicode="➄"/><glyph d="M895 -111q-328 0 -560.5 232.5t-232.5 560.5t232.5 560.5t560.5 232.5q326 0 559.5 -232.5t233.5 -560.5t-232.5 -560.5t-560.5 -232.5zM895 94q244 0 416 172t172 416q0 242 -173 415t-415 173q-244 0 -416 -172t-172 -416t172 -416t416 -172zM616 864q35 82 105 136.5 t160 56.5q178 0 268 -137l-125 -80q-47 66 -133 59q-45 -4 -87 -36t-56 -87q49 61 131 68q123 8 195.5 -73t72.5 -196q0 -113 -75 -197.5t-204 -84.5q-96 0 -164.5 54t-98.5 138t-28 185.5t39 193.5zM762 580q-4 -59 23.5 -96.5t76.5 -37.5q55 0 88 40t27 104 q-8 41 -39 67.5t-70 26.5q-41 0 -71.5 -29.5t-34.5 -74.5z" glyph-name="uni2785" horiz-adv-x="1789" unicode="➅"/><glyph d="M895 1475q326 0 559.5 -232.5t233.5 -560.5t-232.5 -560.5t-560.5 -232.5t-560.5 232.5t-232.5 560.5t232.5 560.5t560.5 232.5zM895 94q244 0 416 172t172 416q0 242 -173 415t-415 173q-244 0 -416 -172t-172 -416t172 -416t416 -172zM614 864v180h555v-180 q-266 -186 -260 -561v-12h-180v10q-6 348 207 563h-322z" glyph-name="uni2786" horiz-adv-x="1789" unicode="➆"/><glyph d="M895 -111q-328 0 -560.5 232.5t-232.5 560.5t232.5 560.5t560.5 232.5q326 0 559.5 -232.5t233.5 -560.5t-232.5 -560.5t-560.5 -232.5zM895 94q244 0 416 172t172 416q0 242 -173 415t-415 173q-244 0 -416 -172t-172 -416t172 -416t416 -172zM887 293 q-117 0 -191.5 68.5t-77.5 160.5q0 113 101 178q-74 57 -80 140q-4 88 65.5 157.5t182.5 69.5q111 0 180.5 -66.5t67.5 -152.5q-4 -88 -80 -148q43 -29 70.5 -75.5t27.5 -98.5q0 -94 -73.5 -163.5t-192.5 -69.5zM887 774q43 0 67.5 21.5t22.5 50.5q0 27 -24.5 46t-65.5 19 q-43 0 -66.5 -20.5t-25.5 -46.5q0 -29 24.5 -49.5t67.5 -20.5zM887 451q47 0 74.5 24.5t29.5 59.5q0 35 -27.5 60.5t-76.5 25.5q-51 0 -79 -27t-26 -62q2 -33 30 -57t75 -24z" glyph-name="uni2787" horiz-adv-x="1789" unicode="➇"/><glyph d="M895 -111q-328 0 -560.5 232.5t-232.5 560.5t232.5 560.5t560.5 232.5q326 0 559.5 -232.5t233.5 -560.5t-232.5 -560.5t-560.5 -232.5zM895 94q244 0 416 172t172 416q0 242 -173 415t-415 173q-244 0 -416 -172t-172 -416t172 -416t416 -172zM618 784q8 115 82 190 t184.5 77t188.5 -65.5t96 -182.5q35 -219 -38.5 -369.5t-249.5 -150.5q-168 0 -256 143l133 78q43 -66 127 -58q111 12 137 129q-43 -59 -135 -67q-104 -6 -189.5 66.5t-79.5 209.5zM780 776q0 -57 32 -89t75 -34q49 -2 83 30t34 89q-2 53 -31 88t-78 37q-45 0 -79 -32 t-36 -89z" glyph-name="uni2788" horiz-adv-x="1789" unicode="➈"/><glyph d="M225.5 1122q-69.5 0 -118 49.5t-48.5 119t49.5 118.5t116.5 49q70 0 119 -50t49 -118q0 -70 -49 -119t-118.5 -49zM113 983h266v-983h-266v983z" glyph-name="i.locl" horiz-adv-x="491"/><glyph d="M1401 729q0 -342 -174 -547t-471 -207h-4h-4q-295 4 -470.5 208t-175.5 546t175.5 547t470.5 207h4h4q297 -2 471 -207t174 -547zM752 256q160 2 257 124t97 349t-97.5 348t-256.5 123q-160 -2 -258.5 -123t-98.5 -348t98.5 -349t258.5 -124z" glyph-name="zero.tnum" horiz-adv-x="1503"/><glyph d="M565 272h238v-272h-510h-238v272h238v805q-35 -10 -68 -10h-153v270h141q80 0 80 105v43h272v-1213z" glyph-name="one.tnum" horiz-adv-x="870"/><glyph d="M944 571q-18 -14 -71.5 -51t-114 -80t-117.5 -83t-93 -65.5t-32 -23.5l602 2v-266l-1026 -4q0 162 49 268.5t191 204.5q453 303 454 318q94 80 99 188q-4 106 -65.5 173t-170.5 69q-113 -2 -175 -63.5t-62 -168.5h-269q0 217 139.5 356.5t362.5 141.5h4h4 q215 -2 354.5 -144.5t145.5 -355.5v-8v-8q-10 -236 -209 -400z" glyph-name="two.tnum" horiz-adv-x="1255"/><glyph d="M786 948q154 -51 247 -176t93 -291q0 -217 -150.5 -361.5t-365.5 -144.5q-223 0 -368.5 144.5t-145.5 351.5h269q4 -98 69.5 -163.5t175.5 -65.5q102 0 174 67.5t72 171.5q0 111 -69.5 183.5t-180.5 72.5q-61 0 -127 -26l-96 213l256 260l-483 2v268h901v-233z" glyph-name="three.tnum" horiz-adv-x="1228"/><glyph d="M1245 532v-266h-186v-266h-266v266l-701 2v267l701 919h266v-922h186zM418 535l375 -3v500z" glyph-name="four.tnum" horiz-adv-x="1296"/><glyph d="M643 1012q229 0 365.5 -149.5t136.5 -379.5q0 -211 -155.5 -359.5t-377.5 -148.5q-217 0 -368.5 149.5t-151.5 364.5h268q0 -102 73 -172.5t179 -70.5q109 0 185.5 68.5t79.5 168.5q6 137 -71 217t-208 80q-74 0 -137.5 -36.5t-79.5 -86.5l-244 64l182 733h777v-270h-568 l-59 -215q80 43 174 43z" glyph-name="five.tnum" horiz-adv-x="1236"/><glyph d="M389 899q88 109 234.5 139.5t283.5 -14.5t235.5 -178t94.5 -322q-4 -248 -165 -399.5t-372 -149.5q-197 2 -332 112t-194 290t-47 411q12 270 129 441q166 252 467 254q154 2 289 -58.5t219 -189.5l-227 -135q-84 94 -212 111.5t-239 -54.5q-127 -86 -164 -258zM690 223 q115 -2 197 76t84 229q0 78 -31 139.5t-78 93.5t-104.5 47t-114.5 0t-106.5 -47t-81 -94.5t-35.5 -144.5q0 -145 78.5 -221t191.5 -78z" glyph-name="six.tnum" horiz-adv-x="1331"/><glyph d="M31 1454h1022v-274q-516 -391 -516 -1180h-277q0 743 453 1180h-682v274z" glyph-name="seven.tnum" horiz-adv-x="1083"/><glyph d="M111 391q0 184 137 307q55 45 104 68q-57 31 -104 82q-96 111 -92 254q0 178 147 289q127 92 313 92q178 0 299 -80q166 -111 166 -307q0 -137 -94 -248q-47 -51 -104 -82q39 -20 69 -41q178 -127 172 -340q-6 -166 -135 -283q-141 -127 -373 -127q-229 0 -370 127 q-131 119 -135 289zM387 1073q-2 -86 63.5 -140t165.5 -54q115 0 181 65q55 55 49 133q-6 82 -84 129q-57 37 -146 37q-106 0 -172 -55q-53 -52 -57 -115zM356 428q0 -61 47 -119q76 -86 213 -86q121 0 193 66q74 63 70 151q-6 86 -70 140q-72 66 -193 65q-133 0 -204 -76 q-56 -55 -56 -141z" glyph-name="eight.tnum" horiz-adv-x="1236"/><glyph d="M1192 1092q76 -213 50.5 -452t-144.5 -415q-115 -166 -304.5 -226t-375 0t-289.5 222l227 135q106 -119 269 -114.5t256 125.5q47 59 77 145q-121 -129 -319 -129q-213 0 -378 149.5t-161 399.5q6 246 176 401.5t383 155.5q195 0 332.5 -107.5t200.5 -289.5zM647 639 q119 -2 205 76t88 219q-2 137 -82 213t-190 78q-117 2 -208 -77t-93 -220q2 -133 84.5 -209t195.5 -80z" glyph-name="nine.tnum" horiz-adv-x="1372"/><glyph d="M430 752q147 2 236.5 -104.5t89.5 -285.5q0 -176 -89 -281.5t-237 -103.5q-147 -2 -236.5 103.5t-89.5 282t89.5 284t236.5 105.5zM430 156q145 4 145 206q0 188 -122 205q-8 2 -22.5 2t-22.5 -2q-59 -8 -92 -62t-33 -143q0 -96 39.5 -150t107.5 -56z" glyph-name="zero.dnom" horiz-adv-x="860"/><glyph d="M225 752h174v-752h-174v520q-18 -12 -39 -12h-108v172h100q45 0 47 41v31z" glyph-name="one.dnom" horiz-adv-x="565"/><glyph d="M662 518q4 -43 -5.5 -80t-21.5 -61.5t-44 -55t-54.5 -47t-72.5 -51.5t-77 -55l256 2v-170l-537 -2q-4 96 24 154.5t101 109.5q39 27 90.5 65t85 62.5t37.5 26.5q33 27 41 55q14 57 -19.5 92t-92.5 27q-82 -16 -70 -109h-172q-8 125 81 206t220 73q100 -6 160.5 -72.5 t66.5 -169.5h3z" glyph-name="two.dnom" horiz-adv-x="768"/><glyph d="M494 494q68 -33 108.5 -95.5t40.5 -140.5q0 -115 -79 -193.5t-193 -78.5q-119 0 -197 82t-70 202h170q-6 -51 21 -81.5t76 -30.5q43 0 70.5 27.5t27.5 72.5q0 68 -54.5 93.5t-117.5 -11.5l-55 133v2l100 107h-211v172h477v-146z" glyph-name="three.dnom" horiz-adv-x="747"/><glyph d="M725 289v-176h-94v-133h-174v133l-353 2v176l353 463h174v-465h94zM317 291l140 -2v186z" glyph-name="four.dnom" horiz-adv-x="829"/><glyph d="M104 274h175q-8 -51 21.5 -85.5t80.5 -34.5q45 0 75.5 28.5t32.5 71.5q2 57 -28.5 91t-87.5 34q-27 0 -54.5 -14.5t-33.5 -30.5l-160 41l94 379h420v-176h-283l-14 -50q29 6 53 7q119 0 194 -78t75 -203q0 -115 -82 -194.5t-201 -79.5q-123 0 -204 85.5t-73 208.5z" glyph-name="five.dnom" horiz-adv-x="747"/><glyph d="M143 563q37 84 108 139.5t163 57.5q182 0 274 -139l-127 -82q-51 68 -137 61q-47 -4 -89 -37t-59 -90q51 63 136 70q127 8 200.5 -75t73.5 -200q0 -115 -77 -201.5t-208 -86.5q-98 0 -168.5 55t-100.5 141t-28 189.5t39 197.5zM287 266q-4 -59 23.5 -96t76.5 -37 q55 0 88 40t27 103q-8 41 -39 68t-70 27q-41 0 -71.5 -30t-34.5 -75z" glyph-name="six.dnom" horiz-adv-x="792"/><glyph d="M104 754h555v-181q-266 -186 -260 -561v-12h-180v10q-6 348 207 563h-322v181z" glyph-name="seven.dnom" horiz-adv-x="763"/><glyph d="M375 -20q-117 0 -193 68.5t-78 160.5q0 119 101 182q-84 61 -80 160q4 84 72.5 146.5t177.5 62.5q106 0 173.5 -60.5t72.5 -142.5q10 -102 -76 -166q43 -29 71.5 -78t28.5 -100q0 -92 -75.5 -162.5t-194.5 -70.5zM375 463q43 0 67.5 20.5t24.5 48.5q2 29 -22.5 48.5 t-69.5 19.5t-68.5 -18.5t-23.5 -44.5q-2 -31 22.5 -52.5t69.5 -21.5zM375 139q49 0 76.5 24.5t29.5 59.5t-26.5 61.5t-79.5 26.5t-80 -26.5t-27 -61.5q0 -37 28 -60.5t79 -23.5z" glyph-name="eight.dnom" horiz-adv-x="755"/><glyph d="M106 489q8 117 83 193t188 78q113 4 192.5 -65.5t98.5 -186.5q37 -219 -36 -373.5t-253 -159.5q-174 0 -268 146l135 82q51 -70 131 -64q49 4 88 37t51 98q-43 -59 -137 -67q-106 -6 -193.5 68.5t-79.5 213.5zM270 481q0 -59 32 -92t77 -35q51 -2 85 31t34 92 q-2 53 -31 89t-80 38q-45 0 -80 -33t-37 -90z" glyph-name="nine.dnom" horiz-adv-x="786"/><glyph d="M434 1489q150 2 240 -106.5t90 -286.5t-90 -286t-240 -105q-150 -2 -240 105.5t-90 285.5t90 286.5t240 106.5zM434 885q70 2 109 57t39 154q0 190 -125 207q-8 2 -22.5 2t-22.5 -2q-59 -8 -93 -62.5t-34 -144.5q0 -98 39.5 -153.5t109.5 -57.5z" glyph-name="zero.numr" horiz-adv-x="868"/><glyph d="M205 1454h174v-752h-174v508h-10h-138v172h101q45 0 47 41v31z" glyph-name="one.numr" horiz-adv-x="544"/><glyph d="M594 1223q4 -43 -5 -80t-20.5 -61.5t-44 -56.5t-53 -47t-73 -52t-76.5 -56l256 2v-170l-537 -2q-4 96 23.5 154.5t101.5 110.5q39 27 90 64.5t85 62t38 26.5q33 27 41 56q14 57 -19.5 91.5t-93.5 26.5q-82 -16 -69 -108h-172q-8 125 81 205.5t220 72.5q98 -6 159.5 -71.5 t67.5 -167.5z" glyph-name="two.numr" horiz-adv-x="636"/><glyph d="M588 1118q47 -70 47 -160q0 -113 -77 -190.5t-189 -77.5q-119 0 -196 81t-69 200h168q-6 -49 20.5 -80t76.5 -31q41 0 68.5 27.5t27.5 70.5q0 53 -33 82q-55 45 -137 2l-57 134l8 8l92 98h-207v172h471v-143l-108 -113q57 -27 94 -80z" glyph-name="three.numr" horiz-adv-x="739"/><glyph d="M709 1001v-170h-91v-131h-172v131l-342 3v170l342 450h172v-453h91zM313 1004l133 -3v179z" glyph-name="four.numr" horiz-adv-x="792"/><glyph d="M104 985h172q-8 -49 22 -84t79 -35q43 0 73.5 29t32.5 70q2 57 -28.5 89.5t-85.5 32.5q-27 0 -53.5 -14t-32.5 -31l-156 41l92 371h410v-172h-277l-14 -49q25 6 53 6q117 0 189.5 -77t72.5 -197q0 -111 -80.5 -190t-195.5 -79q-121 0 -201 85t-72 204z" glyph-name="five.numr" horiz-adv-x="745"/><glyph d="M143 1268q35 82 104.5 136t160.5 56q178 0 268 -137l-125 -80q-47 66 -133 60q-45 -4 -87 -36t-57 -87q49 61 132 67q123 8 195.5 -72.5t72.5 -195.5q0 -113 -75 -198t-204 -85q-96 0 -164.5 54.5t-98.5 138.5t-28 185.5t39 193.5zM289 983q-4 -59 23.5 -96t76.5 -37 q55 0 88 40t27 103q-8 41 -39 67.5t-70 26.5q-41 0 -71.5 -29.5t-34.5 -74.5z" glyph-name="six.numr" horiz-adv-x="780"/><glyph d="M104 1454h555v-180q-266 -186 -260 -561v-13h-180v11q-6 348 207 563h-322v180z" glyph-name="seven.numr" horiz-adv-x="763"/><glyph d="M373 690q-117 0 -192 68.5t-77 161.5q0 113 101 178q-74 57 -80 139q-4 88 65.5 157.5t182.5 69.5q111 0 180.5 -66.5t67.5 -152.5q-4 -88 -80 -147q43 -29 70.5 -76t27.5 -98q0 -94 -73.5 -164t-192.5 -70zM373 1171q43 0 67.5 21.5t22.5 50.5q0 27 -24.5 46.5 t-65.5 19.5q-43 0 -66.5 -20.5t-25.5 -47.5q0 -29 24.5 -49.5t67.5 -20.5zM373 848q47 0 74.5 24.5t29.5 59.5q0 35 -27.5 60.5t-76.5 25.5q-51 0 -79 -26.5t-26 -61.5q2 -33 30 -57.5t75 -24.5z" glyph-name="eight.numr" horiz-adv-x="749"/><glyph d="M104 1194q8 115 82 189.5t184.5 76.5t188.5 -65.5t96 -182.5q35 -219 -38.5 -369.5t-249.5 -150.5q-168 0 -256 144l133 77q43 -66 127 -57q111 12 137 129q-43 -59 -135 -67q-104 -6 -189.5 66.5t-79.5 209.5zM266 1186q0 -57 32 -89t75 -34q49 -2 82.5 29.5t33.5 89.5 q-2 53 -30.5 88t-77.5 37q-45 0 -79 -32t-36 -89z" glyph-name="nine.numr" horiz-adv-x="772"/><glyph d="M549 1483q190 0 324.5 -135.5t134.5 -325.5q0 -195 -134.5 -330t-324.5 -135q-195 0 -331 135t-136 330q0 190 136 325.5t331 135.5zM549 668q147 0 250.5 102t103.5 251.5t-103.5 252t-250.5 102.5q-152 0 -255.5 -102.5t-103.5 -251.5q0 -152 101.5 -253t257.5 -101z M709 1090q-6 -72 -64 -105l76 -174h-113l-69 158h-35v-158h-98v420h98h39q156 8 166 -111v-12v-18zM504 1137v-78h71q25 2 27 31v4v12q-4 31 -59 31h-39z" glyph-name="registered.aalt" horiz-adv-x="1089"/><glyph d="M268 1579h-227l192 381h242z" glyph-name="glyph437" horiz-adv-x="272"/></font>
</defs>
</svg>
