<?xml version="1.0" encoding="utf-8"?>
<!-- Generator: Adobe Illustrator 22.1.0, SVG Export Plug-In . SVG Version: 6.00 Build 0)  -->
<svg version="1.1" id="Layer_1" xmlns="http://www.w3.org/2000/svg" xmlns:xlink="http://www.w3.org/1999/xlink" x="0px" y="0px"
   viewBox="0 0 838.9 168" style="enable-background:new 0 0 838.9 168;" xml:space="preserve">
<g>
  <circle cx="84" cy="84.7" r="18"/>
  <path d="M104.6,106c-0.8-0.8-1.8-1.2-2.9-1.2c-0.8,0-1.6,0.2-2.3,0.7c-4.4,3.2-9.6,4.8-15.1,4.8c-14.3,0-26-11.7-26-26
    s11.7-26,26-26c5.3,0,10.3,1.6,14.6,4.5c0.7,0.5,1.5,0.7,2.3,0.7c1,0,2.1-0.4,2.9-1.2l35.3-35.8c0.8-0.8,1.2-1.9,1.1-3
    c0-1.1-0.5-2.1-1.4-2.9C123.9,7.3,104.3,0,84,0C37.7,0,0,37.7,0,84s37.7,84,84,84c20.3,0,39.8-7.3,55.1-20.7
    c0.8-0.7,1.3-1.8,1.4-2.9c0-1.1-0.4-2.2-1.1-3L104.6,106z M103.6,143c-6.3,2.1-12.9,3.2-19.6,3.2c-33.9,0-61.5-27.6-61.5-61.5
    S50.1,23.1,84,23.1c6.7,0,13.3,1.1,19.6,3.2c2.6,0.9,4,3.7,3.2,6.3c-0.9,2.6-3.7,4-6.3,3.2C95.1,34,89.6,33.1,84,33.1
    c-28.4,0-51.5,23.1-51.5,51.5s23.1,51.5,51.5,51.5c5.6,0,11.1-0.9,16.4-2.7c2.6-0.9,5.5,0.5,6.3,3.2
    C107.6,139.3,106.2,142.1,103.6,143z"/>
</g>
<g>
  <path d="M181.2,84.4c0-24.7,18.4-43.7,43.7-43.7c15.2,0,28.7,7.6,36,19.4l-16.6,9.6c-3.7-6.5-10.9-10.3-19.4-10.3
    c-14.9,0-24.5,10-24.5,25c0,15,9.6,25,24.5,25c8.5,0,15.8-3.8,19.4-10.3l16.6,9.6c-7.2,11.9-20.6,19.4-36,19.4
    C199.6,128.1,181.2,109.2,181.2,84.4z"/>
  <path d="M307.7,65.2v20.4c-7.4-1.2-18,1.8-18,13.7v27.1h-18v-60h18v10.7C292.1,69.1,300.1,65.2,307.7,65.2z"/>
  <path d="M315.5,50.4c0-5.9,4.9-10.8,10.8-10.8c5.9,0,10.8,4.9,10.8,10.8s-4.9,10.8-10.8,10.8C320.4,61.2,315.5,56.2,315.5,50.4z
     M317.3,66.4h18v60h-18V66.4z"/>
  <path d="M414.3,96.4c0,17.9-13,31.7-28.7,31.7c-8,0-13.9-2.8-17.9-7.3v29.6h-18v-84h18v5.6c4-4.6,9.8-7.3,17.9-7.3
    C401.3,64.8,414.3,78.6,414.3,96.4z M396.3,96.4c0-9-6-14.6-14.3-14.6s-14.3,5.6-14.3,14.6s6,14.6,14.3,14.6
    S396.3,105.4,396.3,96.4z"/>
  <path d="M455.1,50.4c0-5.9,4.9-10.8,10.8-10.8c5.9,0,10.8,4.9,10.8,10.8s-4.9,10.8-10.8,10.8C460,61.2,455.1,56.2,455.1,50.4z
     M456.9,66.4h18v60h-18V66.4z"/>
  <path d="M546.9,89.6v36.8h-18V92.2c0-7.4-4.7-10.9-10.4-10.9c-6.6,0-11.2,3.8-11.2,12.4v32.8h-18v-60h18v5.6
    c3.2-4.4,9.2-7.3,17.2-7.3C536.5,64.8,546.9,73.4,546.9,89.6z"/>
  <path d="M648.6,60.9H627v65.5h-19.2V60.9h-21.6V42.4h62.4V60.9z"/>
  <path d="M677.3,112c4.9,0,9.1-1.9,11.5-4.6l14.4,8.3c-5.9,8.2-14.8,12.4-26.2,12.4c-20.5,0-33.2-13.8-33.2-31.7
    c0-17.9,13-31.7,31.9-31.7c17.5,0,30.5,13.6,30.5,31.7c0,2.5-0.2,4.9-0.7,7.2h-42.6C665.2,109.9,670.7,112,677.3,112z M688.3,90.2
    c-1.9-7-7.3-9.5-12.7-9.5c-6.8,0-11.4,3.4-13.1,9.5H688.3z"/>
  <path d="M714,96.4c0-17.9,13.6-31.7,31.8-31.7c11.6,0,22,6.1,27.1,15.4l-15.7,9.1c-2-4.2-6.4-6.7-11.6-6.7
    c-7.8,0-13.6,5.6-13.6,13.9c0,8.3,5.8,13.9,13.6,13.9c5.3,0,9.7-2.5,11.6-6.7l15.7,9c-5.2,9.4-15.4,15.5-27.1,15.5
    C727.6,128.1,714,114.3,714,96.4z"/>
  <path d="M838.9,89.6v36.8h-18V92.2c0-7.4-4.7-10.9-10.4-10.9c-6.6,0-11.2,3.8-11.2,12.4v32.8h-18v-84h18v29.6
    c3.2-4.4,9.2-7.3,17.2-7.3C828.6,64.8,838.9,73.4,838.9,89.6z"/>
</g>
</svg>
