<?xml version="1.0" encoding="utf-8"?>
<!-- Generator: Adobe Illustrator 22.1.0, SVG Export Plug-In . SVG Version: 6.00 Build 0)  -->
<svg version="1.1" id="Layer_1" xmlns="http://www.w3.org/2000/svg" xmlns:xlink="http://www.w3.org/1999/xlink" x="0px" y="0px"
	 viewBox="0 0 210 235" style="enable-background:new 0 0 210 235;" xml:space="preserve">
<style type="text/css">
	.st0{opacity:0.15;fill:#22EAAA;}
	.st1{fill:none;stroke:#22EAAA;stroke-width:2;stroke-miterlimit:10;}
	.st2{fill:none;stroke:#FFFFFF;stroke-width:2;stroke-linecap:square;stroke-miterlimit:10;stroke-dasharray:4,8;}
	.st3{fill:none;stroke:#FFFFFF;stroke-width:2;stroke-linecap:square;stroke-miterlimit:10;}
	.st4{fill:#FFFFFF;}
</style>
<path class="st0" d="M49.2,170c3.1,4.3,4.8,9.7,4.8,15.4v-0.2l0.1,40.2H8.3v6.2h52l0.6-40.3v0.2C60.9,182.6,55.9,174.8,49.2,170
	L49.2,170z"/>
<path class="st1" d="M2,185.5C2,171,13.5,159,28,159s26,12,26,26.5"/>
<path class="st1" d="M54,185.5v39.8l-51.9,0.1v-40.1"/>
<path class="st1" d="M26,165.5c0,12.7,9.6,20.7,22,22v11c0,10.8-8.7,19.5-19.5,19.5S9,209.3,9,198.5v-14
	C18.6,183.9,26,175.2,26,165.5"/>
<path class="st1" d="M38,200.5c0,5.4-4.1,9.5-9.5,9.5s-9.5-4.1-9.5-9.5H38z M12.5,193c0-2.4,2.1-4.5,4.5-4.5s4.5,2.1,4.5,4.5
	 M34.5,193c0-2.4,2.1-4.5,4.5-4.5s4.5,2.1,4.5,4.5"/>
<path class="st0" d="M208,166.5h-10c-3,3.4-6,5-6,5v30c0,13.4-11.5,24.4-24.9,24.4c-5,0-9.6-1.5-13.5-4.1
	c4.4,6.5,11.8,10.7,20.1,10.7c13.3,0,25.3-10.6,25.3-24v-31C199,177.5,205.9,174.8,208,166.5L208,166.5z"/>
<path class="st1" d="M192,182.5v19c0,13.4-11.7,24-25,24s-24.1-10.5-24.1-23.9v-16.8"/>
<path class="st1" d="M179,203.5c0,6.7-5.3,13-12,13s-12-6.3-12-13H179z M149,194.5c0-3,2.5-5,5.5-5s5.5,2,5.5,5 M175,194.5
	c0-3,2.5-5,5.5-5s5.5,2,5.5,5 M192,182.5v-11c0,0,6.9-3.7,9-12h-48c-5.9,0-10,5.1-10,11l-0.1,14.4c4,0,7.1-3.3,7.1-7.4v-6l22,8v-8
	L192,182.5"/>
<path class="st0" d="M123,28.5v0.1c0,0-1,21.5,9,24.9c-3.6-7.5-3-18.5-3-18.5v-0.1c0-8.8-4.3-16.6-11-21.4
	C121,17.8,123,22.9,123,28.5z M121.1,60.8c-3.6,0-7.5-1.8-10-4c-3.6,4.1-8.4,6.8-14.3,6.8s-11.1-2.7-14.7-6.8c-2.5,2.2-6.4,4-10,4
	c-1.7,0-2.6-0.6-4-1c-0.3,0.2-1.6-0.1-2,0l1,1c2.6,3.8,6.5,6,11.5,6c3.6,0,7-1.8,9.5-4c3.6,4.1,9.1,7,15,7s10.9-2.4,14.5-6.5v-0.1
	c2.5,2.2,5.9,3.6,9.5,3.6c5,0,8.9-2.2,11.5-6l0.5-1c-2.9-0.9-5.6-3.4-7.1-6.2C132,53.5,126.2,60.8,121.1,60.8z"/>
<path class="st1" d="M94,11.5c0,12.7,9.6,19.7,22,21l0.1,5.1v6.3c0,10.8-8.3,19.6-19.1,19.6h-1c-10.8,0-19-8.2-19-19v-15
	C86.5,28.9,94,21.2,94,11.5"/>
<path class="st1" d="M106,45.5c0,5.4-4.1,10.1-9.5,10.1S87,50.9,87,45.5H106z M81.5,38.5c0-2.3,2.1-4.3,4.4-4.3s4.1,2,4.1,4.3
	 M102.5,38.5c0-2.3,2-4.3,4.3-4.3s4.2,2,4.2,4.3"/>
<path class="st1" d="M111,56.5c2.5,2.2,6.4,4,10,4c5,0,8.4-2.2,11-6l0.5-1c-10.3-3.1-9.5-24.9-9.5-24.9v-0.1c0-14.5-12-26-26.5-26
	S70,14,70,28.5v0.1c0,0-0.2,21.8-10.5,24.9l0.5,1c2.6,3.8,7,6,12,6c3.6,0,7.5-1.8,10-4"/>
<path class="st2" d="M97,75.5v13 M65,146.5l-12,13 M129,146.5l12,13"/>
<circle class="st3" cx="96.9" cy="125.4" r="29.1"/>
<g>
	<circle class="st4" cx="96.4" cy="125.6" r="4.6"/>
	<path class="st4" d="M101.7,131.1c-0.2-0.2-0.5-0.3-0.7-0.3c-0.2,0-0.4,0.1-0.6,0.2c-1.1,0.8-2.5,1.2-3.9,1.2c-3.7,0-6.7-3-6.7-6.7
		c0-3.7,3-6.7,6.7-6.7c1.4,0,2.7,0.4,3.8,1.2c0.2,0.1,0.4,0.2,0.6,0.2c0.3,0,0.5-0.1,0.7-0.3l9.1-9.2c0.2-0.2,0.3-0.5,0.3-0.8
		c0-0.3-0.1-0.5-0.4-0.7c-3.9-3.4-9-5.3-14.2-5.3c-12,0-21.7,9.7-21.7,21.7s9.7,21.7,21.7,21.7c5.2,0,10.3-1.9,14.2-5.3
		c0.2-0.2,0.3-0.5,0.4-0.7c0-0.3-0.1-0.6-0.3-0.8L101.7,131.1z M101.4,140.6c-1.6,0.5-3.3,0.8-5.1,0.8c-8.8,0-15.9-7.1-15.9-15.9
		s7.1-15.9,15.9-15.9c1.7,0,3.4,0.3,5.1,0.8c0.7,0.2,1,1,0.8,1.6c-0.2,0.7-1,1-1.6,0.8c-1.4-0.5-2.8-0.7-4.3-0.7
		c-7.3,0-13.3,6-13.3,13.3s6,13.3,13.3,13.3c1.4,0,2.9-0.2,4.2-0.7c0.7-0.2,1.4,0.1,1.6,0.8C102.5,139.7,102.1,140.4,101.4,140.6z"
		/>
</g>
</svg>
