<?xml version="1.0" encoding="utf-8"?>
<!-- Generator: Adobe Illustrator 22.0.1, SVG Export Plug-In . SVG Version: 6.00 Build 0)  -->
<svg version="1.1" id="Vrstva_1" xmlns="http://www.w3.org/2000/svg" xmlns:xlink="http://www.w3.org/1999/xlink" x="0px" y="0px"
	 viewBox="0 0 106 104" style="enable-background:new 0 0 106 104;" xml:space="preserve">
<style type="text/css">
	.st0{opacity:0.5;}
	.st1{fill:#EBE7FD;}
	.st2{fill:#E2E6F8;}
	.st3{opacity:0.85;clip-path:url(#SVGID_2_);}
	.st4{fill:#BBC9F2;}
	.st5{fill:#9AAEF7;}
	.st6{fill:#3897FF;}
	.st7{fill:#8BC0FF;}
	.st8{fill:#6740D2;}
	.st9{fill:#593CC6;}
	.st10{fill:#7749FF;}
	.st11{fill:#7263FC;}
</style>
<g transform="translate(-128 -238)" class="st0">
	<g>
		<path id="_x31_442b" class="st1" d="M152.5,292c13.5,0,24.5,11.2,24.5,25s-11,25-24.5,25S128,330.8,128,317S139,292,152.5,292z"/>
	</g>
	<g>
		<path id="_x31_442b_1_" class="st2" d="M152.5,292c13.5,0,24.5,11.2,24.5,25s-11,25-24.5,25S128,330.8,128,317S139,292,152.5,292z
			"/>
	</g>
</g>
<g transform="translate(-128 -238)" class="st0">
	<g>
		<path id="_x31_442c" class="st1" d="M214.5,238c10.8,0,19.5,8.7,19.5,19.5c0,10.8-8.7,19.5-19.5,19.5s-19.5-8.7-19.5-19.5
			C195,246.7,203.7,238,214.5,238z"/>
	</g>
	<g>
		<path id="_x31_442c_1_" class="st2" d="M214.5,238c10.8,0,19.5,8.7,19.5,19.5c0,10.8-8.7,19.5-19.5,19.5s-19.5-8.7-19.5-19.5
			C195,246.7,203.7,238,214.5,238z"/>
	</g>
</g>
<g transform="translate(-128 -238)" class="st0">
	<g>
		<path id="_x31_442d" class="st1" d="M142.5,243c5.8,0,10.5,4.7,10.5,10.5c0,5.8-4.7,10.5-10.5,10.5s-10.5-4.7-10.5-10.5
			C132,247.7,136.7,243,142.5,243z"/>
	</g>
	<g>
		<path id="_x31_442d_1_" class="st2" d="M142.5,243c5.8,0,10.5,4.7,10.5,10.5c0,5.8-4.7,10.5-10.5,10.5s-10.5-4.7-10.5-10.5
			C132,247.7,136.7,243,142.5,243z"/>
	</g>
</g>
<g transform="translate(-128 -238)">
	<g>
		<path id="_x31_442a" class="st1" d="M188.5,246c24,0,43.5,19.6,43.5,43.8c0,24.2-19.5,43.8-43.5,43.8S145,314,145,289.8
			S164.5,246,188.5,246z"/>
	</g>
</g>
<g>
	<g>
		<defs>
			<ellipse id="SVGID_1_" cx="60.5" cy="51.8" rx="43.5" ry="43.8"/>
		</defs>
		<clipPath id="SVGID_2_">
			<use xlink:href="#SVGID_1_"  style="overflow:visible;"/>
		</clipPath>
		<g class="st3">
			<g>
				<polygon class="st4" points="44.9,96.7 63.3,96.7 63.3,79.9 44.9,74 				"/>
				<polygon class="st5" points="60.6,96.7 76.8,96.7 76.8,68.4 60.6,79.1 				"/>
				<polygon id="XMLID_1312_" class="st6" points="60.6,62.6 64.6,62.6 65.6,67.3 62.9,72 60.6,72 59.8,67.3 				"/>
				<polygon id="XMLID_1313_" class="st7" points="60.6,62.6 56.6,62.6 55.5,67.3 58.2,72 60.6,72 				"/>
				<polyline id="XMLID_6_" class="st5" points="74.3,31.7 76.8,55.5 74.3,79.2 60.6,79.2 				"/>
				<polyline id="XMLID_5_" class="st5" points="60.6,79.2 59,31.7 74.3,31.7 				"/>
				<polygon id="XMLID_4_" class="st4" points="60.6,31.7 60.6,79.2 46.9,79.2 44.4,55.5 46.9,31.7 				"/>
				<polygon id="XMLID_1316_" class="st8" points="46.9,79.2 35.5,79.2 35.5,35.9 46.9,31.7 				"/>
				<polygon id="XMLID_1317_" class="st9" points="74.3,79.2 85.3,79.2 85.3,35.9 74.3,31.7 				"/>
				<polygon class="st4" points="63.3,39.4 76.4,31.7 44.9,31.7 57.9,39.4 				"/>
				<polygon class="st10" points="57.9,49.2 54.1,78 60.6,83 60.6,49.2 				"/>
				<polygon class="st8" points="60.6,83 67.2,78 63.3,49.2 60.6,49.2 				"/>
				<polygon class="st11" points="57.9,39.4 55.5,43.3 57.9,49.2 63.3,49.2 65.8,43.3 63.3,39.4 				"/>
				<polygon class="st10" points="44.9,31.7 44.9,38.4 53.3,46.7 55.5,43.3 57.9,39.4 				"/>
				<polygon class="st8" points="63.3,39.4 65.8,43.3 67.9,46.7 76.4,38.4 76.4,31.7 				"/>
				<path class="st8" d="M35.5,35.9c0,0-8.2,0.8-8.5,43.3c11.1,0,11.1,0,11.1,0l3.1-34.9L35.5,35.9z"/>
				<path class="st9" d="M85.5,35.9c0,0,8.2,0.8,8.5,43.3c-11.1,0-11.1,0-11.1,0l-3.1-34.9L85.5,35.9z"/>
				<rect x="27" y="76.7" class="st8" width="19.9" height="20.1"/>
				<rect x="74.3" y="78.5" class="st9" width="19.7" height="18.3"/>
			</g>
			<path class="st9" d="M86.3,36.3c0,0,0,0-0.3-0.2s-8-3-8-3L77.8,37l6.7,5.2L86.3,36.3z"/>
		</g>
	</g>
</g>
</svg>
