<?xml version="1.0" encoding="utf-8"?>
<!-- Generator: Adobe Illustrator 22.1.0, SVG Export Plug-In . SVG Version: 6.00 Build 0)  -->
<svg version="1.1" id="Layer_1" xmlns="http://www.w3.org/2000/svg" xmlns:xlink="http://www.w3.org/1999/xlink" x="0px" y="0px"
	 viewBox="0 0 534.5 454.5" style="enable-background:new 0 0 534.5 454.5;" xml:space="preserve">
<style type="text/css">
	.st0{fill:#F1EAF9;}
	.st1{fill:#575E66;}
	.st2{fill:#A5A6A9;}
	.st3{opacity:1.000000e-02;}
	.st4{fill:#0D2118;}
	.st5{fill:none;stroke:#A5A6A9;stroke-miterlimit:10;}
	.st6{fill:#22EAAA;stroke:#22EAAA;stroke-width:4;stroke-miterlimit:10;}
	.st7{fill:#FFA700;stroke:#FFA700;stroke-width:2;stroke-miterlimit:10;}
	.st8{fill:#FFA700;}
	.st9{fill:#1D1E21;}
	.st10{fill:#D3D0F4;}
	.st11{fill:#151618;}
	.st12{fill:#532EE3;}
	.st13{fill:#22EAAA;}
	.st14{fill:#FFD297;}
	.st15{fill:#FFDCA9;}
	.st16{fill:#25CA87;}
	.st17{clip-path:url(#SVGID_2_);fill:#25CA87;}
	.st18{clip-path:url(#SVGID_4_);fill:#FFA700;}
	.st19{clip-path:url(#SVGID_6_);fill:#532EE3;}
	.st20{fill:#E23C3C;}
	.st21{clip-path:url(#SVGID_8_);fill:#E23C3C;}
	.st22{clip-path:url(#SVGID_10_);fill:#25CA87;}
	.st23{clip-path:url(#SVGID_12_);fill:#532EE3;}
	.st24{clip-path:url(#SVGID_14_);fill:#532EE3;}
	.st25{clip-path:url(#SVGID_16_);fill:#E23C3C;}
	.st26{clip-path:url(#SVGID_18_);fill:#25CA87;}
	.st27{clip-path:url(#SVGID_20_);fill:#FFA700;}
	.st28{clip-path:url(#SVGID_22_);fill:#FFA700;}
	.st29{clip-path:url(#SVGID_24_);fill:#25CA87;}
	.st30{clip-path:url(#SVGID_26_);fill:#532EE3;}
	.st31{clip-path:url(#SVGID_28_);fill:#FFA700;}
	.st32{clip-path:url(#SVGID_30_);fill:#FFA700;}
	.st33{clip-path:url(#SVGID_32_);fill:#E23C3C;}
	.st34{clip-path:url(#SVGID_34_);fill:#25CA87;}
	.st35{clip-path:url(#SVGID_36_);fill:#25CA87;}
	.st36{clip-path:url(#SVGID_38_);fill:#E23C3C;}
	.st37{clip-path:url(#SVGID_40_);fill:#FFA700;}
	.st38{clip-path:url(#SVGID_42_);fill:#E23C3C;}
	.st39{clip-path:url(#SVGID_44_);fill:#25CA87;}
	.st40{clip-path:url(#SVGID_46_);fill:#E23C3C;}
	.st41{clip-path:url(#SVGID_48_);fill:#25CA87;}
	.st42{clip-path:url(#SVGID_50_);fill:#532EE3;}
	.st43{clip-path:url(#SVGID_52_);fill:#532EE3;}
	.st44{clip-path:url(#SVGID_54_);fill:#25CA87;}
	.st45{clip-path:url(#SVGID_56_);fill:#532EE3;}
	.st46{clip-path:url(#SVGID_58_);fill:#E23C3C;}
	.st47{clip-path:url(#SVGID_60_);fill:#FFA700;}
	.st48{clip-path:url(#SVGID_62_);fill:#FFA700;}
	.st49{clip-path:url(#SVGID_64_);fill:#FFA700;}
	.st50{clip-path:url(#SVGID_66_);fill:#E23C3C;}
	.st51{clip-path:url(#SVGID_68_);fill:#25CA87;}
	.st52{clip-path:url(#SVGID_70_);fill:#FFA700;}
	.st53{clip-path:url(#SVGID_72_);fill:#532EE3;}
	.st54{clip-path:url(#SVGID_74_);fill:#25CA87;}
	.st55{clip-path:url(#SVGID_76_);fill:#E23C3C;}
	.st56{clip-path:url(#SVGID_78_);fill:#FFA700;}
	.st57{clip-path:url(#SVGID_80_);fill:#532EE3;}
	.st58{clip-path:url(#SVGID_82_);fill:#532EE3;}
	.st59{clip-path:url(#SVGID_84_);fill:#25CA87;}
	.st60{clip-path:url(#SVGID_86_);fill:#E23C3C;}
	.st61{clip-path:url(#SVGID_88_);fill:#532EE3;}
	.st62{clip-path:url(#SVGID_90_);fill:#25CA87;}
	.st63{clip-path:url(#SVGID_92_);fill:#E23C3C;}
	.st64{opacity:0.2;fill:#1D1D1B;enable-background:new    ;}
	.st65{fill:none;stroke:#575E66;stroke-width:1.5;stroke-miterlimit:10;}
	.st66{fill:none;stroke:#575E66;stroke-width:1.6515;stroke-miterlimit:10;}
	.st67{fill:#C6C6C6;}
	.st68{opacity:0.12;fill:#1D1D1B;enable-background:new    ;}
	.st69{opacity:0.1;}
	.st70{fill:none;stroke:#151618;stroke-width:1.5;stroke-miterlimit:10;}
	.st71{fill:#FCD5A7;}
	.st72{fill:#F49703;}
	.st73{fill:none;stroke:#000000;stroke-width:1.5;stroke-miterlimit:10;}
	.st74{fill:none;stroke:#A5A6A9;stroke-width:1.5;stroke-miterlimit:10;}
	.st75{opacity:0.5;fill:#1D1D1B;enable-background:new    ;}
	.st76{opacity:0.16;fill:#151618;enable-background:new    ;}
	.st77{opacity:0.1;fill:#1D1D1B;enable-background:new    ;}
	.st78{opacity:5.000000e-02;fill:#1D1D1B;enable-background:new    ;}
	.st79{fill:#FFFFFF;}
	.st80{fill:#767D84;}
	.st81{opacity:0.4;fill:#1D1D1B;enable-background:new    ;}
	.st82{opacity:0.2;fill:#121314;enable-background:new    ;}
	.st83{opacity:0.1;fill:#151618;enable-background:new    ;}
	.st84{opacity:0.4;}
</style>
<g>
	<path class="st0" d="M62.8,88.6c40.1-24.8,98.5-47.8,181.1,2.3C276.3,111.5,292,137.4,405,106c104.5-31.6,186.5,96.6,79.2,195.3
		c-35.6,40.1-2.9,94.2-29.5,116.2c-43.9,33.7-70.6-30.1-174.1-57.6c-110.6-5.3-105.9,14.6-189.7,59
		c-91.8,40.9-114.1-50.4-66.8-100.2c8.8-9.1,32.9-42.8-0.4-121.2C7.5,145.9,34.4,106.2,62.8,88.6z"/>
	<g>
		<ellipse class="st1" cx="395.9" cy="382.6" rx="4.4" ry="5.1"/>
		<polygon class="st2" points="404.7,333.8 407.3,335.4 386.6,434 384.2,433.5 		"/>
		<polygon class="st2" points="448.9,395.3 447.3,397.8 354.8,373 355.4,370.7 		"/>
		<polygon class="st2" points="441.4,356.7 441.9,359.6 358.3,406.3 357.2,404.2 		"/>
		<polygon class="st2" points="422.3,429.6 419.4,430 374.2,343.5 376.4,342.4 		"/>
		<path class="st1" d="M402.6,329.3c-27.7,0-50.2,24.7-50.2,55.2s22.5,55.2,50.2,55.2s50.2-24.7,50.2-55.2S430.3,329.3,402.6,329.3z
			 M399.5,433.7c-24.5,0-44.4-21.9-44.4-48.9s19.9-48.9,44.4-48.9s44.4,21.9,44.4,48.9C443.9,411.9,424,433.7,399.5,433.7z"/>
	</g>
	<g class="st3">
		<path class="st4" d="M62.8,97.1c40.1-24.8,98.5-47.8,181.1,2.3C276.3,120,292,145.9,405,114.5c68.2-20.6,126.8,26.8,129.5,89.7
			c2.8-67.3-58.1-120.3-129.5-98.7c-113,31.3-128.6,5.5-161.1-15.2c-82.6-50.1-141-27.1-181.1-2.3c-23.4,14.5-45.7,44-43.9,82.8
			C20.6,136.5,41.3,110.4,62.8,97.1z"/>
		<path class="st4" d="M24.1,327.3c5.7-5.9,17.8-22.1,16.6-54.2c-1.1,26.2-11.4,39.9-16.6,45.2C6.8,336.5-1.2,360.2,0.1,381
			C1.3,362.6,9.3,342.9,24.1,327.3z"/>
	</g>
	<g>
		<path class="st5" d="M441.2,170.4c-0.8,0.7-1.5,2.5-0.8,3.4s2.7,0.4,3.5-0.2c0.8-0.7,0.8-1.9,0.1-2.8S442,169.7,441.2,170.4z"/>
		<path class="st5" d="M442.2,175.1c0,0,6.7,12.1-1.1,9.6C433.2,182.1,442.2,175.1,442.2,175.1z"/>
		<path class="st5" d="M443.5,174.4c1.3-0.8,12.4,1.8,8.6,6.4c-2.8,3.2-5,1.2-6.3,0.4C444.5,180.5,442.2,175.2,443.5,174.4z"/>
		<path class="st5" d="M474.8,188.7c-0.8,0.7-1.5,2.5-0.8,3.4s2.7,0.4,3.5-0.2c0.8-0.7,0.8-1.9,0.1-2.8S475.6,188.1,474.8,188.7z"/>
		<path class="st6" d="M441.7,170.2c-19.6-3-33-43-6.7-48.5C467.4,119.5,455.3,165.2,441.7,170.2z"/>
		<path class="st5" d="M473.6,190.8c-5.5-0.9-9.5,3.1-9.6,5.4c-0.3,3.2,5.9,6.9,8.9-2.4C474.4,192.9,475.9,193.5,473.6,190.8z"/>
		<path class="st7" d="M476.4,188.1c12.1,0.9,43-36.6,8-49.9C450,136.5,460.5,186.5,476.4,188.1z"/>
		<path class="st5" d="M477.5,191.9c3.1-0.8,17.6,4.8,10.3,10.3S474.4,192.7,477.5,191.9z"/>
		<path class="st5" d="M442.6,176.1c7.8,14.4,8.9,9.1,14.4,18.6c7.5,12.7,5.8,25.1,5.8,25.1s-0.9,10.5-10.8,18.1s-8.4,13.4-7.5,19.3
			s-5.4,7.1-6.1,12c-1.4,8,3.1,14.6,3.1,14.6"/>
		<path class="st5" d="M475.5,192.3c0,0,3.6,7.7-12.4,12.3s-7.6,24.2-7.6,24.2s7.2,15.2-8.2,23.1c-19.6,10.1-7.9,16.6-6,18.3
			c4.4,3.8,1.2,10.8,0.1,13.5c-1.8,4.7,2.5,13.6,2.5,13.6"/>
	</g>
	<path class="st8" d="M330.2,273.1c-35.2,16.7-53.9,11.1-60.2,20.4c-2.4,3.6,6.5,22.1,19.4,25.3c3.4,0.8,41.5-4.2,45.1-3.5
		c2.9,0.5,11,31,11,31s6,43.2,7.7,43.4c6.5,3.7,18.5,10.9,18.5,10.9c-1-7,3.2-60.9,2.2-63.3c-4.1-34.4,15.1-37-6.2-62.2
		C355.6,267.2,343.9,279.2,330.2,273.1z"/>
	<g>
		<g>
			<g>
				<g>
					<g>
						<path class="st9" d="M351.4,177.2c0,0-8.3,4-15.2,0c9.5-14.8-13.1-8-9.3-36.7c2.9-22,27.8-18.3,26.5,2.1
							c6.2-11.5,13.9,7.4,2.2,13.1C346.4,160.8,351.4,177.2,351.4,177.2z"/>
						<path class="st9" d="M323.2,150.7c0.4,1.2,1.7,1.9,2.9,1.6c1.2-0.4,1.9-1.7,1.6-2.9c-0.2-0.6-0.3-2.4-0.3-2.4l-2.6,0.9
							C323.5,148.1,322.8,149.4,323.2,150.7z"/>
					</g>
					<polygon class="st10" points="450,279.1 444.8,256.5 436,259.3 439.5,281 					"/>
					<path class="st11" d="M358.7,250.6c0,0-0.9,4.3,0,7.1c0.9,2.8-30.8,8-43.4,0.8c0-2.8,1.9-9,1.9-9L358.7,250.6z"/>
					<g>
						<path class="st12" d="M448.9,257c-1.3-20.6-53-72.8-67.2-74.4c-9.9-4.6-14.9-4.3-30.3-5.4c-4.3-0.3-11.7,0.3-15.2,0
							c-12.7-1.1-24.2,2.3-32.1,8.1c-31.9,26.7-25.2,26.8-48.7,27.9c-16.5,0.7-15.6,10-10.1,14.3c10.5,6.4,39.8,4.9,62.8-19.1
							c24.9-10.7,55.9-9.6,65.8-2.2c9.9,7.4,48.2,28.9,58.5,56.7C442.6,273.4,450.1,260.6,448.9,257z"/>
						<path class="st12" d="M436.5,268.4l-0.7-4.1l11.9-3.3c0,0,0.6,2.2-0.2,4.4C446.8,267.7,436.9,271,436.5,268.4z"/>
						<path class="st12" d="M379.6,205.9c6.5,2.6-10.8,52.6-0.7,77.4c2.9,7.1-76,11.2-70.7-3.1c7.1-19.1-3.4-30.8,2.7-73.6
							C338.9,190.2,381.4,195.9,379.6,205.9z"/>
					</g>
				</g>
			</g>
			<path class="st9" d="M331.1,177c0,0,6,2.5,14.3-9.8c5.1,11.8,11.4,10.4,11.4,10.4s-4.4,6.1-13.9,6.1S331.1,177,331.1,177z"/>
		</g>
		<path d="M327.8,136.3c6.7-7.4,21.2-1.9,21.1,1c-1,7.5,1,9.6,1,9.6s1.3,2.4,2.2-1.1c0,0,0,0,1.3-3.1c0.9-2.1,2.4-3.8,5.3-3.4
			C352.5,113.1,328.6,125.4,327.8,136.3z"/>
		<path class="st2" d="M345.8,131.4c5.3,2.5,9.1,8.2,9.1,14.9c0,1.3-0.1,2.5-0.4,3.6c3-3,5-7.3,5-12.1c0-7.8-5.1-14.4-11.8-15.9
			C346.7,121.8,344,130.6,345.8,131.4z"/>
		<path class="st11" d="M352.5,158.5c-1.2,1.9-2.7,2.8-2.4,3.2c0.4,0.7,0.2,2.9,0.2,2.9c1.1-3.9,5.4-8.9,5.4-8.9
			S353.7,156.6,352.5,158.5z"/>
		<path class="st7" d="M328.4,133.9c-4.3-14.8,8.1-24.6,18.6-18.9c8.3,5.3,2.1,14,3.1,16.6s3.4,3.6,5.3,8.1c1.1,2.6-1.2,1.3-1.2,1.6
			c0,0.5-2-5.3-6.1-7.9C345.7,131.9,336.4,124.8,328.4,133.9z"/>
		<path class="st9" d="M353.4,142.6c5.9-12.2,13.9,7.4,2.2,13.1C346.4,160.8,350.7,148.9,353.4,142.6z"/>
	</g>
	<g>
		<polygon class="st10" points="253.2,370.5 249.3,389.3 240.2,388.3 241.2,368.6 		"/>
		<path class="st11" d="M252,385.5c0.3,1.8-2.6,11.3-3.1,11.9s-18.2-2.5-23.7-3.1c-5.7-0.7-11.1-2.2-11.1-2.2s-6.7-2.4-5.9-4.7
			c1.9-4,9.8-4.1,9.8-4.1s13.9-1.5,15.1-2c1.1-0.4,4.4-5.3,6.5-5.7c3-0.6,5.5,4,3,6.4s2.6,9.9,7.8,2.3
			C251.5,382.9,251.7,384.3,252,385.5z"/>
	</g>
	<path class="st2" d="M92.7,201.6c0.9,12.8,26.3,32.9,49.3,27.5c10.2-2.3,9-15.1,6.9-16.5c-1.1-2.4-15.3-2.9-27.6-11.4
		c-2.5-1.7-6.9-4.1-8.9-6.9"/>
	<path class="st8" d="M213.8,148.1c0,2.7-2.4,2.4-2.9,4.9c-0.5,2.6,3.3,2.6,2.9,5s-3.1,1.7-4.1,3.9s2.3,3.5,1.4,5.6
		c-0.9,2.1-3.6,0.6-5,2.5c-1.5,1.9,1.3,4-0.2,5.8s-3.6-0.9-5.5,0.9c-1.9,1.8-0.3,3.9-1.8,5.5c-1.5,1.5-4.5-2-5.6-0.7s-1,4.4-3.2,4.7
		s-2.8-2.8-5.2-2.3s-1.8,3.2-4.4,3.6s-1.8-3.3-4.4-3.7s-3,2.6-5.2,2.2c-2.2-0.5-0.6-3.4-3.2-4.8c-2.6-1.4-3.6,1.8-5.6,0.6
		s0.1-3.7-1.7-5.5s-3.9,0.5-5.5-1.1s0.9-3.8-0.2-5.8s-4.1-0.8-5-2.6s1.6-3.4,1.4-5.6c-0.2-2.2-3.8-1.8-4.1-4s2.8-2.7,2.9-4.9
		c0.1-2.2-2.9-2.7-2.9-5s3.2-2.6,4.1-3.9c0.9-1.3-2.4-4.1-1.4-5.6s4.2-1.2,5-2.5s-0.8-4.6,0.2-5.8s4.4,0.1,5.5-0.9
		c1.2-1,0.5-4.6,1.8-5.5c1.3-0.8,4.2,1.3,5.6,0.7c1.4-0.6,1.7-4.3,3.2-4.7c1.5-0.4,2.3,2.7,5.2,2.3s2.2-3.3,4.4-3.6s1.9,3.4,4.4,3.7
		c2.5,0.2,2.7-2.7,5.2-2.2s1.1,3.9,3.2,4.8c2,0.9,3.6-1.5,5.6-0.6c2,1,0.5,3.9,1.7,5.5c1.2,1.6,4-0.8,5.5,1.1
		c1.5,1.9-0.8,3.7,0.2,5.8s4.1,0.2,5,2.6s-2.3,2.7-1.4,5.6C210.5,147,213.8,145.3,213.8,148.1z"/>
	<g>
		<path class="st9" d="M178.1,190.1c0,0,8.1,3.9,14.8,0c-9.2-14.4,8.9-7.8,5.2-35.8c-2.8-21.5-22.3-14.9-21,5
			c-9.9-12-14.5,4.3-3.2,9.9C182.9,174.1,178.1,190.1,178.1,190.1z"/>
		<path class="st9" d="M201.1,167.4c-0.4,1.2-1.6,1.9-2.8,1.5s-1.9-1.6-1.5-2.8c0.2-0.6,0.3-2.4,0.3-2.4l2.5,0.8
			C200.8,164.9,201.4,166.2,201.1,167.4z"/>
	</g>
	<polygon class="st9" points="147.3,397.1 132.7,415.7 141,419.6 157.6,400.6 	"/>
	<polygon class="st11" points="80.6,202.7 99.6,215.1 94.1,222.2 75.4,211.7 	"/>
	<polygon class="st9" points="281.6,171.7 271.1,191.3 278.7,195.6 288.4,175.9 	"/>
	<path class="st9" d="M169,262.7c0,0,0.9,4.2,0,6.9s30.1,7.8,42.4,0.8c0-2.7-1.8-8.8-1.8-8.8L169,262.7z"/>
	<polygon class="st9" points="198,396.9 189.9,415.1 197.6,419 208.5,401.5 	"/>
	<g>
		<path d="M187.1,140.4c0,0,2.1,3.1,1.7,5.5c-0.4,1.9-2.6,1.8-2.6,4.8c0.6,8.5-4,4.4-5,7.1c-0.6,1.4-0.1,5.7-4.2,1.5
			s-7.2-4.5-7.2-4.5L187.1,140.4z"/>
		<path d="M185,146.8c0,0,0.7,4.4,2.9,5.7s3.1-1.3,4.1-0.5c0.9,0.8-0.6,4,1.2,4.7s2.7-0.7,3.6,0.4c0.9,1.1,1.8,5.2,1.8,5.2v-9.6
			l-4.6-11h-8.7L185,146.8z"/>
	</g>
	<path class="st8" d="M186.1,139.4c0,0,2.1,3.1,1.7,5.5c-0.4,1.9-2.6,1.8-2.6,4.8c0.6,8.5-4,4.4-5,7.1c-0.6,1.4-0.1,5.7-4.2,1.5
		s-8.8-3.2-8.8-3.2L186.1,139.4z"/>
	<path class="st8" d="M186,144.6c0,0,0.7,4.4,2.9,5.7s3.1-1.3,4.1-0.5c0.9,0.8-0.6,4,1.2,4.7s2.7-0.7,3.6,0.4
		c0.9,1.1,0.9,5.3,0.9,5.3l5.7-3.4l-9.4-17.2h-8.7L186,144.6z"/>
	<g>
		<path class="st13" d="M97.4,209.4c3.2-1.2,28,19.1,53-1.3c1.2-1.1,9.3-10.3,35.1-12.8c20.6-2.5,24.2,2.5,30.9,5.7
			c33.1,27.8,50.7-13.9,52.3-14.8c8.3-8.5,15.2,9.8,9.8,14c-10.1,7.9-21.9,43-60.3,27.3c-24.5-10-52.7-2.6-62.3,4.7
			c-9.7,7.2-46.3,5.8-65-7.2C82.6,219.3,94.4,209.3,97.4,209.4z"/>
		<path class="st13" d="M272.2,185c0,0,2.4-3.2,3.9-3.8c1.4-0.7,8.6,5.6,8.4,7.1s-4.3,5.9-4.3,5.9L272.2,185z"/>
		<path class="st13" d="M85.9,218.7l3.5,2l7-9.8c0,0-1.8-1.3-4.1-1.3S83.6,217.4,85.9,218.7z"/>
		<path class="st13" d="M154.4,230.8c1.8,9.8,12,26.9,12.4,29.1c0.4,2.2,0,3.6,0,3.6s28,3.8,43.7-1.1c-1-2.9-0.7-5.6,1.2-7.5
			c5.8-5.9,5.1-12.6,5.1-12.6s-2.5-14.1,5.7-17.7C195.1,208.7,152.6,221,154.4,230.8z"/>
		<path class="st13" d="M175,197.5c-0.9-2.2,0.5-8.2,1.8-8.3c0.5,0,0.5,0,1,0.2c2,0.8,6.8,3.1,14.8,0.5c0.3-0.1,0.3-0.3,1.1-0.4
			c0.7-0.1,3.7,1.5,2.5,5.5S177.3,201.5,175,197.5z"/>
	</g>
	<path class="st12" d="M168.8,269.7c0,0,25.8,8.8,43.3,0.2c1-0.2-0.9,5.3,2.1,7.8c26.6,33.6-10,69.1-10,69.1l-8.7,13.4
		c0,0-4.2,5.6-5.7,8.1c-1.6,2.5-7.5,7.2-7.5,7.2l-29.4,32l-10.4-7.8c16.2-20.9,12.6-27.2,27.1-41.6c2.7-1.2,6-23.1,7.6-30.5
		C181.6,307.8,168.8,269.7,168.8,269.7z"/>
	<path class="st12" d="M156.3,322.4c3.6,4.2,9.8,7.3,18,11.8c15.9,8.8,37,20,37,20c-6.5,6.1-8,30-16,45.6c0.9,0.4,9.6,3.6,13.3,3.5
		c3-3.6,21.7-38.2,23.1-42c1.4-3.8,8.9-18.1-6.1-32.4c-3.6-3.3-15.1-14.2-27.9-26.4C178.7,284.8,151.7,317.1,156.3,322.4z"/>
	<path class="st12" d="M168.6,269.7c-6.7,0.1-33,34-10.4,54.6c20.3,18.6,31.4-28.4,31.4-28.4S175.3,269.6,168.6,269.7z"/>
	<path class="st1" d="M135.9,410c-1.7,0.8-7.5,9.8-7.5,9.8s7,12.4,9.5,17s7.2,4.4,7.2,4.4s10.1,0,11.4,0c1.2-6.5-6.2-7.7-6.2-7.7
		s-2.7-10.1-2.9-11.2s2.2-6.3,1.4-8.2c-1-2.6-8.4-2.7-9.2,0.5s-5.3,4.4-3-3.6C137.8,409.4,137.1,409.5,135.9,410z"/>
	<path class="st1" d="M190,410.4c-1.3,1.4-4.7,11.1-4.7,11.8s15.8,7.4,20.5,9.8c4.9,2.4,10.1,3.9,10.1,3.9s6.7,1.4,7.5-0.9
		c1-4.5-5.2-8.7-5.2-8.7s-10-8.7-10.7-9.6c-0.7-1-0.3-6.9-1.7-8.4c-2-2.1-6.7,0.6-6.2,4s-7.9,7.1-7.5-2.2
		C192,408.5,191,409.5,190,410.4z"/>
	<g>
		<g>
			<path class="st11" d="M103.9,128.2C91.6,129,80.2,141,81,152.6c0.6,8.9,9.1,16.2,17.6,18.7c-1.5-5.2-1-11.5,1.9-17.6
				c4.9-10.1,14.8-15.9,23.3-14.3C119.6,133.4,112.2,127.6,103.9,128.2z"/>
		</g>
	</g>
	<path class="st14" d="M94,184.3c0,0-4.9-2-4,0.4c1.6,4.2,12.5,9.9,16.5,8.4c-4.2-28.4,11.2-8.5,13.9-38.8
		c0.6-18.3-17.1-19.9-20.4-0.2c-6.6-8.8-12,0.7-5,9C101.8,169.7,94,184.3,94,184.3z"/>
	<path class="st14" d="M122.6,164.2c-0.2,1.2-1.4,2.1-2.7,1.8c-1.2-0.2-2.1-1.4-1.8-2.7c0.1-0.6,0.1-2.4,0.1-2.4l2.6,0.6
		C122,161.7,122.8,162.9,122.6,164.2z"/>
	<path class="st10" d="M24.3,412.9c-2,3.8-8.1,6.5-6.9,8.4c1.1,2,6.5,11.5,8.8,15.8c2.4,4.3,6.7,4.1,6.7,4.1s11.4,0,12.6,0
		c1.1-6-7.7-7.1-7.7-7.1s-4.5-11.4-4.7-12.5c-0.2-1,1-5.9,0.3-7.6c-1-2.4-4.8-0.5-5.6,2.5s-4.9,4.1-2.8-3.3
		C26.1,411.7,25.5,412.4,24.3,412.9z"/>
	<polygon class="st15" points="38.3,395.1 23.7,413.7 30,419.6 48.6,398.6 	"/>
	<polygon class="st15" points="124.2,411 126.6,428.2 135.1,426.8 133.5,406.9 	"/>
	<path class="st8" d="M28.5,407.3c0,0-1,2.5-2.2,2.9c-2,3.8-8.1,7.2-7,9.1s6.5,11.5,8.8,15.8c2.4,4.3,6.7,4.1,6.7,4.1s9.4,0,10.6,0
		c0-4.3-7.7-5.1-7.7-5.1s-3.5-8.4-2.7-14.5c0.1-1,0.7-3.5,1.3-5.6"/>
	<path class="st13" d="M71.2,261.7c0,0-29.4,23.6-8.4,57.1c13.8,25,11.1,35,11.1,35c-20.3,15.3-26.1,32-43.1,48.9
		c5.6,4.8,9,8.3,9,8.3s55.5-44.3,58.1-50.8c9.5-13.5-3.1-68.5-5.9-95.9C91.3,261.7,71.2,261.7,71.2,261.7z"/>
	<path class="st13" d="M123.9,415.7l10.4-3c0,0,2.1-51,1.8-63.5c-4.8-35-18.6-68-30.7-81.9c2.7-5.7-13.4-3-13.4-3l5.7,56.5
		c0,0,8.3,29.7,15.8,33.9C112.6,380.5,115.6,370.7,123.9,415.7z"/>
	<ellipse class="st11" cx="87.9" cy="130.5" rx="6.3" ry="6.3"/>
	<path class="st11" d="M99.7,145.4c0,0,0.8,5.3-0.1,8.7c9.6,2.2,25-4.9,25-4.9s4-7.4-3.4-13.2C113.9,130.2,99.7,145.4,99.7,145.4z"
		/>
	<path class="st2" d="M79.6,190.2l10.3-4.5c0,0,10.4,9.2,16.2,6.1c0,0-0.1-2.2-0.2-2.8c16.7,9.8,18,30.3,15.6,40.5
		c0.7,26.4-16.2,38.9-16.2,38.9s-30,1.3-36.2-5.7c-3.7-4.1-3.5-26.2-3.5-26.2"/>
	<path class="st2" d="M66.6,192.2c13.2-9.6,19.8,4.4,17.3,9.1c-4,12,12.8,34.7,12.8,34.7s-17-6-21.7,16.2
		c0.5,3.5-22.7-12.4-25.4-20.8C46.9,223.2,53.4,201.8,66.6,192.2z"/>
	<path class="st10" d="M125.3,424.7c-0.6,1.9-1.2,16-0.9,16.7s17.4,0.1,22.7,0.3c5.4,0.1,10.8-0.6,10.8-0.6s6.6-0.5,6.3-3
		c-0.3-1.3,0.4-2.6-0.8-3.7c-2.7-2.4-11.2,0-11.2,0s-14.7-4.7-16-7.9c-0.4-1.1-1-4.5-3-4.1c-2.5,0.5-2.6-0.1-4.2,2.2"/>
	<path class="st14" d="M74.9,245.4c0,0,7.2-12.5,16-8.8s34.7,15.3,43.3,14.9c8.6-0.4,7.7,7.5-1.4,10.2S74.9,245.4,74.9,245.4z"/>
	<path class="st11" d="M81.2,150.4c0,0-0.6,17.2-9.4,26.5c9.8,18,37.9,7,36.2,5.6c-4.3-4.7-8.4-9.2-9.5-15.9
		C94.4,165.9,81.2,150.4,81.2,150.4z"/>
	<path class="st8" d="M125.1,423.9c-0.5,1.8-1.1,13.9-0.7,14.5c0.3,0.7,18.1,0.4,23.2,0.6c5.3,0.2,10.5-0.5,10.5-0.5
		s6.4-0.4,6.1-2.8c-0.3-1.2,0.2-0.6-1.1-1.6c-2.7-2.3-10.4-1-10.4-1s-13.8-4.9-15.2-8c-0.4-1-2-4.5-4-4.2c-2.5,0.4-2.5-0.1-4.1,2.1"
		/>
	<path class="st8" d="M28.5,407.3c-1.8,0.7-8.5,9.8-8.8,10.5s3.1,9.5,6.5,13.6"/>
	<path class="st9" d="M294.4,169.5c0,3.4-3.8,4.3-6,6.4c-2.5,2.4-6.4-3-6.4-6.4s2.8-6.2,6.2-6.2S294.4,166.1,294.4,169.5z"/>
	<path class="st1" d="M67.8,259.8c1.4,2.9,0.9,4-1.1,6.3c-1.9,2.4,42.5,5.9,40.6,3.6s1.9-5,1.9-5S78.5,266.1,67.8,259.8z"/>
	<path class="st2" d="M274.6,158.2c4.8,4.1,20.1,17.3,20.1,17.3s1.8,1.5,2.7,0.6c1-1,0.2-2.6,0.2-2.6l-9.1-25.9
		C288.6,147.6,282.6,154.6,274.6,158.2z"/>
	
		<ellipse transform="matrix(0.8035 -0.5953 0.5953 0.8035 -35.644 197.5868)" class="st1" cx="281.5" cy="152.8" rx="8.8" ry="1.4"/>
	<path class="st9" d="M281.6,172.7c4.1,3.3,2.3-0.8,1.9-5c-0.1-3.5,3.9-3.5,3.9-5C286.5,158.9,276.6,165.5,281.6,172.7z"/>
	<path class="st9" d="M296.5,158.9c1.5,0.2,0.4,2.1,0.4,2.1s-2,2.3-4.1,3.5s-2.7-1-1-2.2C293.4,161.1,294.9,158.8,296.5,158.9z"/>
	<path class="st9" d="M295,156.9c1.5,0.2,0.4,2.1,0.4,2.1s-1.7,1.9-3.8,3.1s-2.7-1-1-2.2C292.3,158.6,293.5,156.7,295,156.9z"/>
	<path class="st9" d="M297.3,161.6c1.5,0.2,0.4,2.1,0.4,2.1s-2,2.3-4.1,3.5s-2.7-1-1-2.2C294.3,163.7,295.8,161.4,297.3,161.6z"/>
	<path class="st9" d="M298,164.3c1.2,0.1,0.3,1.7,0.3,1.7s-1.7,1.9-3.4,2.8c-1.7,1-2.2-0.8-0.8-1.8S296.8,164.2,298,164.3z"/>
	<polygon class="st15" points="304.6,379.5 313.3,384.4 306.7,396 298.5,392.2 	"/>
	<g>
		<g>
			<g>
				<polygon id="SVGID_97_" class="st16" points="245.1,24.4 243.6,25.9 242.1,24.6 243.5,23.1 				"/>
			</g>
			<g>
				<defs>
					<polygon id="SVGID_1_" points="245.1,24.4 243.6,25.9 242.1,24.6 243.5,23.1 					"/>
				</defs>
				<clipPath id="SVGID_2_">
					<use xlink:href="#SVGID_1_"  style="overflow:visible;"/>
				</clipPath>
				<polygon class="st17" points="243.4,18.6 237.2,24.8 243.8,30.5 250,24.2 				"/>
			</g>
		</g>
		<g>
			<g>
				<path id="SVGID_99_" class="st8" d="M190,37.6c-1.5-6.3,17.5-8.3,17.5-8.3l0.8,1.5c0,0-16.9,1.4-16.4,7.4L190,37.6z"/>
			</g>
			<g>
				<defs>
					<path id="SVGID_3_" d="M190,37.6c-1.5-6.3,17.5-8.3,17.5-8.3l0.8,1.5c0,0-16.9,1.4-16.4,7.4L190,37.6z"/>
				</defs>
				<clipPath id="SVGID_4_">
					<use xlink:href="#SVGID_3_"  style="overflow:visible;"/>
				</clipPath>
				<polygon class="st18" points="201.1,19.6 184,37 196.5,47.5 213.6,30.2 				"/>
			</g>
		</g>
		<g>
			<g>
				<path id="SVGID_101_" class="st12" d="M255.4,28.1c0,0-0.9,1-1,1c-0.1-0.1-1.9,8.7,8.2,6.9l1-1
					C253.5,36.1,255.4,28.1,255.4,28.1"/>
			</g>
			<g>
				<defs>
					<path id="SVGID_5_" d="M255.4,28.1c0,0-0.9,1-1,1c-0.1-0.1-1.9,8.7,8.2,6.9l1-1C253.5,36.1,255.4,28.1,255.4,28.1"/>
				</defs>
				<clipPath id="SVGID_6_">
					<use xlink:href="#SVGID_5_"  style="overflow:visible;"/>
				</clipPath>
				<polygon class="st19" points="255.2,23.6 247,31.8 260.3,43 268.5,34.8 				"/>
			</g>
		</g>
		<g>
			<g>
				<path id="SVGID_103_" class="st20" d="M236.9,36.3l-1.1,1.2c-5.7-0.6-11.3-7.4-11.3-7.4s-0.9-2.9,1.2-2.2
					C230.2,35.2,236.9,36.3,236.9,36.3"/>
			</g>
			<g>
				<defs>
					<path id="SVGID_7_" d="M236.9,36.3l-1.1,1.2c-5.7-0.6-11.3-7.4-11.3-7.4s-0.9-2.9,1.2-2.2C230.2,35.2,236.9,36.3,236.9,36.3"/>
				</defs>
				<clipPath id="SVGID_8_">
					<use xlink:href="#SVGID_7_"  style="overflow:visible;"/>
				</clipPath>
				<polygon class="st21" points="225.5,22.2 218.1,29.6 234.5,43.4 241.8,36 				"/>
			</g>
		</g>
		<g>
			<g>
				<path id="SVGID_105_" class="st16" d="M206.3,13.7c0,0-1-1.5-2.7,0.5c-0.1,5.5,3.8,6.1,5.8,6.5c3.9,0.2,4.3-6.1,5.7-5.8
					s1,6,4.3,5.7c3.3-0.3,4.4-8.4,4.4-8.4s4,0.2,6,5.1c1.3,0.6,2.4-0.4,2.3-2.3c-0.1-1.9-4.7-6.6-7.8-5.8c-3.6,1.3-1.9,8.2-4.8,10
					c-1.3-0.2-1.1-5.3-3.4-5.8c-2.8-0.9-4.1,5.6-7.2,4.6C207.6,17.7,207.4,18.1,206.3,13.7"/>
			</g>
			<g>
				<defs>
					<path id="SVGID_9_" d="M206.3,13.7c0,0-1-1.5-2.7,0.5c-0.1,5.5,3.8,6.1,5.8,6.5c3.9,0.2,4.3-6.1,5.7-5.8s1,6,4.3,5.7
						c3.3-0.3,4.4-8.4,4.4-8.4s4,0.2,6,5.1c1.3,0.6,2.4-0.4,2.3-2.3c-0.1-1.9-4.7-6.6-7.8-5.8c-3.6,1.3-1.9,8.2-4.8,10
						c-1.3-0.2-1.1-5.3-3.4-5.8c-2.8-0.9-4.1,5.6-7.2,4.6C207.6,17.7,207.4,18.1,206.3,13.7"/>
				</defs>
				<clipPath id="SVGID_10_">
					<use xlink:href="#SVGID_9_"  style="overflow:visible;"/>
				</clipPath>
				<polygon class="st22" points="216.8,-3.9 196.8,16.2 218.7,34.7 238.6,14.6 				"/>
			</g>
		</g>
		<g>
			<g>
				<polygon id="SVGID_107_" class="st12" points="225.8,47.8 224.4,49.3 222.8,47.9 224.2,46.4 				"/>
			</g>
			<g>
				<defs>
					<polygon id="SVGID_11_" points="225.8,47.8 224.4,49.3 222.8,47.9 224.2,46.4 					"/>
				</defs>
				<clipPath id="SVGID_12_">
					<use xlink:href="#SVGID_11_"  style="overflow:visible;"/>
				</clipPath>
				<polygon class="st23" points="224.1,41.9 217.9,48.2 224.5,53.8 230.7,47.5 				"/>
			</g>
		</g>
		<g>
			<g>
				<polygon id="SVGID_109_" class="st12" points="218.9,7.1 217.5,8.5 215.9,7.2 217.3,5.7 				"/>
			</g>
			<g>
				<defs>
					<polygon id="SVGID_13_" points="218.9,7.1 217.5,8.5 215.9,7.2 217.3,5.7 					"/>
				</defs>
				<clipPath id="SVGID_14_">
					<use xlink:href="#SVGID_13_"  style="overflow:visible;"/>
				</clipPath>
				<polygon class="st24" points="217.2,1.2 211,7.4 217.6,13.1 223.8,6.8 				"/>
			</g>
		</g>
		<g>
			<g>
				<polygon id="SVGID_111_" class="st20" points="212.4,37.8 210.9,39.3 209.3,38 210.8,36.5 				"/>
			</g>
			<g>
				<defs>
					<polygon id="SVGID_15_" points="212.4,37.8 210.9,39.3 209.3,38 210.8,36.5 					"/>
				</defs>
				<clipPath id="SVGID_16_">
					<use xlink:href="#SVGID_15_"  style="overflow:visible;"/>
				</clipPath>
				<polygon class="st25" points="210.6,31.9 204.4,38.2 211.1,43.8 217.3,37.6 				"/>
			</g>
		</g>
		<g>
			<g>
				<polygon id="SVGID_113_" class="st16" points="216.1,70.9 215.2,72.5 213.5,71.7 214.4,70.1 				"/>
			</g>
			<g>
				<defs>
					<polygon id="SVGID_17_" points="216.1,70.9 215.2,72.5 213.5,71.7 214.4,70.1 					"/>
				</defs>
				<clipPath id="SVGID_18_">
					<use xlink:href="#SVGID_17_"  style="overflow:visible;"/>
				</clipPath>
				<polygon class="st26" points="212.8,65.8 208.8,73.2 216.7,76.7 220.7,69.4 				"/>
			</g>
		</g>
		<g>
			<g>
				<path id="SVGID_115_" class="st8" d="M173.2,93.9c-2.9-4.9,12.5-10.7,12.5-10.7l1.1,1.1c0,0-13.8,4.8-11.8,9.7L173.2,93.9z"/>
			</g>
			<g>
				<defs>
					<path id="SVGID_19_" d="M173.2,93.9c-2.9-4.9,12.5-10.7,12.5-10.7l1.1,1.1c0,0-13.8,4.8-11.8,9.7L173.2,93.9z"/>
				</defs>
				<clipPath id="SVGID_20_">
					<use xlink:href="#SVGID_19_"  style="overflow:visible;"/>
				</clipPath>
				<polygon class="st27" points="177.6,75.9 167.3,94.8 181.4,101.2 191.7,82.3 				"/>
			</g>
		</g>
		<g>
			<g>
				<path id="SVGID_117_" class="st8" d="M225.6,71.7l-0.5,1c-0.1,0,0.7,7.7,8.7,3.9l0.5-1C226.2,78.8,225.6,71.7,225.6,71.7"/>
			</g>
			<g>
				<defs>
					<path id="SVGID_21_" d="M225.6,71.7l-0.5,1c-0.1,0,0.7,7.7,8.7,3.9l0.5-1C226.2,78.8,225.6,71.7,225.6,71.7"/>
				</defs>
				<clipPath id="SVGID_22_">
					<use xlink:href="#SVGID_21_"  style="overflow:visible;"/>
				</clipPath>
				<polygon class="st28" points="224.1,67.4 219,76.8 233.9,83.5 239,74.2 				"/>
			</g>
		</g>
		<g>
			<g>
				<path id="SVGID_119_" class="st16" d="M212.2,82.5l-0.7,1.2c-5,0.7-11.5-3.7-11.5-3.7s-1.5-2.2,0.4-2.1
					C206.3,83.1,212.2,82.5,212.2,82.5"/>
			</g>
			<g>
				<defs>
					<path id="SVGID_23_" d="M212.2,82.5l-0.7,1.2c-5,0.7-11.5-3.7-11.5-3.7s-1.5-2.2,0.4-2.1C206.3,83.1,212.2,82.5,212.2,82.5"/>
				</defs>
				<clipPath id="SVGID_24_">
					<use xlink:href="#SVGID_23_"  style="overflow:visible;"/>
				</clipPath>
				<polygon class="st29" points="198.8,72.8 194.1,81.3 212.3,89.5 216.9,81 				"/>
			</g>
		</g>
		<g>
			<g>
				<path id="SVGID_121_" class="st12" d="M213.2,87.1c2.6-1.2,4.1-0.2,6.2,1.5c2.1,1.7-3.8,4.8-2.3,5.3s4.8-1.4,6.2,0.2
					s-5.2,4.6-5.2,6.4s4.6,0.6,5.7,1.9c1,1.3-0.6,1.5-0.6,1.5s-4.8-0.2-6.1-2.7s5.5-5.6,4.3-6.2s-7.2,1.2-7.5-0.7
					c-0.3-2,5.1-3.2,4.2-5.3c-2.5-2-5.1-0.6-5.1-0.6S210.6,88.3,213.2,87.1"/>
			</g>
			<g>
				<defs>
					<path id="SVGID_25_" d="M213.2,87.1c2.6-1.2,4.1-0.2,6.2,1.5c2.1,1.7-3.8,4.8-2.3,5.3s4.8-1.4,6.2,0.2s-5.2,4.6-5.2,6.4
						s4.6,0.6,5.7,1.9c1,1.3-0.6,1.5-0.6,1.5s-4.8-0.2-6.1-2.7s5.5-5.6,4.3-6.2s-7.2,1.2-7.5-0.7c-0.3-2,5.1-3.2,4.2-5.3
						c-2.5-2-5.1-0.6-5.1-0.6S210.6,88.3,213.2,87.1"/>
				</defs>
				<clipPath id="SVGID_26_">
					<use xlink:href="#SVGID_25_"  style="overflow:visible;"/>
				</clipPath>
				<polygon class="st30" points="211.9,81 202.2,98.8 224.8,109 234.5,91.3 				"/>
			</g>
		</g>
		<g>
			<g>
				<polygon id="SVGID_123_" class="st8" points="206,94.5 205.1,96 203.4,95.3 204.3,93.7 				"/>
			</g>
			<g>
				<defs>
					<polygon id="SVGID_27_" points="206,94.5 205.1,96 203.4,95.3 204.3,93.7 					"/>
				</defs>
				<clipPath id="SVGID_28_">
					<use xlink:href="#SVGID_27_"  style="overflow:visible;"/>
				</clipPath>
				<polygon class="st31" points="202.8,89.4 198.8,96.7 206.6,100.3 210.6,93 				"/>
			</g>
		</g>
		<g>
			<g>
				<polygon id="SVGID_125_" class="st8" points="189.5,62.2 188.6,63.8 186.9,63 187.8,61.4 				"/>
			</g>
			<g>
				<defs>
					<polygon id="SVGID_29_" points="189.5,62.2 188.6,63.8 186.9,63 187.8,61.4 					"/>
				</defs>
				<clipPath id="SVGID_30_">
					<use xlink:href="#SVGID_29_"  style="overflow:visible;"/>
				</clipPath>
				<polygon class="st32" points="186.3,57.1 182.2,64.5 190.1,68 194.1,60.7 				"/>
			</g>
		</g>
		<g>
			<g>
				<polygon id="SVGID_127_" class="st20" points="192.1,89.1 191.2,90.7 189.5,89.9 190.4,88.4 				"/>
			</g>
			<g>
				<defs>
					<polygon id="SVGID_31_" points="192.1,89.1 191.2,90.7 189.5,89.9 190.4,88.4 					"/>
				</defs>
				<clipPath id="SVGID_32_">
					<use xlink:href="#SVGID_31_"  style="overflow:visible;"/>
				</clipPath>
				<polygon class="st33" points="188.8,84.1 184.8,91.4 192.7,95 196.7,87.6 				"/>
			</g>
		</g>
		<g>
			<g>
				<polygon id="SVGID_129_" class="st16" points="283,117.4 280.7,116.6 281.6,114.4 283.9,115.2 				"/>
			</g>
			<g>
				<defs>
					<polygon id="SVGID_33_" points="283,117.4 280.7,116.6 281.6,114.4 283.9,115.2 					"/>
				</defs>
				<clipPath id="SVGID_34_">
					<use xlink:href="#SVGID_33_"  style="overflow:visible;"/>
				</clipPath>
				<polygon class="st34" points="288.4,113.3 279.6,110.3 276.2,118.5 285,121.5 				"/>
			</g>
		</g>
		<g>
			<g>
				<path id="SVGID_131_" class="st16" d="M236.8,57.1c6.6-4.3,16.7,13.5,16.7,13.5l-1.5,1.5c0,0-8.5-16-15.2-12.8V57.1z"/>
			</g>
			<g>
				<defs>
					<path id="SVGID_35_" d="M236.8,57.1c6.6-4.3,16.7,13.5,16.7,13.5l-1.5,1.5c0,0-8.5-16-15.2-12.8V57.1z"/>
				</defs>
				<clipPath id="SVGID_36_">
					<use xlink:href="#SVGID_35_"  style="overflow:visible;"/>
				</clipPath>
				<polygon class="st35" points="261.5,60.3 235.4,51.5 228.8,67.6 254.8,76.4 				"/>
			</g>
		</g>
		<g>
			<g>
				<path id="SVGID_133_" class="st20" d="M283,129.1c0,0-1.5-0.4-1.5-0.5s-10.8,2.1-4.6,11.2l1.5,0.5
					C273,130.9,283,129.1,283,129.1"/>
			</g>
			<g>
				<defs>
					<path id="SVGID_37_" d="M283,129.1c0,0-1.5-0.4-1.5-0.5s-10.8,2.1-4.6,11.2l1.5,0.5C273,130.9,283,129.1,283,129.1"/>
				</defs>
				<clipPath id="SVGID_38_">
					<use xlink:href="#SVGID_37_"  style="overflow:visible;"/>
				</clipPath>
				<polygon class="st36" points="287.5,127.2 275.6,123.2 268.5,140.4 280.4,144.4 				"/>
			</g>
		</g>
		<g>
			<g>
				<path id="SVGID_135_" class="st8" d="M266,114.6l-1.8-0.6c-1.6-5.9,3.9-14.5,3.9-14.5s3-2.2,3.1,0.2
					C264.5,107.5,266,114.6,266,114.6"/>
			</g>
			<g>
				<defs>
					<path id="SVGID_39_" d="M266,114.6l-1.8-0.6c-1.6-5.9,3.9-14.5,3.9-14.5s3-2.2,3.1,0.2C264.5,107.5,266,114.6,266,114.6"/>
				</defs>
				<clipPath id="SVGID_40_">
					<use xlink:href="#SVGID_39_"  style="overflow:visible;"/>
				</clipPath>
				<polygon class="st37" points="276.8,97.3 266.3,93.8 257.5,115.1 268,118.7 				"/>
			</g>
		</g>
		<g>
			<g>
				<path id="SVGID_137_" class="st20" d="M279.5,74.3c0,0,1.3-1.7-1.7-2.5c-6.4,2.4-5.4,6.5-5,8.7c1.3,3.9,8.8,1.5,9,3
					c0.2,1.6-6.5,3.7-4.9,6.8c1.6,3.1,11.5,0.6,11.5,0.6s1.4,4.1-3.4,8.2c-0.2,1.5,1.5,2.2,3.6,1.2s5.7-7.6,3.4-10.3
					c-3-2.9-10.2,1.8-13.4-0.2c-0.2-1.4,5.7-3.5,5.3-5.9c-0.1-3.1-8.1-1.5-8.3-5C275.4,77.4,274.8,77.4,279.5,74.3"/>
			</g>
			<g>
				<defs>
					<path id="SVGID_41_" d="M279.5,74.3c0,0,1.3-1.7-1.7-2.5c-6.4,2.4-5.4,6.5-5,8.7c1.3,3.9,8.8,1.5,9,3c0.2,1.6-6.5,3.7-4.9,6.8
						c1.6,3.1,11.5,0.6,11.5,0.6s1.4,4.1-3.4,8.2c-0.2,1.5,1.5,2.2,3.6,1.2s5.7-7.6,3.4-10.3c-3-2.9-10.2,1.8-13.4-0.2
						c-0.2-1.4,5.7-3.5,5.3-5.9c-0.1-3.1-8.1-1.5-8.3-5C275.4,77.4,274.8,77.4,279.5,74.3"/>
				</defs>
				<clipPath id="SVGID_42_">
					<use xlink:href="#SVGID_41_"  style="overflow:visible;"/>
				</clipPath>
				<polygon class="st38" points="303.4,77 272.9,66.7 261,95.7 291.4,106 				"/>
			</g>
		</g>
		<g>
			<g>
				<path id="SVGID_139_" class="st16" d="M259.6,116.5c2,3,0.7,4.9-1.4,7.7c-2.2,2.8-7.3-3.9-7.8-1.9c-0.5,1.9,2.6,5.6,0.4,7.5
					c-2.2,1.9-7.2-5.6-9.7-5.3c-2.6,0.3-0.3,5.7-2,7.2s-2.1-0.5-2.1-0.5s-0.3-5.8,3.1-7.8c3.4-2,8.6,5.8,9.3,4.3s-2.6-8.5,0.2-9.2
					s5.2,5.7,8.1,4.2c2.6-3.3,0.2-6.3,0.2-6.3S257.6,113.5,259.6,116.5"/>
			</g>
			<g>
				<defs>
					<path id="SVGID_43_" d="M259.6,116.5c2,3,0.7,4.9-1.4,7.7c-2.2,2.8-7.3-3.9-7.8-1.9c-0.5,1.9,2.6,5.6,0.4,7.5
						c-2.2,1.9-7.2-5.6-9.7-5.3c-2.6,0.3-0.3,5.7-2,7.2s-2.1-0.5-2.1-0.5s-0.3-5.8,3.1-7.8c3.4-2,8.6,5.8,9.3,4.3s-2.6-8.5,0.2-9.2
						s5.2,5.7,8.1,4.2c2.6-3.3,0.2-6.3,0.2-6.3S257.6,113.5,259.6,116.5"/>
				</defs>
				<clipPath id="SVGID_44_">
					<use xlink:href="#SVGID_43_"  style="overflow:visible;"/>
				</clipPath>
				<polygon class="st39" points="266.6,114.5 242.2,106.3 231.1,133.4 255.5,141.6 				"/>
			</g>
		</g>
		<g>
			<g>
				<polygon id="SVGID_141_" class="st20" points="248.2,108.9 245.9,108.1 246.8,105.9 249.1,106.7 				"/>
			</g>
			<g>
				<defs>
					<polygon id="SVGID_45_" points="248.2,108.9 245.9,108.1 246.8,105.9 249.1,106.7 					"/>
				</defs>
				<clipPath id="SVGID_46_">
					<use xlink:href="#SVGID_45_"  style="overflow:visible;"/>
				</clipPath>
				<polygon class="st40" points="253.6,104.8 244.8,101.8 241.4,110 250.2,113 				"/>
			</g>
		</g>
		<g>
			<g>
				<polygon id="SVGID_143_" class="st16" points="292.3,83.8 290,83 290.9,80.8 293.2,81.6 				"/>
			</g>
			<g>
				<defs>
					<polygon id="SVGID_47_" points="292.3,83.8 290,83 290.9,80.8 293.2,81.6 					"/>
				</defs>
				<clipPath id="SVGID_48_">
					<use xlink:href="#SVGID_47_"  style="overflow:visible;"/>
				</clipPath>
				<polygon class="st41" points="297.7,79.7 288.9,76.7 285.5,84.9 294.3,87.9 				"/>
			</g>
		</g>
		<g>
			<g>
				<polygon id="SVGID_145_" class="st12" points="254.2,91.2 251.8,90.4 252.7,88.2 255.1,89 				"/>
			</g>
			<g>
				<defs>
					<polygon id="SVGID_49_" points="254.2,91.2 251.8,90.4 252.7,88.2 255.1,89 					"/>
				</defs>
				<clipPath id="SVGID_50_">
					<use xlink:href="#SVGID_49_"  style="overflow:visible;"/>
				</clipPath>
				<polygon class="st42" points="259.6,87.1 250.7,84.1 247.4,92.3 256.2,95.3 				"/>
			</g>
		</g>
		<g>
			<g>
				<polygon id="SVGID_147_" class="st12" points="266.8,19.3 268.8,19.7 268.4,21.6 266.3,21.2 				"/>
			</g>
			<g>
				<defs>
					<polygon id="SVGID_51_" points="266.8,19.3 268.8,19.7 268.4,21.6 266.3,21.2 					"/>
				</defs>
				<clipPath id="SVGID_52_">
					<use xlink:href="#SVGID_51_"  style="overflow:visible;"/>
				</clipPath>
				<polygon class="st43" points="262.2,23.7 271,25.4 273,17.3 264.2,15.5 				"/>
			</g>
		</g>
		<g>
			<g>
				<path id="SVGID_149_" class="st16" d="M304.3,55.1c-4.9,4.2-15.6-9.3-15.6-9.3l1-1.4c0,0,9.1,12.2,14.2,8.9L304.3,55.1z"/>
			</g>
			<g>
				<defs>
					<path id="SVGID_53_" d="M304.3,55.1c-4.9,4.2-15.6-9.3-15.6-9.3l1-1.4c0,0,9.1,12.2,14.2,8.9L304.3,55.1z"/>
				</defs>
				<clipPath id="SVGID_54_">
					<use xlink:href="#SVGID_53_"  style="overflow:visible;"/>
				</clipPath>
				<polygon class="st44" points="282.8,55.6 306.6,60.2 310.3,45.2 286.5,40.5 				"/>
			</g>
		</g>
		<g>
			<g>
				<path id="SVGID_151_" class="st12" d="M265.3,9.7c0,0,1.3,0.2,1.3,0.3s8.7-2.9,2.4-9.7L267.7,0C273.4,7.2,265.3,9.7,265.3,9.7"
					/>
			</g>
			<g>
				<defs>
					<path id="SVGID_55_" d="M265.3,9.7c0,0,1.3,0.2,1.3,0.3s8.7-2.9,2.4-9.7L267.7,0C273.4,7.2,265.3,9.7,265.3,9.7"/>
				</defs>
				<clipPath id="SVGID_56_">
					<use xlink:href="#SVGID_55_"  style="overflow:visible;"/>
				</clipPath>
				<polygon class="st45" points="261.2,12.2 272.6,14.4 276.6,-1.6 265.1,-3.8 				"/>
			</g>
		</g>
		<g>
			<g>
				<path id="SVGID_153_" class="st20" d="M281.3,19.8l1.6,0.3c2.1,4.7-1.4,12.3-1.4,12.3s-2.2,2.1-2.6,0.2
					C283.4,25.5,281.3,19.8,281.3,19.8"/>
			</g>
			<g>
				<defs>
					<path id="SVGID_57_" d="M281.3,19.8l1.6,0.3c2.1,4.7-1.4,12.3-1.4,12.3s-2.2,2.1-2.6,0.2C283.4,25.5,281.3,19.8,281.3,19.8"/>
				</defs>
				<clipPath id="SVGID_58_">
					<use xlink:href="#SVGID_57_"  style="overflow:visible;"/>
				</clipPath>
				<polygon class="st46" points="273.8,35.6 284.1,37.6 289,18.1 278.7,16 				"/>
			</g>
		</g>
		<g>
			<g>
				<path id="SVGID_155_" class="st8" d="M286.3,17.6c-2-2.3-1.2-4,0.2-6.5c1.4-2.5,6.5,2.4,6.7,0.8s-2.8-4.3-1.3-6.2
					c1.5-1.8,6.7,3.9,8.7,3.3c2.1-0.5-0.4-4.7,0.8-6.1c1.2-1.4,1.8,0.2,1.8,0.2s1,4.7-1.6,6.7c-2.5,2-7.9-3.9-8.3-2.5s3.2,6.7,1,7.6
					c-2.2,0.9-5-4.2-7.2-2.6c-1.8,3,0.6,5.2,0.6,5.2S288.4,19.8,286.3,17.6"/>
			</g>
			<g>
				<defs>
					<path id="SVGID_59_" d="M286.3,17.6c-2-2.3-1.2-4,0.2-6.5c1.4-2.5,6.5,2.4,6.7,0.8s-2.8-4.3-1.3-6.2c1.5-1.8,6.7,3.9,8.7,3.3
						c2.1-0.5-0.4-4.7,0.8-6.1c1.2-1.4,1.8,0.2,1.8,0.2s1,4.7-1.6,6.7c-2.5,2-7.9-3.9-8.3-2.5s3.2,6.7,1,7.6c-2.2,0.9-5-4.2-7.2-2.6
						c-1.8,3,0.6,5.2,0.6,5.2S288.4,19.8,286.3,17.6"/>
				</defs>
				<clipPath id="SVGID_60_">
					<use xlink:href="#SVGID_59_"  style="overflow:visible;"/>
				</clipPath>
				<polygon class="st47" points="280.1,20.4 302.5,24.8 308.6,0.2 286.2,-4.2 				"/>
			</g>
		</g>
		<g>
			<g>
				<polygon id="SVGID_157_" class="st8" points="296.8,22.6 298.8,23 298.3,24.9 296.3,24.5 				"/>
			</g>
			<g>
				<defs>
					<polygon id="SVGID_61_" points="296.8,22.6 298.8,23 298.3,24.9 296.3,24.5 					"/>
				</defs>
				<clipPath id="SVGID_62_">
					<use xlink:href="#SVGID_61_"  style="overflow:visible;"/>
				</clipPath>
				<polygon class="st48" points="292.1,27 300.9,28.7 303,20.5 294.2,18.8 				"/>
			</g>
		</g>
		<g>
			<g>
				<polygon id="SVGID_159_" class="st8" points="263.4,48 265.4,48.4 264.9,50.3 262.9,49.9 				"/>
			</g>
			<g>
				<defs>
					<polygon id="SVGID_63_" points="263.4,48 265.4,48.4 264.9,50.3 262.9,49.9 					"/>
				</defs>
				<clipPath id="SVGID_64_">
					<use xlink:href="#SVGID_63_"  style="overflow:visible;"/>
				</clipPath>
				<polygon class="st49" points="258.7,52.4 267.5,54.1 269.6,45.9 260.8,44.2 				"/>
			</g>
		</g>
		<g>
			<g>
				<polygon id="SVGID_161_" class="st20" points="294,37.8 296.1,38.2 295.6,40.1 293.6,39.7 				"/>
			</g>
			<g>
				<defs>
					<polygon id="SVGID_65_" points="294,37.8 296.1,38.2 295.6,40.1 293.6,39.7 					"/>
				</defs>
				<clipPath id="SVGID_66_">
					<use xlink:href="#SVGID_65_"  style="overflow:visible;"/>
				</clipPath>
				<polygon class="st50" points="289.4,42.2 298.2,43.9 300.2,35.8 291.4,34 				"/>
			</g>
		</g>
		<g>
			<g>
				<polygon id="SVGID_163_" class="st16" points="344.2,62 342.5,61.3 341.7,63 343.5,63.6 				"/>
			</g>
			<g>
				<defs>
					<polygon id="SVGID_67_" points="344.2,62 342.5,61.3 341.7,63 343.5,63.6 					"/>
				</defs>
				<clipPath id="SVGID_68_">
					<use xlink:href="#SVGID_67_"  style="overflow:visible;"/>
				</clipPath>
				<polygon class="st51" points="345.3,67.8 337.2,64.7 340.6,57.2 348.8,60.2 				"/>
			</g>
		</g>
		<g>
			<g>
				<path id="SVGID_165_" class="st8" d="M350.9,55.5c0,0-1.1-0.5-1.1-0.4s-4.9-6.3,3.8-8.4l1.1,0.4
					C346.3,49.8,350.9,55.5,350.9,55.5"/>
			</g>
			<g>
				<defs>
					<path id="SVGID_69_" d="M350.9,55.5c0,0-1.1-0.5-1.1-0.4s-4.9-6.3,3.8-8.4l1.1,0.4C346.3,49.8,350.9,55.5,350.9,55.5"/>
				</defs>
				<clipPath id="SVGID_70_">
					<use xlink:href="#SVGID_69_"  style="overflow:visible;"/>
				</clipPath>
				<polygon class="st52" points="352.8,59.6 342.3,55.7 348.8,41.4 359.3,45.3 				"/>
			</g>
		</g>
		<g>
			<g>
				<path id="SVGID_167_" class="st12" d="M333.1,55.6l-1.4-0.5c-4.3,2.5-6.1,9.9-6.1,9.9s0.4,2.6,1.8,1.3
					C328.2,58.8,333.1,55.6,333.1,55.6"/>
			</g>
			<g>
				<defs>
					<path id="SVGID_71_" d="M333.1,55.6l-1.4-0.5c-4.3,2.5-6.1,9.9-6.1,9.9s0.4,2.6,1.8,1.3C328.2,58.8,333.1,55.6,333.1,55.6"/>
				</defs>
				<clipPath id="SVGID_72_">
					<use xlink:href="#SVGID_71_"  style="overflow:visible;"/>
				</clipPath>
				<polygon class="st53" points="329.7,71.2 320.2,67.7 328.2,50.2 337.6,53.8 				"/>
			</g>
		</g>
		<g>
			<g>
				<polygon id="SVGID_169_" class="st16" points="319.8,50.3 318.1,49.7 317.3,51.3 319.1,52 				"/>
			</g>
			<g>
				<defs>
					<polygon id="SVGID_73_" points="319.8,50.3 318.1,49.7 317.3,51.3 319.1,52 					"/>
				</defs>
				<clipPath id="SVGID_74_">
					<use xlink:href="#SVGID_73_"  style="overflow:visible;"/>
				</clipPath>
				<polygon class="st54" points="320.9,56.1 312.8,53.1 316.2,45.5 324.4,48.6 				"/>
			</g>
		</g>
		<g>
			<g>
				<polygon id="SVGID_171_" class="st20" points="330.2,85 328.4,84.4 327.7,86 329.4,86.7 				"/>
			</g>
			<g>
				<defs>
					<polygon id="SVGID_75_" points="330.2,85 328.4,84.4 327.7,86 329.4,86.7 					"/>
				</defs>
				<clipPath id="SVGID_76_">
					<use xlink:href="#SVGID_75_"  style="overflow:visible;"/>
				</clipPath>
				<polygon class="st55" points="331.3,90.8 323.1,87.8 326.6,80.2 334.7,83.3 				"/>
			</g>
		</g>
		<g>
			<g>
				<polygon id="SVGID_173_" class="st8" points="313,63 311.3,62.3 310.5,64 312.3,64.6 				"/>
			</g>
			<g>
				<defs>
					<polygon id="SVGID_77_" points="313,63 311.3,62.3 310.5,64 312.3,64.6 					"/>
				</defs>
				<clipPath id="SVGID_78_">
					<use xlink:href="#SVGID_77_"  style="overflow:visible;"/>
				</clipPath>
				<polygon class="st56" points="314.1,68.8 306,65.7 309.4,58.2 317.6,61.2 				"/>
			</g>
		</g>
		<g>
			<g>
				<polygon id="SVGID_175_" class="st12" points="167,39 166.3,40.8 168.3,41.4 169,39.6 				"/>
			</g>
			<g>
				<defs>
					<polygon id="SVGID_79_" points="167,39 166.3,40.8 168.3,41.4 169,39.6 					"/>
				</defs>
				<clipPath id="SVGID_80_">
					<use xlink:href="#SVGID_79_"  style="overflow:visible;"/>
				</clipPath>
				<polygon class="st57" points="173.4,37.5 170.5,45.4 161.9,42.9 164.9,34.9 				"/>
			</g>
		</g>
		<g>
			<g>
				<path id="SVGID_177_" class="st12" d="M180.4,55.2c6.4-1.8-0.5-17.3-0.5-17.3l-1.8,0.1c0,0,6.6,13.6,0.9,16L180.4,55.2z"/>
			</g>
			<g>
				<defs>
					<path id="SVGID_81_" d="M180.4,55.2c6.4-1.8-0.5-17.3-0.5-17.3l-1.8,0.1c0,0,6.6,13.6,0.9,16L180.4,55.2z"/>
				</defs>
				<clipPath id="SVGID_82_">
					<use xlink:href="#SVGID_81_"  style="overflow:visible;"/>
				</clipPath>
				<polygon class="st58" points="191.8,38.1 183.9,59.6 168.2,54.9 176.1,33.4 				"/>
			</g>
		</g>
		<g>
			<g>
				<path id="SVGID_179_" class="st16" d="M158.9,32.8c0,0-0.5,1.2-0.4,1.2s-7.1,5.5-10.1-3l0.4-1.2C152.4,38,158.9,32.8,158.9,32.8
					"/>
			</g>
			<g>
				<defs>
					<path id="SVGID_83_" d="M158.9,32.8c0,0-0.5,1.2-0.4,1.2s-7.1,5.5-10.1-3l0.4-1.2C152.4,38,158.9,32.8,158.9,32.8"/>
				</defs>
				<clipPath id="SVGID_84_">
					<use xlink:href="#SVGID_83_"  style="overflow:visible;"/>
				</clipPath>
				<polygon class="st59" points="163.3,30.8 159.5,41.1 142.8,36.1 146.6,25.7 				"/>
			</g>
		</g>
		<g>
			<g>
				<path id="SVGID_181_" class="st20" d="M155.3,53.7c-1-2.8-3-3-6.1-3.2c-3.1-0.1-1.2,6.5-2.7,5.8c-1.6-0.7-2.5-4.5-5-4.2
					s0.1,7.3-1.4,8.7c-1.6,1.4-4.1-2.8-6-2.5c-1.9,0.2-0.8,1.6-0.8,1.6s3.8,3.2,7,2.2c3.1-1,0.5-8.3,1.9-7.9
					c1.5,0.4,4.5,6.1,6.5,4.7c1.9-1.3-1.2-6.2,1.3-7.1c3.7,0.1,4.5,3.2,4.5,3.2S156.4,56.5,155.3,53.7"/>
			</g>
			<g>
				<defs>
					<path id="SVGID_85_" d="M155.3,53.7c-1-2.8-3-3-6.1-3.2c-3.1-0.1-1.2,6.5-2.7,5.8c-1.6-0.7-2.5-4.5-5-4.2s0.1,7.3-1.4,8.7
						c-1.6,1.4-4.1-2.8-6-2.5c-1.9,0.2-0.8,1.6-0.8,1.6s3.8,3.2,7,2.2c3.1-1,0.5-8.3,1.9-7.9c1.5,0.4,4.5,6.1,6.5,4.7
						c1.9-1.3-1.2-6.2,1.3-7.1c3.7,0.1,4.5,3.2,4.5,3.2S156.4,56.5,155.3,53.7"/>
				</defs>
				<clipPath id="SVGID_86_">
					<use xlink:href="#SVGID_85_"  style="overflow:visible;"/>
				</clipPath>
				<polygon class="st60" points="161.1,50.1 153.7,70.3 128,62.6 135.5,42.4 				"/>
			</g>
		</g>
		<g>
			<g>
				<polygon id="SVGID_183_" class="st12" points="154.6,64.7 153.9,66.5 155.9,67.1 156.6,65.3 				"/>
			</g>
			<g>
				<defs>
					<polygon id="SVGID_87_" points="154.6,64.7 153.9,66.5 155.9,67.1 156.6,65.3 					"/>
				</defs>
				<clipPath id="SVGID_88_">
					<use xlink:href="#SVGID_87_"  style="overflow:visible;"/>
				</clipPath>
				<polygon class="st61" points="161,63.2 158.1,71.1 149.5,68.6 152.5,60.6 				"/>
			</g>
		</g>
		<g>
			<g>
				<polygon id="SVGID_185_" class="st16" points="195.1,50.9 194.4,52.8 196.4,53.4 197.1,51.5 				"/>
			</g>
			<g>
				<defs>
					<polygon id="SVGID_89_" points="195.1,50.9 194.4,52.8 196.4,53.4 197.1,51.5 					"/>
				</defs>
				<clipPath id="SVGID_90_">
					<use xlink:href="#SVGID_89_"  style="overflow:visible;"/>
				</clipPath>
				<polygon class="st62" points="201.5,49.5 198.5,57.4 190,54.8 192.9,46.9 				"/>
			</g>
		</g>
		<g>
			<g>
				<polygon id="SVGID_187_" class="st20" points="170,70.3 169.3,72.1 171.3,72.7 172,70.9 				"/>
			</g>
			<g>
				<defs>
					<polygon id="SVGID_91_" points="170,70.3 169.3,72.1 171.3,72.7 172,70.9 					"/>
				</defs>
				<clipPath id="SVGID_92_">
					<use xlink:href="#SVGID_91_"  style="overflow:visible;"/>
				</clipPath>
				<polygon class="st63" points="176.4,68.8 173.4,76.8 164.9,74.2 167.8,66.3 				"/>
			</g>
		</g>
	</g>
	<polygon class="st64" points="241.2,368.6 241.1,370.9 252.7,373 253.2,370.5 	"/>
	<g>
		
			<ellipse transform="matrix(0.1324 -0.9912 0.9912 0.1324 -57.4925 251.9519)" class="st65" cx="115.2" cy="158.8" rx="4.1" ry="2.3"/>
		
			<ellipse transform="matrix(0.1324 -0.9912 0.9912 0.1324 -49.3987 256.8057)" class="st66" cx="122" cy="156.6" rx="4.1" ry="1.4"/>
		<line class="st65" x1="117.9" y1="157.8" x2="120.1" y2="157"/>
	</g>
	<g>
		<path class="st67" d="M307,397.7c-0.8,1.9-8.7,13.2-9.5,13.3c-2.4,0.4-15.6-12.7-20-16.2s-8.2-7.8-8.2-7.8s-4.9-4.8-3-6.6
			c1.1-0.8,1.4-2.3,3.1-2.4c3.8-0.1,9,7.5,9,7.5s15,6.1,18.1,4.4"/>
		<path class="st1" d="M301.4,389.8c0.4-2.1,1.2-2,0.9-2.4c-1.3-1.6-4.9,0.1-6,0.7c-3.1,1.6-17.3-4.3-17.3-4.3s-4.4-5.9-8.1-5.8
			c-1.7,0-1.9,0-3,0.8c-1.9,1.7,3,6.3,3,6.3s3.7,4.1,8.1,7.4c4.3,3.3,18.3,16.5,20.7,16.1c0.8-0.1,10.6-12,7.5-13
			C306.4,393.8,300,392.4,301.4,389.8z"/>
	</g>
	<polygon class="st68" points="302.1,385 301.3,386.2 308.8,392 309.8,390.7 	"/>
	<g class="st69">
		
			<ellipse transform="matrix(0.1324 -0.9912 0.9912 0.1324 -60.0396 253.6305)" class="st70" cx="114.9" cy="161.1" rx="4.1" ry="2.3"/>
		<path class="st70" d="M117.6,160.2c0,0,1.8-1.1,2.2-0.8"/>
	</g>
	<polygon class="st15" points="287.5,387.7 296.2,392.6 289.6,404.2 281.4,400.4 	"/>
	<g>
		<path class="st71" d="M429.6,283.2c0.7,2.2-3.3,14.9-9.1,15.7c-5.8,0.7,5.4-0.7,5.4-0.7l16.9-17.7
			C442.9,280.5,428.8,281,429.6,283.2z"/>
		<path class="st71" d="M454.7,275.2c-11.8,5.3-7.9,22.7-20.5,15.3c-3.5-2-3.1-7.3-6.1-10.5c-3.7-4-3.5-7.8-1.8-13.5
			c3.2-10.9,11.4-17.7,19.5-15.3C454,253.6,465.1,270.6,454.7,275.2z"/>
		<path class="st72" d="M437.2,261.3c-0.7,2.2-1.1,3.6-2.5,6.7c0.1,3.8,2.5,1.2,2.5,1.2s1.3-1.8,3.7-3.5c2.4-1.7,10.5,0.8,1.2,9.7
			c0.2,2.7-1.6,7.6,1,8.3c2.7,0.6,1.8,1.3,5.1,0.7c1.9-4.8,14.4-11.2,15.3-18.6s-3.3-12.4-3.3-12.4s-14.2-15.7-27.3-1.9
			c-0.8,3,2.5,4.1,2.5,4.1S437.9,259.1,437.2,261.3z"/>
		<path class="st14" d="M422,265.8c-0.5,1.2,0.1,2.6,1.3,3c1.2,0.5,2.6-0.1,3-1.3c0.2-0.6,1.2-2.1,1.2-2.1l-2.6-0.9
			C423.8,264,422.5,264.6,422,265.8z"/>
	</g>
	<path class="st13" d="M459.5,293.9c-13.3-8.4-25.5,21.4-25.5,21.4s3.7,23.1-9.4,27c-7.2,2.2-26.1-18.1-26.1-18.1l-11.3,4.6
		c0,0,21,42.4,45.3,36.3c24.2-6.1,31.5-40.8,31.5-40.8S471.6,301.6,459.5,293.9z"/>
	<path class="st12" d="M357.9,334c0,0-21.5-11.6-33.3-10.1c-15.2,1.9-41.3,68.2-41.3,68.2l12.4,7.1c7.1-15.6,29.5-38.9,36-48.5
		s53.4,28.5,53.4,28.5L357.9,334z"/>
	<path class="st12" d="M386.5,336.5c0,0-29.5-18.7-41.3-17.2c-19.1,2.4-42.5,66.3-42.5,66.3l11.6,8.2c7.1-15.6,31.1-34.1,37.6-43.6
		s53.4,28.5,53.4,28.5L386.5,336.5z"/>
	<path class="st13" d="M408.8,294.1c-17.3,10.1-32.7,50.1-32.7,50.1l36.6,29.2l45.4-80.4C458.1,292.9,426.8,283.6,408.8,294.1z"/>
	<circle class="st73" cx="337.7" cy="145.9" r="3.9"/>
	<polygon class="st68" points="284.9,393 284.3,394.3 292.4,399.2 293.2,397.8 	"/>
	<line class="st73" x1="329.6" y1="145.3" x2="333.7" y2="145.6"/>
	<path class="st8" d="M271.3,292.3c-13.2,5.1-30.5,76.7-30.5,76.7l13.5,2.5c5.9-21.4,22-40.9,37.1-54.3S284.5,287.2,271.3,292.3z"/>
	<circle class="st74" cx="337.7" cy="143.6" r="3.9"/>
	<ellipse class="st74" cx="326.7" cy="143" rx="3" ry="4"/>
	<line class="st74" x1="329.6" y1="143" x2="333.7" y2="143.3"/>
	<path class="st75" d="M189.5,297.9c19.7,4.9,30.2,25.7,30.2,25.7S196.5,300.1,189.5,297.9z"/>
	<path class="st75" d="M175.8,335.1l26.7,14.5l-3.2,5c0,0-24.8-11.9-24-16.5C176.1,333.4,175.8,335.1,175.8,335.1z"/>
	<path class="st64" d="M154.8,232.8c6.2-4.1,7.5-2.7,9.4-2.9c-6,5.2-0.9,22.8-0.9,22.8S155.3,237.1,154.8,232.8z"/>
	<path class="st76" d="M66,248.1l0.4,4.6c0,0,5.1,3.6,5.6,2.1s3.3-6.8,3.3-6.8s18.8,8.4,36.8,13l1.6-2.4
		c-15.8-3.9-38.9-13.2-38.9-13.2s-1.9,2.4-3.1,5.4C71.4,252,66,248.1,66,248.1z"/>
	<path class="st64" d="M104.6,324.1c0.3-6.1-0.7-11.8-0.7-11.8c-1.5-7.4-1.2-5.4-4.6-13.2c2,7.6,1.6,31.8,1.6,31.8s4,12.5,8.3,19
		C103.3,329.3,104.4,329.7,104.6,324.1z"/>
	<path class="st77" d="M122.4,217.1c0.1,0.8,0.2,3.6,0.2,3.6c7.5-0.8,15.8-5.6,15.8-5.6S131.3,217.9,122.4,217.1z"/>
	<path class="st77" d="M105.8,183.2c-0.1,2.2,0.4,8.6,0.4,8.6c-5.8,3.1-16.2-6.1-16.2-6.1L105.8,183.2z"/>
	<path class="st77" d="M334.6,315.2c-1.9-4.4-2.6-7.1-2.6-7.1s-16.7,5.6-42.5,10.6C292.3,319.3,327.5,314.7,334.6,315.2z"/>
	<path class="st68" d="M99.6,154.2c10.4,5.5,20.8-3.2,20.8-3.2S107.8,156.1,99.6,154.2z"/>
	<path class="st77" d="M308.8,314.1c-11.9,3.5-18.6,4.5-19.3,4.7c-12,11.4-20.2,22.8-20.2,22.8s7.4-21.4,20.8-24.7
		C292.1,316.3,300.8,315.6,308.8,314.1z"/>
	<path class="st78" d="M461.8,171.1c9.3,30.4,26.1,14.4,33.1,4.7c1.2-1.7,2.2-3.2,2.7-4.2c0,0-10.1,9.3-20.9,8.4
		C465.9,179.2,461.8,171.1,461.8,171.1z"/>
	<path class="st78" d="M441.8,172.3c9.5-3.5,13.5-17.6,13.5-17.6s-19.7,21.4-33.6,0C421.7,154.7,427.2,169.7,441.8,172.3z"/>
	<path class="st79" d="M16,417.6c27.7,21.5,61.9,6.5,61.9,6.5L57,446.5H10.7C10.7,446.5,18.6,420.9,16,417.6z"/>
	<path class="st80" d="M403.6,356.7c0,0-28.6-10.8-48.4-20.5c-35.4-17.4-39.9,28.8-39.9,28.8s62.4,24.1,82.6,31.8
		c1.7-0.8,30.4-5.1,34.4-8.2c17.9-24.7,33.6-77.9,31.4-80.5s-42.1,0-42.1,0L403.6,356.7z"/>
	<path class="st81" d="M335.5,325c8.2,1.8,16.3,5.8,16.3,5.8l5.4-0.5C357.2,330.3,338.8,322.1,335.5,325z"/>
	<path class="st79" d="M436.9,426.3c-25.4,6.8-56.9-23.9-93.6-42.1c-4-0.4,18.4,70.2,18.4,70.2h58.7
		C420.3,454.5,430.9,444.8,436.9,426.3z"/>
	<g>
		<polygon class="st2" points="397.4,357.7 397.9,360.6 314.3,407.3 313.1,405.2 		"/>
		<polygon class="st2" points="361.2,334.7 363.3,336.4 342.5,435 340.7,434.4 		"/>
		<polygon class="st2" points="404.9,396.3 403.3,398.8 310.8,374 311.4,371.7 		"/>
		<polygon class="st2" points="378.3,430.6 375.4,431 330.2,344.5 332.4,343.4 		"/>
		<path class="st1" d="M358.6,330.3c-27.7,0-50.2,24.7-50.2,55.2s22.5,55.2,50.2,55.2s50.2-24.7,50.2-55.2S386.3,330.3,358.6,330.3z
			 M355.5,434.7c-24.5,0-44.4-21.9-44.4-48.9s19.9-48.9,44.4-48.9s44.4,21.9,44.4,48.9C399.9,412.9,380,434.7,355.5,434.7z"/>
		<ellipse class="st1" cx="352.5" cy="383.9" rx="4.4" ry="4.8"/>
		<path class="st2" d="M356.3,332.6c-26.1,0-47.3,23.6-47.3,52.8c0,29.1,21.2,52.8,47.3,52.8c26.1,0,47.3-23.6,47.3-52.8
			C403.6,356.2,382.4,332.6,356.3,332.6z M356.1,436.8c-25.3,0-45.9-22.9-45.9-51.2c0-28.3,20.5-51.2,45.9-51.2
			c25.3,0,45.9,22.9,45.9,51.2C401.9,413.9,381.4,436.8,356.1,436.8z"/>
	</g>
	<g>
		<g>
			<path class="st14" d="M348.5,332.4c-0.7,1-4.4,6.4-4.8,7.9s1.3,2.4,2.7,1c0.5-0.9,4.7-7.2,4.8-8.1
				C351.2,332.2,349.1,331.4,348.5,332.4z"/>
			<path class="st14" d="M351.6,332.7c-0.6,0.9-4.3,6-4.7,7.4c-0.4,1.4,1.3,2.3,2.7,1c0.5-0.9,4.5-6.8,4.6-7.7
				C354.4,332.6,352.3,331.8,351.6,332.7z"/>
			<path class="st14" d="M345.2,331.9c-0.6,0.9-4.3,6-4.7,7.4c-0.4,1.4,1.3,2.3,2.7,1c0.5-0.9,4.5-6.8,4.6-7.7
				C348,331.7,345.9,331,345.2,331.9z"/>
			<path class="st14" d="M354.8,332.1c-0.6,0.9-4.2,5.8-4.6,7.2c-0.4,1.4,1.2,2.2,2.6,1c0.2-0.4,1.1-1.7,2-3.1
				c1.2-1.8,2.4-3.8,2.5-4.3C357.5,331.9,355.5,331.2,354.8,332.1z"/>
			<polygon class="st14" points="346.5,332 355.4,333.3 354.3,335.7 345.3,336.2 			"/>
		</g>
		<path class="st14" d="M364.1,336.5c-3.3,2.2-7.2,0.5-9.3,1.7c-2.1,1.1-13.5-3.2-9.6-6.3c4.2-3.4,11.8-1.7,16.1,0.7
			C363.9,334,365.3,335.6,364.1,336.5z"/>
		<path class="st14" d="M356.2,330.6c0,0-1.8-1.4-3.4-1.5s-3.4,1.9-3.4,1.9L356.2,330.6z"/>
	</g>
	<polygon class="st14" points="368.1,336.7 356.9,331.7 354,336.5 366.1,343.5 	"/>
	<path class="st13" d="M417.1,291.8c-15.6-1.4-21,26-21,26s7.8,22-4.4,28.2c-6.7,3.4-29-13-29-13l-10.2,6.6c0,0,28.4,37.9,51.1,27.5
		s23.6-45.8,23.6-45.8S432.8,293.2,417.1,291.8z"/>
	<path class="st1" d="M428.2,308.1c6.1-17.6,27.8-7.7,27.8-7.7s3.3,2.2-0.7,3.8c-19.5-10.2-27.1,9.2-27.1,9.2L428.2,308.1
		L428.2,308.1z"/>
	<path class="st1" d="M463.7,308.1c4.3-14.8,20.5-6.8,20.5-6.8s3.4,2.6-0.3,4.2c-15-10.1-20.5,7.9-20.5,7.9L463.7,308.1z"/>
	<path class="st82" d="M352.5,339.6c47,58.7,67.2,11.1,67.2,11.1C414.5,365.7,387.1,398.2,352.5,339.6z"/>
	<path class="st77" d="M396.1,317.9c-0.4,13.7-7.3,23.6-7.3,23.6s3.9,3,4.1,3.8C402.6,338.2,395.6,316.2,396.1,317.9z"/>
	<g>
		<path class="st67" d="M290.6,405.1c-0.1,2-3.6,15.4-4.3,15.8c-2.1,1.2-19.1-6.4-24.4-8.1c-5.4-1.8-10.4-4.4-10.4-4.4
			s-6.3-2.8-5.2-5.1c0.7-1.2,0.5-2.7,2.1-3.3c3.5-1.4,11.1,3.9,11.1,3.9s16.1,0.4,18.5-2.2"/>
		<path class="st1" d="M282.6,399.6c-0.4-2.1,0.5-2.3,0-2.6c-1.8-1.1-4.5,1.9-5.4,2.7c-2.4,2.6-17.8,2-17.8,2s-6.2-4-9.7-2.6
			c-1.6,0.6-1.8,0.6-2.5,1.8c-1.1,2.3,5,4.9,5,4.9s4.9,2.5,10.2,4.1c5.1,1.6,22.9,9,25.1,7.8c0.7-0.4,5.7-15,2.4-14.8
			C288.7,401.5,282.2,402.5,282.6,399.6z"/>
	</g>
	<path class="st68" d="M432.6,255.4c0,0,3.1,1.7,4.6,5.9c0,0,1-1.7-1.7-5.8c-1.3-0.4-1.8-1.2-1.8-1.2L432.6,255.4z"/>
	<path class="st68" d="M441.9,282.6c-0.3,2.6,3.8,3.2,3.8,3.2s0.3-0.7,0.5-1.1c-1.1-0.1-1.2-0.4-2.2-0.7
		C442.9,283.7,442,283.5,441.9,282.6z"/>
	<polygon class="st68" points="124.8,415.5 125.1,417.2 134.2,414.8 134,412.8 	"/>
	<path class="st68" d="M31.7,403.5c-0.3,0.4-0.7,0.9-0.7,0.9l6.9,6.4l0.8-0.9C38.7,409.9,34.3,405.5,31.7,403.5z"/>
	<path d="M196.5,400.3l-0.7,1.7c4,2.7,10.5,3.2,10.5,3.2l1.2-1.9C207.4,403.4,200.6,402.1,196.5,400.3z"/>
	<polygon points="144.2,401.1 143.4,402.1 151,408.2 152.1,406.9 	"/>
	<path class="st83" d="M84.3,211.9c3.7,12.9,8.8,19.3,9.8,20.4C84.6,216.3,92,212.9,84.3,211.9z"/>
	<g>
		<path class="st9" d="M184.2,250.1c-3.3-0.4-36.2-4-36.2-4l1.2,12.3c0,0,22.8,2.9,32.4,2.5C189.1,261.3,191.2,250.7,184.2,250.1z"
			/>
		<path class="st9" d="M162.3,260.8c0.6,0.8,0.7,3.9-1.5,5c1.1,2.2-2.2,6.2-3.1,6.6c-1.2,4-6,5.1-13.2,4.2c-6.4-0.8-11.7-4-14.6-8.3
			c-1.8-2.7,2.3-9.7,4.1-12.4c2-2.9,2-2.4,4.2-4.5c3.9-3.8,3.3-5.8,10-5c0.8,0.1,1.7,0.2,2.5,0.4c8,1.8,14.1,10.2,12.9,12.6
			C163.3,259.7,162.6,260.3,162.3,260.8z"/>
		<path class="st12" d="M162,260.2c0.6,0.8,0.8,4.2-1.3,5.3c1.1,2.2-1.1,4.1-2,4.5c-1.2,4-6,5.1-13.2,4.2c-6.4-0.8-11.7-4-14.6-8.3
			c-1.8-2.7,1.7-6.3,2.1-9.6c0.4-3-2.7-5.3-0.5-7.4c3.9-3.8,10-5.9,16.7-5.1c0.8,0.1,1.7,0.2,2.5,0.4c8,1.8,12.5,12.1,11.2,14.5
			C162.7,259.2,162.3,259.6,162,260.2z"/>
		<path class="st12" d="M183.2,248.5c-3.3-0.4-33.8-4.6-33.8-4.6l1.2,12.3c0,0,22.8,2.9,32.4,2.5
			C190.6,259.1,190.3,249.1,183.2,248.5z"/>
	</g>
	<path class="st81" d="M374.3,208.9l6.8,2.1c-1.3,19.6-4.2,24.3-5.4,48.7C374.8,251.3,374.3,208.9,374.3,208.9z"/>
</g>
<g>
	<circle class="st84" cx="343.6" cy="214.4" r="3.8"/>
	<path class="st84" d="M348,219c-0.2-0.2-0.4-0.3-0.6-0.3c-0.2,0-0.3,0.1-0.5,0.2c-0.9,0.7-2.1,1-3.2,1c-3.1,0-5.5-2.5-5.5-5.5
		s2.5-5.5,5.5-5.5c1.1,0,2.2,0.3,3.1,1c0.1,0.1,0.3,0.1,0.5,0.1c0.2,0,0.4-0.1,0.6-0.3l7.5-7.7c0.2-0.2,0.3-0.4,0.2-0.6
		c0-0.2-0.1-0.5-0.3-0.6c-3.3-2.8-7.4-4.4-11.8-4.4c-9.9,0-17.9,8-17.9,17.9s8,17.9,17.9,17.9c4.3,0,8.5-1.6,11.8-4.4
		c0.2-0.2,0.3-0.4,0.3-0.6c0-0.2-0.1-0.5-0.2-0.6L348,219z M347.8,226.9c-1.3,0.4-2.7,0.7-4.2,0.7c-7.2,0-13.1-5.9-13.1-13.1
		s5.9-13.1,13.1-13.1c1.4,0,2.8,0.2,4.2,0.7c0.6,0.2,0.9,0.8,0.7,1.4c-0.2,0.6-0.8,0.9-1.4,0.7c-1.1-0.4-2.3-0.6-3.5-0.6
		c-6.1,0-11,4.9-11,11c0,6.1,4.9,11,11,11c1.2,0,2.4-0.2,3.5-0.6c0.6-0.2,1.2,0.1,1.4,0.7C348.7,226.1,348.4,226.7,347.8,226.9z"/>
</g>
</svg>
