<?xml version="1.0" encoding="utf-8"?>
<!-- Generator: Adobe Illustrator 22.0.1, SVG Export Plug-In . SVG Version: 6.00 Build 0)  -->
<svg version="1.1" id="Vrstva_1" xmlns="http://www.w3.org/2000/svg" xmlns:xlink="http://www.w3.org/1999/xlink" x="0px" y="0px"
	 viewBox="0 0 133 110" style="enable-background:new 0 0 133 110;" xml:space="preserve">
<style type="text/css">
	.st0{opacity:0.5;}
	.st1{fill:#EBE7FD;}
	.st2{fill:#E2E6F8;}
	.st3{opacity:0.85;clip-path:url(#SVGID_2_);}
	.st4{fill:#C2001B;}
	.st5{fill:#6740D2;}
	.st6{fill:#9AAEF7;}
	.st7{fill:#7749FF;}
	.st8{fill:#BBC9F2;}
</style>
<g>
	<g transform="translate(-122 -56)" class="st0">
		<g>
			<path id="c6rqb" class="st1" d="M150,79c15.5,0,28,12.3,28,27.5S165.5,134,150,134s-28-12.3-28-27.5S134.5,79,150,79z"/>
		</g>
		<g>
			<path id="c6rqb_1_" class="st2" d="M150,79c15.5,0,28,12.3,28,27.5S165.5,134,150,134s-28-12.3-28-27.5S134.5,79,150,79z"/>
		</g>
	</g>
	<g transform="translate(-122 -56)" class="st0">
		<g>
			<path id="c6rqc" class="st1" d="M228.5,126c10.2,0,18.5,8.3,18.5,18.5s-8.3,18.5-18.5,18.5s-18.5-8.3-18.5-18.5
				S218.3,126,228.5,126z"/>
		</g>
		<g>
			<path id="c6rqc_1_" class="st2" d="M228.5,126c10.2,0,18.5,8.3,18.5,18.5s-8.3,18.5-18.5,18.5s-18.5-8.3-18.5-18.5
				S218.3,126,228.5,126z"/>
		</g>
	</g>
	<g transform="translate(-122 -56)" class="st0">
		<g>
			<path id="c6rqd" class="st1" d="M244,56c6.1,0,11,4.7,11,10.5S250.1,77,244,77s-11-4.7-11-10.5S237.9,56,244,56z"/>
		</g>
		<g>
			<path id="c6rqd_1_" class="st2" d="M244,56c6.1,0,11,4.7,11,10.5S250.1,77,244,77s-11-4.7-11-10.5S237.9,56,244,56z"/>
		</g>
	</g>
	<path id="c6rqa_1_" class="st1" d="M67,21c24.9,0,45,19.8,45,44.2s-20.2,44.2-45,44.2S22,89.7,22,65.2C22,40.8,42.2,21,67,21z"/>
	<g>
		<g>
			<defs>
				<ellipse id="SVGID_1_" cx="67" cy="65.2" rx="45" ry="44.2"/>
			</defs>
			<clipPath id="SVGID_2_">
				<use xlink:href="#SVGID_1_"  style="overflow:visible;"/>
			</clipPath>
			<g class="st3">
				<path class="st4" d="M110.5,65.8L97,79.3L110.5,65.8z"/>
				<path class="st5" d="M94.4,49.7c-1.7-1.7-4.6-3.4-6.4-3.8c-1.9-0.4-3.4-0.8-3.4-0.8l-16.4,9.2l-6.4,31.2l6.4,31.4l23.2-2.1v-41
					l2.6,2.6l8.8-5.6l4.7-7.9L94.4,49.7z"/>
				<polygon class="st6" points="68.1,119 91.4,119 91.4,114.7 68.1,114.7 66.7,116.9 				"/>
				
					<rect x="92.7" y="68.9" transform="matrix(0.7071 -0.7071 0.7071 0.7071 -20.2691 93.1055)" class="st6" width="19.1" height="4.3"/>
				<path class="st6" d="M80.3,44l4.3,1c-2.9,6.2-9.1,10.5-16.4,10.5L66,53.4l2.1-2.1C73.4,51.3,78,48.4,80.3,44z"/>
				<path class="st7" d="M63.5,80.9l4.6-13.2V54.3L51.8,45c0,0-1.5,0.4-3.4,0.8c-1.9,0.4-4.8,2.2-6.4,3.8L28.9,62.8l5,9.4l8.5,4.2
					l2.6-2.6v41l23.2,2.1V77.3l-1.3,3.6H63.5z M62.3,77.3l-2.4,2.4l-7.2-7.2l7.2-7.1l2.4,2.4l-4.8,4.8L62.3,77.3z"/>
				<polygon class="st8" points="59.9,65.4 52.7,72.5 59.9,79.7 62.3,77.3 57.5,72.5 62.3,67.8 				"/>
				<polygon class="st6" points="76.4,65.4 74,67.8 78.8,72.5 74,77.3 76.4,79.7 83.6,72.5 				"/>
				<polygon class="st6" points="69.4,64.2 68.2,67.8 68.2,77.3 72.8,64.2 				"/>
				<polygon class="st8" points="63.5,80.9 66.9,80.9 68.2,77.3 68.2,67.8 				"/>
				
					<rect x="32" y="61.5" transform="matrix(0.7071 -0.7071 0.7071 0.7071 -40.2095 44.9465)" class="st8" width="4.3" height="19.1"/>
				<rect x="45" y="114.7" class="st8" width="23.2" height="4.3"/>
				<path class="st8" d="M68.2,51.3v4.3c-7.3,0-13.5-4.3-16.4-10.5l4.3-1C58.3,48.4,62.9,51.3,68.2,51.3z"/>
			</g>
		</g>
	</g>
</g>
</svg>
