<?xml version="1.0" encoding="utf-8"?>
<!-- Generator: Adobe Illustrator 22.1.0, SVG Export Plug-In . SVG Version: 6.00 Build 0)  -->
<svg version="1.1" id="Layer_4" xmlns="http://www.w3.org/2000/svg" xmlns:xlink="http://www.w3.org/1999/xlink" x="0px" y="0px"
	 viewBox="0 0 435 350" enable-background="new 0 0 435 350" xml:space="preserve">
<g>
	<path fill="#FFFFFF" d="M325,270c5.5,0,10-4.5,10-10s-4.5-10-10-10s-10,4.5-10,10c0,1.9,0.5,3.6,1.4,5.1L231.5,350h7.1l81.4-81.4
		C321.4,269.5,323.1,270,325,270z M325,255c2.8,0,5,2.2,5,5s-2.2,5-5,5s-5-2.2-5-5S322.2,255,325,255z"/>
	<path fill="#FFFFFF" d="M265,290c5.5,0,10-4.5,10-10s-4.5-10-10-10s-10,4.5-10,10c0,1.9,0.5,3.6,1.4,5.1L191.5,350h7.1l61.4-61.4
		C261.4,289.5,263.1,290,265,290z M265,275c2.8,0,5,2.2,5,5s-2.2,5-5,5s-5-2.2-5-5S262.2,275,265,275z"/>
	<path fill="#FFFFFF" d="M365,260c5.5,0,10-4.5,10-10s-4.5-10-10-10s-10,4.5-10,10c0,1.9,0.5,3.6,1.4,5.1L261.5,350h7.1l91.4-91.4
		C361.4,259.5,363.1,260,365,260z M365,245c2.8,0,5,2.2,5,5s-2.2,5-5,5s-5-2.2-5-5S362.2,245,365,245z"/>
	<path fill="#FFFFFF" d="M405,230c-5.5,0-10,4.5-10,10c0,1.9,0.5,3.6,1.4,5.1L291.5,350h7.1l101.4-101.4c1.5,0.9,3.2,1.4,5.1,1.4
		c5.5,0,10-4.5,10-10S410.5,230,405,230z M405,245c-2.8,0-5-2.2-5-5s2.2-5,5-5s5,2.2,5,5S407.8,245,405,245z"/>
	<path fill="#FFFFFF" d="M425,120c-5.5,0-10,4.5-10,10c0,1.9,0.5,3.6,1.4,5.1L374,177.5h-80L121.5,350h7.1L296,182.5h80l43.9-43.9
		c1.5,0.9,3.2,1.4,5.1,1.4c5.5,0,10-4.5,10-10S430.5,120,425,120z M425,135c-2.8,0-5-2.2-5-5s2.2-5,5-5s5,2.2,5,5S427.8,135,425,135
		z"/>
	<path fill="#FFFFFF" d="M425,150c-5.5,0-10,4.5-10,10c0,1.9,0.5,3.6,1.4,5.1L384,197.5h-80L151.5,350h7.1L306,202.5h80l33.9-33.9
		c1.5,0.9,3.2,1.4,5.1,1.4c5.5,0,10-4.5,10-10S430.5,150,425,150z M425,165c-2.8,0-5-2.2-5-5s2.2-5,5-5s5,2.2,5,5S427.8,165,425,165
		z"/>
	<path fill="#FFFFFF" d="M157.5,149.7c4.3-1.1,7.5-5,7.5-9.7c0-5.5-4.5-10-10-10s-10,4.5-10,10c0,4.6,3.2,8.6,7.5,9.7V199L1.5,350
		h7.1l149-149V149.7z M150,140c0-2.8,2.2-5,5-5s5,2.2,5,5s-2.2,5-5,5S150,142.8,150,140z"/>
	<path fill="#FFFFFF" d="M316,122.5L419.9,18.6c1.5,0.9,3.2,1.4,5.1,1.4c5.5,0,10-4.5,10-10s-4.5-10-10-10s-10,4.5-10,10
		c0,1.9,0.5,3.6,1.4,5.1L314,117.5h-50L31.5,350h7.1L266,122.5H316z M425,5c2.8,0,5,2.2,5,5s-2.2,5-5,5s-5-2.2-5-5S422.2,5,425,5z"
		/>
	<path fill="#FFFFFF" d="M335.3,142.5c1.1,4.3,5,7.5,9.7,7.5c5.5,0,10-4.5,10-10s-4.5-10-10-10c-4.6,0-8.6,3.2-9.7,7.5H274L61.5,350
		h7.1L276,142.5H335.3z M345,135c2.8,0,5,2.2,5,5s-2.2,5-5,5s-5-2.2-5-5S342.2,135,345,135z"/>
	<path fill="#FFFFFF" d="M366,162.5l23.9-23.9c1.5,0.9,3.2,1.4,5.1,1.4c5.5,0,10-4.5,10-10s-4.5-10-10-10s-10,4.5-10,10
		c0,1.9,0.5,3.6,1.4,5.1L364,157.5h-80L91.5,350h7.1L286,162.5H366z M395,125c2.8,0,5,2.2,5,5s-2.2,5-5,5s-5-2.2-5-5
		S392.2,125,395,125z"/>
</g>
</svg>
