<?xml version="1.0" encoding="utf-8"?>
<!-- Generator: Adobe Illustrator 22.1.0, SVG Export Plug-In . SVG Version: 6.00 Build 0)  -->
<svg version="1.1" id="Layer_1" xmlns="http://www.w3.org/2000/svg" xmlns:xlink="http://www.w3.org/1999/xlink" x="0px" y="0px"
	 viewBox="0 0 1440 189" style="enable-background:new 0 0 1440 189;" xml:space="preserve">
<style type="text/css">
	.st0{fill:#22EAAA;}
	.st1{fill:#3B007F;}
	.st2{fill:#24124D;}
</style>
<title>waves</title>
<desc>Created with Sketch.</desc>
<g id="Page-3">
	<g id="home" transform="translate(0.000000, -393.000000)">
		<g id="bg-colors" transform="translate(-344.000000, 0.000000)">
			<g id="waves" transform="translate(291.000000, 392.500000)">
				<path id="Rectangle-2" class="st0" d="M1147.7,5.9c0,0-878.1,17.3-913.3,20.3C226,27,108.2,10.1,114.8,11.4
					c184.7,37.1,411.6,127.5,537.8,143.4c282.4,35.5,549.1-82.7,549.1-82.7L1147.7,5.9z"/>
				<path id="Rectangle-2_1_" class="st1" d="M1494,0.5L644.6,0.9c0,0-109.7,7.4-43.5,27.1c130.7,38.8,258.7,82.2,342.5,92.7
					c279.4,35.2,543.9-80.3,549.4-82.7c0.1,0,0.7-0.4,0.7-0.4L1494,0.5z"/>
				<path id="Rectangle-2_2_" class="st2" d="M43.6,0.5l1357.3,0l48.8,0c0,0-43.7,1.4-51.9,1.8c-73.7,2.9-184.5,11.7-311,37.1
					C902.2,76.4,675.3,166.9,549.1,182.8c-206.2,26-404.1-30.1-495.8-62.3C19.4,108.7,0,100.1,0,100.1L43.6,0.5z"/>
			</g>
		</g>
	</g>
</g>
</svg>
